<svg xmlns="http://www.w3.org/2000/svg" xmlns:xlink="http://www.w3.org/1999/xlink" width="129" height="129" viewBox="0 0 129 129">
  <defs>
    <radialGradient id="radial-gradient" cx="0.5" cy="0.5" r="0.5" gradientUnits="objectBoundingBox">
      <stop offset="0" stop-color="#fff"/>
      <stop offset="1" stop-color="#fff7ea"/>
    </radialGradient>
  </defs>
  <g id="Grupo_1106840" data-name="Grupo 1106840" transform="translate(-1051.571 -4163)">
    <g id="Grupo_1106783" data-name="Grupo 1106783">
      <g id="Grupo_1106777" data-name="Grupo 1106777" transform="translate(626)">
        <g id="Elipse_12307" data-name="Elipse 12307" transform="translate(440.571 4178)" stroke="#fff" stroke-width="2" fill="url(#radial-gradient)">
          <circle cx="49.5" cy="49.5" r="49.5" stroke="none"/>
          <circle cx="49.5" cy="49.5" r="48.5" fill="none"/>
        </g>
        <g id="Elipse_12308" data-name="Elipse 12308" transform="translate(425.571 4163)" fill="none" stroke="#fff0d6" stroke-width="10" opacity="0.43">
          <circle cx="64.5" cy="64.5" r="64.5" stroke="none"/>
          <circle cx="64.5" cy="64.5" r="59.5" fill="none"/>
        </g>
      </g>
      <g id="Icon" transform="translate(1082.572 4194)">
        <g id="Grupo_1106778" data-name="Grupo 1106778" transform="translate(6 6)">
          <path id="Trazado_902795" data-name="Trazado 902795" d="M32.427,74.746H8V49H52.938v5.234A15.922,15.922,0,0,0,32.427,74.746Z" transform="translate(-7.064 -28.872)" fill="#8d6e63" fill-rule="evenodd"/>
          <path id="Trazado_902796" data-name="Trazado 902796" d="M31.653,75.128H8V55H52.938v2.426a15.925,15.925,0,0,0-21.285,17.7Z" transform="translate(-7.064 -32.063)" fill="#25b6fc" fill-rule="evenodd"/>
          <path id="Trazado_902797" data-name="Trazado 902797" d="M32.6,8c3.1,0,5.617,2.936,5.617,6.553S35.7,21.107,32.6,21.107s-5.617-2.936-5.617-6.553S29.5,8,32.6,8ZM17.617,8c3.1,0,5.617,2.936,5.617,6.553s-2.517,6.553-5.617,6.553S12,18.17,12,14.553,14.517,8,17.617,8ZM47.576,8c3.1,0,5.617,2.936,5.617,6.553s-2.517,6.553-5.617,6.553-5.617-2.936-5.617-6.553S44.476,8,47.576,8Z" transform="translate(-9.191 -7.064)" fill="#43a047" fill-rule="evenodd"/>
          <circle id="Elipse_12321" data-name="Elipse 12321" cx="13" cy="13" r="13" transform="translate(27 27)" fill="#ffdfc9"/>
          <path id="Trazado_902798" data-name="Trazado 902798" d="M85.617,73a65.263,65.263,0,0,1,4.4,8.05,12.284,12.284,0,0,1,1.213,4.3,5.62,5.62,0,0,1-11.234,0,12.284,12.284,0,0,1,1.213-4.3A65.262,65.262,0,0,1,85.617,73Z" transform="translate(-45.36 -41.637)" fill="#4fc3f7" fill-rule="evenodd"/>
          <path id="Trazado_902799" data-name="Trazado 902799" d="M46.257,32.214A14.043,14.043,0,1,1,32.214,46.257,14.05,14.05,0,0,1,46.257,32.214Zm0,1.872A12.171,12.171,0,1,0,58.427,46.257,12.176,12.176,0,0,0,46.257,34.086Zm.785,2.766a66.511,66.511,0,0,1,4.478,8.189,13.227,13.227,0,0,1,1.291,4.674,6.556,6.556,0,0,1-13.107,0,13.227,13.227,0,0,1,1.291-4.674,66.509,66.509,0,0,1,4.478-8.189.936.936,0,0,1,1.57,0Zm-.785,2.277a58.771,58.771,0,0,0-3.545,6.655,11.337,11.337,0,0,0-1.136,3.931,4.685,4.685,0,0,0,9.362,0A11.337,11.337,0,0,0,49.8,45.785,58.773,58.773,0,0,0,46.257,39.13Zm0,12.276a.936.936,0,1,1,0,1.872,3.658,3.658,0,0,1-3.745-3.563.936.936,0,0,1,1.872,0A1.787,1.787,0,0,0,46.257,51.406ZM36.541,33.654a3.087,3.087,0,0,0-3.527.332l-.424.343a4.922,4.922,0,0,1-6.37,0l-.424-.343a3.1,3.1,0,0,0-4.016,0l-.424.343a4.922,4.922,0,0,1-6.37,0l-1.116-.9a3.077,3.077,0,0,0-3.137-.522L7.287,34.3a.936.936,0,0,1-.7-1.736l3.445-1.393a4.915,4.915,0,0,1,5.016.8l1.115.9a3.1,3.1,0,0,0,4.016,0l.424-.343a4.922,4.922,0,0,1,6.37,0l.424.343a3.1,3.1,0,0,0,4.016,0l.424-.343a4.921,4.921,0,0,1,6.368,0A15.953,15.953,0,0,0,36.541,33.654ZM31.751,52.81H6.936a.936.936,0,0,1,0-1.872H31.042A15.805,15.805,0,0,0,31.751,52.81ZM30.785,50H6.936a.936.936,0,0,1,0-1.872H30.45A15.926,15.926,0,0,0,30.785,50Zm-.439-3.363a4.95,4.95,0,0,1-4.126-1.075L25.8,45.22a3.1,3.1,0,0,0-4.016,0l-.424.343a4.922,4.922,0,0,1-6.37,0l-1.116-.9a3.077,3.077,0,0,0-3.137-.522L7.287,45.532a.936.936,0,0,1-.7-1.736L10.031,42.4a4.915,4.915,0,0,1,5.016.8l1.115.9a3.1,3.1,0,0,0,4.016,0l.424-.343a4.922,4.922,0,0,1,6.37,0l.424.343a3.1,3.1,0,0,0,3.023.562q-.077.784-.078,1.588,0,.192,0,.382Zm.99-5.928a4.9,4.9,0,0,1-5.116-.764L25.8,39.6a3.1,3.1,0,0,0-4.016,0l-.424.343a4.922,4.922,0,0,1-6.37,0l-1.116-.9a3.077,3.077,0,0,0-3.137-.522L7.287,39.915a.936.936,0,0,1-.7-1.736l3.445-1.393a4.915,4.915,0,0,1,5.016.8l1.115.9a3.1,3.1,0,0,0,4.016,0l.424-.343a4.922,4.922,0,0,1,6.37,0l.424.343a3.1,3.1,0,0,0,4.016,0l.424-.343a5.416,5.416,0,0,1,1.189-.736,15.877,15.877,0,0,0-1.691,3.3ZM45.789,25.192h6.085a.936.936,0,1,1,0,1.872H6.936a.936.936,0,1,1,0-1.872H13.49V20.9c-3.144-.519-5.617-3.613-5.617-7.413,0-4.17,2.979-7.49,6.553-7.49s6.553,3.319,6.553,7.49c0,3.8-2.473,6.894-5.617,7.413v4.29H28.469V20.9c-3.144-.519-5.617-3.613-5.617-7.413,0-4.17,2.979-7.49,6.553-7.49s6.553,3.319,6.553,7.49c0,3.8-2.473,6.894-5.617,7.413v4.29H43.916V20.96c-3.363-.274-6.085-3.484-6.085-7.47,0-4.17,2.979-7.49,6.553-7.49s6.553,3.319,6.553,7.49a7.343,7.343,0,0,1-5.149,7.316ZM14.426,7.872c-2.627,0-4.681,2.553-4.681,5.617s2.055,5.617,4.681,5.617,4.681-2.553,4.681-5.617S17.052,7.872,14.426,7.872Zm29.959,0c-2.627,0-4.681,2.553-4.681,5.617s2.055,5.617,4.681,5.617,4.681-2.553,4.681-5.617S47.011,7.872,44.384,7.872Zm-14.979,0c-2.627,0-4.681,2.553-4.681,5.617s2.055,5.617,4.681,5.617,4.681-2.553,4.681-5.617S32.032,7.872,29.405,7.872Zm-22.469,22a.936.936,0,1,1,0-1.872H51.874a.936.936,0,1,1,0,1.872Z" transform="translate(-6 -6)" fill-rule="evenodd"/>
        </g>
      </g>
    </g>
  </g>
</svg>
