<svg xmlns="http://www.w3.org/2000/svg" xmlns:xlink="http://www.w3.org/1999/xlink" width="129" height="129" viewBox="0 0 129 129">
  <defs>
    <radialGradient id="radial-gradient" cx="0.5" cy="0.5" r="0.5" gradientUnits="objectBoundingBox">
      <stop offset="0" stop-color="#fff"/>
      <stop offset="1" stop-color="#fff7ea"/>
    </radialGradient>
  </defs>
  <g id="Grupo_1106821" data-name="Grupo 1106821" transform="translate(-736.571 -2749)">
    <g id="Grupo_1106807" data-name="Grupo 1106807" transform="translate(-315 -1414)">
      <g id="Grupo_1106777" data-name="Grupo 1106777" transform="translate(626)">
        <g id="Elipse_12307" data-name="Elipse 12307" transform="translate(440.571 4178)" stroke="#fff" stroke-width="2" fill="url(#radial-gradient)">
          <circle cx="49.5" cy="49.5" r="49.5" stroke="none"/>
          <circle cx="49.5" cy="49.5" r="48.5" fill="none"/>
        </g>
        <g id="Elipse_12308" data-name="Elipse 12308" transform="translate(425.571 4163)" fill="none" stroke="#fff0d6" stroke-width="10" opacity="0.43">
          <circle cx="64.5" cy="64.5" r="64.5" stroke="none"/>
          <circle cx="64.5" cy="64.5" r="59.5" fill="none"/>
        </g>
      </g>
    </g>
    <g id="_018-camping-1" data-name="018-camping-1" transform="translate(773.571 2785.844)">
      <path id="Trazado_902894" data-name="Trazado 902894" d="M310.076,30.336a3.325,3.325,0,0,1-5.115-4.2,2.97,2.97,0,0,1,.411-.5.274.274,0,0,0,0-.39.325.325,0,0,0-.238-.087,4.7,4.7,0,1,0,5.418,5.418.27.27,0,0,0-.238-.3.189.189,0,0,0-.238.065Zm0,0" transform="translate(-268.569 -22.291)" fill="#ffcd29"/>
      <g id="Grupo_1106813" data-name="Grupo 1106813" transform="translate(0.545 9.384)">
        <path id="Trazado_902895" data-name="Trazado 902895" d="M343.843,151.19a38.266,38.266,0,0,1-3.793-3.468,16.291,16.291,0,0,0,1.951-.954,1.033,1.033,0,0,0,.087-1.6,30.619,30.619,0,0,1-4.1-3.944,12.976,12.976,0,0,0,2.449-1.084.8.8,0,0,0,.065-1.279,20.273,20.273,0,0,1-5.743-6.979.534.534,0,0,0-1.018,0A20.278,20.278,0,0,1,328,138.858a.83.83,0,0,0,.065,1.279,14.528,14.528,0,0,0,2.449,1.084,30.694,30.694,0,0,1-4.1,3.944,1.033,1.033,0,0,0,.087,1.6,20.385,20.385,0,0,0,1.951.954c-.542.585-1.084,1.105-1.6,1.582a51.817,51.817,0,0,0,7.824,6.416,19.164,19.164,0,0,0,9.016-2.558A1.27,1.27,0,0,0,343.843,151.19Zm0,0" transform="translate(-291.286 -126.499)" fill="#6dcc6d"/>
        <path id="Trazado_902896" data-name="Trazado 902896" d="M37.234,149.018q-.715-.683-1.5-1.5a16.231,16.231,0,0,0,1.951-.954,1.033,1.033,0,0,0,.087-1.6,30.669,30.669,0,0,1-4.1-3.944,12.981,12.981,0,0,0,2.449-1.084.8.8,0,0,0,.065-1.279,20.267,20.267,0,0,1-5.743-6.979.534.534,0,0,0-1.019,0,19.916,19.916,0,0,1-5.722,7,.83.83,0,0,0,.065,1.279,14.526,14.526,0,0,0,2.449,1.084,30.692,30.692,0,0,1-4.1,3.944,1.033,1.033,0,0,0,.087,1.6,20.28,20.28,0,0,0,1.951.954,38.315,38.315,0,0,1-3.793,3.468,1.267,1.267,0,0,0,.108,1.972,19.057,19.057,0,0,0,8.8,2.536,50.047,50.047,0,0,0,7.954-6.5Zm0,0" transform="translate(-18.335 -126.321)" fill="#6dcc6d"/>
        <path id="Trazado_902897" data-name="Trazado 902897" d="M167.93,105.575a19.433,19.433,0,0,1-1.907.932l.065.13.3.3c.022,0,.022.022.044.022q.683.39,1.365.715a42.677,42.677,0,0,0,7.521-10.36.5.5,0,0,1,.672-.217.522.522,0,0,1,.217.217,42.852,42.852,0,0,0,7.586,10.425c.52-.238,1.018-.5,1.517-.78.022,0,.022-.022.043-.022l.3-.3.065-.13a15.579,15.579,0,0,1-1.907-.932,1.033,1.033,0,0,1-.087-1.6c.087-.065.152-.13.238-.2-.715-.628-1.517-1.387-2.34-2.254a16.3,16.3,0,0,0,1.951-.954,1.033,1.033,0,0,0,.087-1.6,30.618,30.618,0,0,1-4.1-3.944,12.977,12.977,0,0,0,2.449-1.084.8.8,0,0,0,.065-1.279,20.272,20.272,0,0,1-5.743-6.979.534.534,0,0,0-1.018,0,20.276,20.276,0,0,1-5.743,6.979.83.83,0,0,0,.065,1.279,14.526,14.526,0,0,0,2.449,1.084,30.692,30.692,0,0,1-4.1,3.944,1.033,1.033,0,0,0,.087,1.6,20.384,20.384,0,0,0,1.951.954c-.824.867-1.6,1.6-2.341,2.254a2.322,2.322,0,0,1,.238.2.982.982,0,0,1,0,1.6Zm0,0" transform="translate(-148.576 -85.305)" fill="#6dcc6d"/>
        <path id="Trazado_902898" data-name="Trazado 902898" d="M52.1,412.156V418.7H12.349v-6.545H5.023v9.753a.536.536,0,0,0,.542.542H58.881a.536.536,0,0,0,.542-.542v-9.753Zm0,0" transform="translate(-5.023 -376.737)" fill="#6dcc6d"/>
      </g>
      <path id="Trazado_902899" data-name="Trazado 902899" d="M93.132,193.915a.5.5,0,0,0-.672-.217.519.519,0,0,0-.217.217c-6.61,13.025-19.419,19.4-19.419,19.4v10.576h39.727V213.313c0-.022-12.809-6.372-19.419-19.4Zm0,0" transform="translate(-64.932 -172.519)" fill="#ffae2c"/>
      <path id="Trazado_902900" data-name="Trazado 902900" d="M181.612,311.355c-2.449,8.257-5.873,13.784-9.19,17.469H190.8c-3.338-3.663-6.762-9.19-9.19-17.469Zm0,0" transform="translate(-153.737 -277.475)" fill="#fc9322"/>
      <path id="Trazado_902901" data-name="Trazado 902901" d="M9.073,439.05c-.022-.043-.043-.108-.065-.152l-1.951-3.381A1.078,1.078,0,1,0,5.193,436.6L6.6,439.05Zm0,0" transform="translate(-4.497 -387.702)" fill="#e9e9ea"/>
      <path id="Trazado_902902" data-name="Trazado 902902" d="M469.824,439.05c.022-.043.043-.108.065-.152l1.951-3.381A1.078,1.078,0,1,1,473.7,436.6l-1.409,2.449Zm0,0" transform="translate(-418.91 -387.702)" fill="#e9e9ea"/>
      <path id="Trazado_902903" data-name="Trazado 902903" d="M54.423,418.534H1.107a1.1,1.1,0,0,1-1.084-1.084V407.7a.536.536,0,0,1,.542-.542H7.89a.536.536,0,0,1,.542.542v6H47.075v-6a.536.536,0,0,1,.542-.542h7.3a.536.536,0,0,1,.542.542v9.753a1.037,1.037,0,0,1-1.04,1.084ZM1.107,408.24v9.211H54.423V408.24H48.2v6a.536.536,0,0,1-.542.542H7.89a.537.537,0,0,1-.542-.542v-6Zm0,0" transform="translate(-0.02 -362.895)"/>
      <path id="Trazado_902904" data-name="Trazado 902904" d="M107.912,219.821H68.163a.537.537,0,0,1-.542-.542V208.7a.52.52,0,0,1,.3-.477c.13-.065,12.722-6.437,19.181-19.159a1.043,1.043,0,0,1,1.409-.455,1.026,1.026,0,0,1,.455.455c6.459,12.722,19.051,19.094,19.181,19.159a.52.52,0,0,1,.3.477V219.28a.536.536,0,0,1-.542.542ZM68.7,218.738h38.644V209.05c-1.972-1.084-13.242-7.542-19.311-19.419C81.969,201.508,70.7,207.966,68.7,209.05Zm19.788-29.41-.477.238Zm0,0" transform="translate(-60.293 -167.931)"/>
      <path id="Trazado_902905" data-name="Trazado 902905" d="M186.165,324.9h-18.4a.536.536,0,0,1-.542-.542.588.588,0,0,1,.13-.368c3.923-4.335,6.979-10.143,9.081-17.252a.548.548,0,0,1,.672-.369.569.569,0,0,1,.369.369c2.1,7.109,5.158,12.917,9.081,17.252a.544.544,0,0,1-.043.759.431.431,0,0,1-.347.152Zm-17.209-1.084h16a45.161,45.161,0,0,1-8-15.106,44.2,44.2,0,0,1-8,15.106Zm0,0" transform="translate(-149.1 -273.011)"/>
      <path id="Trazado_902906" data-name="Trazado 902906" d="M97.074,503.24H84.764a.542.542,0,1,1,0-1.084H97.074a.542.542,0,1,1,0,1.084Zm0,0" transform="translate(-75.095 -447.6)"/>
      <path id="Trazado_902907" data-name="Trazado 902907" d="M4.576,435.273H2.105a.6.6,0,0,1-.477-.26L.22,432.563a1.617,1.617,0,0,1,2.8-1.625l1.951,3.381a.817.817,0,0,1,.108.239.528.528,0,0,1-.3.693.484.484,0,0,1-.2.022Zm-2.167-1.084H3.666L2.105,431.48a.539.539,0,1,0-.932.542Zm0,0" transform="translate(0 -383.383)"/>
      <path id="Trazado_902908" data-name="Trazado 902908" d="M467.655,435.054h-2.492a.537.537,0,0,1-.542-.542.638.638,0,0,1,.044-.2,1.154,1.154,0,0,1,.108-.238l1.951-3.381a1.617,1.617,0,0,1,2.8,1.626l-1.409,2.449A.471.471,0,0,1,467.655,435.054Zm-1.56-1.084h1.257l1.257-2.167a.539.539,0,1,0-.932-.542Zm0,0" transform="translate(-414.271 -383.164)"/>
      <path id="Trazado_902909" data-name="Trazado 902909" d="M441.976,380.311a.664.664,0,0,1-.282-.065c-4.876-2.882-7.477-9.1-7.586-9.363a.559.559,0,0,1,.3-.715.541.541,0,0,1,.715.3c.022.065,2.6,6.155,7.152,8.843a.534.534,0,0,1,.195.737A.67.67,0,0,1,441.976,380.311Zm0,0" transform="translate(-387.031 -329.872)"/>
      <path id="Trazado_902910" data-name="Trazado 902910" d="M476.972,447a.647.647,0,0,1-.325-.108l-2.384-1.734a.542.542,0,0,1,.65-.867l2.384,1.734a.552.552,0,0,1,.13.759A.611.611,0,0,1,476.972,447Zm0,0" transform="translate(-422.678 -395.909)"/>
      <path id="Trazado_902911" data-name="Trazado 902911" d="M.565,380.207a.536.536,0,0,1-.542-.542.6.6,0,0,1,.26-.477c4.551-2.687,7.109-8.778,7.152-8.842a.55.55,0,0,1,1.019.412c-.108.26-2.731,6.48-7.586,9.363a.592.592,0,0,1-.3.087Zm0,0" transform="translate(-0.02 -329.769)"/>
      <path id="Trazado_902912" data-name="Trazado 902912" d="M6.565,447.059a.542.542,0,0,1-.325-.975l2.384-1.734a.552.552,0,0,1,.759.13.573.573,0,0,1-.108.759L6.89,446.972a.912.912,0,0,1-.325.087Zm0,0" transform="translate(-5.37 -395.97)"/>
      <path id="Trazado_902913" data-name="Trazado 902913" d="M330.675,152a.5.5,0,0,1-.3-.086,52.738,52.738,0,0,1-7.889-6.48.524.524,0,0,1,0-.759l.022-.022c.347-.325.715-.672,1.04-1.019a14.229,14.229,0,0,1-1.279-.65,1.467,1.467,0,0,1-.694-1.17,1.546,1.546,0,0,1,.542-1.322,29.382,29.382,0,0,0,3.49-3.273,13.318,13.318,0,0,1-1.777-.845,1.252,1.252,0,0,1-.607-1.018,1.311,1.311,0,0,1,.477-1.149,19.574,19.574,0,0,0,5.592-6.762,1.1,1.1,0,0,1,1-.694,1.112,1.112,0,0,1,1,.694,19.34,19.34,0,0,0,5.592,6.762,1.311,1.311,0,0,1,.477,1.149,1.273,1.273,0,0,1-.607,1.018,14.713,14.713,0,0,1-1.777.845,29.306,29.306,0,0,0,3.489,3.273,1.544,1.544,0,0,1,.542,1.322,1.434,1.434,0,0,1-.693,1.17,14.221,14.221,0,0,1-1.279.65,39.545,39.545,0,0,0,3.186,2.861,1.762,1.762,0,0,1,.607,1.517,1.656,1.656,0,0,1-.8,1.344A19.594,19.594,0,0,1,330.675,152Zm-7.022-6.935a50.5,50.5,0,0,0,7.2,5.852,18.317,18.317,0,0,0,8.582-2.47.662.662,0,0,0,.26-.477.671.671,0,0,0-.217-.585,39.6,39.6,0,0,1-3.858-3.533.543.543,0,0,1,.022-.759.474.474,0,0,1,.174-.108,15.062,15.062,0,0,0,1.885-.91.39.39,0,0,0,.152-.325.437.437,0,0,0-.13-.39,31.662,31.662,0,0,1-4.161-4.01.525.525,0,0,1,.065-.759.568.568,0,0,1,.195-.108,12.035,12.035,0,0,0,2.362-1.04.246.246,0,0,0,.065-.174.262.262,0,0,0-.065-.217,20.475,20.475,0,0,1-5.895-7.174c0-.022,0-.022-.022-.022l-.022.022a20.71,20.71,0,0,1-5.895,7.174.286.286,0,0,0-.065.217.248.248,0,0,0,.065.174,11.5,11.5,0,0,0,2.362,1.04.535.535,0,0,1,.347.672.874.874,0,0,1-.108.2,29.106,29.106,0,0,1-4.161,4.01.52.52,0,0,0,.022.715,15.064,15.064,0,0,0,1.885.91.551.551,0,0,1,.3.715.473.473,0,0,1-.108.173C324.477,144.266,324.065,144.678,323.653,145.068Zm0,0" transform="translate(-286.719 -112.879)"/>
      <path id="Trazado_902914" data-name="Trazado 902914" d="M25.018,152.116a19.674,19.674,0,0,1-9.081-2.622,1.676,1.676,0,0,1-.8-1.344,1.739,1.739,0,0,1,.607-1.517,33.282,33.282,0,0,0,3.186-2.861,14,14,0,0,1-1.279-.65,1.465,1.465,0,0,1-.693-1.17,1.544,1.544,0,0,1,.542-1.322,29.41,29.41,0,0,0,3.489-3.273,13.311,13.311,0,0,1-1.777-.845,1.252,1.252,0,0,1-.607-1.018,1.312,1.312,0,0,1,.477-1.149,19.57,19.57,0,0,0,5.592-6.762,1.066,1.066,0,0,1,1.387-.629,1.121,1.121,0,0,1,.629.629,19.574,19.574,0,0,0,5.591,6.762,1.312,1.312,0,0,1,.477,1.149,1.275,1.275,0,0,1-.607,1.018,14.743,14.743,0,0,1-1.777.845,29.269,29.269,0,0,0,3.489,3.273,1.547,1.547,0,0,1,.542,1.322,1.435,1.435,0,0,1-.694,1.17,13.936,13.936,0,0,1-1.278.65c.3.3.607.607.932.911a.524.524,0,0,1,.022.759v.022a52.841,52.841,0,0,1-8,6.567.9.9,0,0,1-.369.086Zm.65-24.166-.022.022a20.714,20.714,0,0,1-5.895,7.174.284.284,0,0,0-.065.217.245.245,0,0,0,.065.173,11.494,11.494,0,0,0,2.362,1.04.536.536,0,0,1,.347.672.9.9,0,0,1-.108.2,29.109,29.109,0,0,1-4.162,4.01.457.457,0,0,0-.13.39.462.462,0,0,0,.152.325,15.1,15.1,0,0,0,1.886.91.552.552,0,0,1,.3.715.478.478,0,0,1-.108.173,37.246,37.246,0,0,1-3.858,3.533.736.736,0,0,0-.217.585.545.545,0,0,0,.26.477,18.75,18.75,0,0,0,8.388,2.47,51.858,51.858,0,0,0,7.282-5.938c-.39-.369-.759-.759-1.105-1.127a.543.543,0,0,1,.022-.759.471.471,0,0,1,.174-.108,15.092,15.092,0,0,0,1.885-.91.39.39,0,0,0,.152-.325.436.436,0,0,0-.13-.39,31.637,31.637,0,0,1-4.161-4.01.525.525,0,0,1,.065-.759.571.571,0,0,1,.2-.108,12.033,12.033,0,0,0,2.362-1.04.248.248,0,0,0,.065-.174.263.263,0,0,0-.065-.217,20.47,20.47,0,0,1-5.895-7.174c-.044-.022-.044-.044-.044-.044Zm0,0" transform="translate(-13.485 -112.992)"/>
      <path id="Trazado_902915" data-name="Trazado 902915" d="M179.3,104.161a.544.544,0,0,1-.39-.174,42.732,42.732,0,0,1-7.65-10.489,43.29,43.29,0,0,1-7.586,10.425.524.524,0,0,1-.629.108c-.5-.238-.954-.477-1.409-.737-.022-.022-.043-.022-.065-.043s-.065-.044-.086-.065a4.024,4.024,0,0,0-.3-.3c-.022-.022-.044-.065-.065-.087-.043-.065-.065-.13-.108-.195a.54.54,0,0,1,.26-.715h.022a18.013,18.013,0,0,0,1.842-.889.39.39,0,0,0,.152-.325.437.437,0,0,0-.13-.39l-.26-.2a.546.546,0,0,1-.087-.759l.065-.065c.607-.542,1.192-1.105,1.756-1.647a14.221,14.221,0,0,1-1.279-.65,1.468,1.468,0,0,1-.694-1.17,1.546,1.546,0,0,1,.542-1.322,34.073,34.073,0,0,0,3.511-3.316,13.344,13.344,0,0,1-1.777-.845,1.252,1.252,0,0,1-.607-1.018,1.31,1.31,0,0,1,.477-1.149,19.574,19.574,0,0,0,5.592-6.762,1.066,1.066,0,0,1,1.387-.629,1.12,1.12,0,0,1,.628.629,19.34,19.34,0,0,0,5.592,6.762,1.31,1.31,0,0,1,.477,1.149,1.273,1.273,0,0,1-.607,1.018,13.61,13.61,0,0,1-1.8.845,29.3,29.3,0,0,0,3.489,3.273,1.544,1.544,0,0,1,.542,1.322,1.434,1.434,0,0,1-.693,1.17,14.225,14.225,0,0,1-1.279.65c.563.563,1.149,1.127,1.755,1.647a.544.544,0,0,1,.044.759l-.065.065-.26.2a.52.52,0,0,0,.022.715,14.381,14.381,0,0,0,1.842.889.551.551,0,0,1,.3.715v.022a.873.873,0,0,1-.108.2c-.022.022-.044.065-.065.087a4.025,4.025,0,0,1-.3.3l-.086.087c-.022.022-.044.022-.065.043-.5.282-1.018.542-1.56.8a.845.845,0,0,1-.282.065Zm-8.041-11.79a1.043,1.043,0,0,1,.932.563,41.283,41.283,0,0,0,7.239,10.013c.282-.13.563-.282.824-.433a12.5,12.5,0,0,1-1.192-.629,1.467,1.467,0,0,1-.694-1.17,1.571,1.571,0,0,1,.3-1.105,26.148,26.148,0,0,1-1.907-1.885.543.543,0,0,1,.022-.759.467.467,0,0,1,.173-.108,15.159,15.159,0,0,0,1.886-.911.39.39,0,0,0,.152-.325.437.437,0,0,0-.13-.39,31.69,31.69,0,0,1-4.161-4.01.525.525,0,0,1,.065-.759.564.564,0,0,1,.2-.108,12.06,12.06,0,0,0,2.362-1.04.246.246,0,0,0,.065-.174.262.262,0,0,0-.065-.217,20.471,20.471,0,0,1-5.9-7.174c0-.022,0-.022-.022-.022l-.022.022a20.71,20.71,0,0,1-5.895,7.174.285.285,0,0,0-.065.217.245.245,0,0,0,.065.174,11.517,11.517,0,0,0,2.362,1.04.535.535,0,0,1,.347.672.91.91,0,0,1-.108.2,29.132,29.132,0,0,1-4.162,4.01.457.457,0,0,0-.13.39.462.462,0,0,0,.152.325,15.159,15.159,0,0,0,1.886.911.551.551,0,0,1,.3.715.48.48,0,0,1-.108.174c-.607.629-1.236,1.257-1.907,1.885a1.571,1.571,0,0,1,.3,1.105,1.435,1.435,0,0,1-.694,1.17c-.39.217-.78.433-1.192.629a6.929,6.929,0,0,0,.694.347,42.044,42.044,0,0,0,7.152-9.948.885.885,0,0,1,.867-.563Zm0,0" transform="translate(-143.51 -71.798)"/>
      <path id="Trazado_902916" data-name="Trazado 902916" d="M301.415,30.646h-.152a5.238,5.238,0,0,1-.694-10.4.771.771,0,0,1,.845.433.786.786,0,0,1-.152.954,3.152,3.152,0,0,0-.347.412,2.853,2.853,0,0,0,.368,3.576,2.813,2.813,0,0,0,3.923-.022l.39.369-.39-.39a.8.8,0,0,1,.954-.152.831.831,0,0,1,.433.845,5.083,5.083,0,0,1-1.474,2.839,5.268,5.268,0,0,1-3.706,1.539Zm-1.43-9.168a4.163,4.163,0,1,0,5.353,5.354,3.861,3.861,0,0,1-5.353-1.149,3.8,3.8,0,0,1,0-4.2Zm5.613,4.465.39.39Zm0,0" transform="translate(-264.091 -17.898)"/>
      <path id="Trazado_902917" data-name="Trazado 902917" d="M413.827,86.487h-.39V86.1a.542.542,0,1,0-1.084,0v.39h-.39a.542.542,0,1,0,0,1.084h.39v.39a.542.542,0,1,0,1.084,0v-.39h.39a.542.542,0,0,0,0-1.084Zm0,0" transform="translate(-366.837 -76.144)" fill="#ffcd29"/>
      <path id="Trazado_902918" data-name="Trazado 902918" d="M468.93,370.632c0-.044-.022-.065-.022-.108-.022-.022-.022-.065-.043-.087s-.044-.065-.065-.087a.565.565,0,0,0-.759,0,.3.3,0,0,0-.065.087.76.76,0,0,0-.087.2.371.371,0,0,0,0,.217c0,.043.022.065.022.108.022.043.022.065.043.087s.044.065.065.086a.524.524,0,0,0,.759,0,.3.3,0,0,0,.065-.086.166.166,0,0,0,.043-.087.163.163,0,0,0,.022-.108A.26.26,0,0,0,468.93,370.632Zm0,0" transform="translate(-417.172 -329.947)" fill="#6dcc6d"/>
      <path id="Trazado_902919" data-name="Trazado 902919" d="M156.93,126.632c0-.044-.022-.065-.022-.108-.022-.022-.022-.065-.043-.087s-.044-.065-.065-.087a.565.565,0,0,0-.759,0,.3.3,0,0,0-.065.087.759.759,0,0,0-.087.2.371.371,0,0,0,0,.217c0,.043.022.065.022.108.022.043.022.065.043.087s.044.065.065.086a.524.524,0,0,0,.759,0,.306.306,0,0,0,.065-.086.166.166,0,0,0,.043-.087.163.163,0,0,0,.022-.108A.26.26,0,0,0,156.93,126.632Zm0,0" transform="translate(-138.982 -112.388)" fill="#55acd5"/>
      <path id="Trazado_902920" data-name="Trazado 902920" d="M279.455,1.262A1.392,1.392,0,0,1,278.371.178a.021.021,0,0,0-.022-.022.021.021,0,0,0-.022.022,1.392,1.392,0,0,1-1.084,1.084.022.022,0,1,0,0,.043,1.392,1.392,0,0,1,1.084,1.084.021.021,0,0,0,.022.022.022.022,0,0,0,.022-.022A1.392,1.392,0,0,1,279.455,1.3c.022,0,.022,0,0-.043Zm0,0" transform="translate(-247.18)" fill="#ea4647"/>
    </g>
  </g>
</svg>
