<svg id="Grupo_1106510" data-name="Grupo 1106510" xmlns="http://www.w3.org/2000/svg" xmlns:xlink="http://www.w3.org/1999/xlink" width="59.167" height="82.169" viewBox="0 0 59.167 82.169">
  <defs>
    <clipPath id="clip-path">
      <rect id="Rectángulo_378014" data-name="Rectángulo 378014" width="59.167" height="82.169" fill="none"/>
    </clipPath>
  </defs>
  <g id="Grupo_1073164" data-name="Grupo 1073164" clip-path="url(#clip-path)">
    <path id="Trazado_765507" data-name="Trazado 765507" d="M57.994,86.086A29.229,29.229,0,1,1,41.983,51.147,29.289,29.289,0,0,1,57.994,86.086" transform="translate(-0.347 -24.898)" fill="#322222"/>
    <path id="Trazado_765508" data-name="Trazado 765508" d="M5.679,66.8a26.694,26.694,0,1,0,33.156-18.05A26.724,26.724,0,0,0,5.679,66.8M39.2,47.525A27.975,27.975,0,1,1,4.451,66.441,27.975,27.975,0,0,1,39.2,47.525" transform="translate(-1.693 -23.783)" fill="#fdebe0"/>
    <path id="Trazado_765509" data-name="Trazado 765509" d="M40.189,50.106A26.694,26.694,0,1,1,7.033,68.157a26.727,26.727,0,0,1,33.156-18.05m-2.815,27L49.008,73.97l-12.033-.62L42.983,62.9,36.554,68.7l1.578-11.621L33.15,67.693,30.9,59.337l-.624,12.035L19.825,65.361,27.9,74.312,16.26,77.448l12.035.624L22.287,88.52l6.43-5.8L27.138,94.346l4.983-10.62,2.253,8.36L35,80.05l10.444,6.007Z" transform="translate(-3.046 -25.136)" fill="#fffaf7"/>
    <path id="Trazado_765510" data-name="Trazado 765510" d="M76,115.614l-10.444-6.007-.031-.051a4.869,4.869,0,0,0,2.35-2.908l.056.017Z" transform="translate(-33.604 -54.693)" fill="#73964a"/>
    <path id="Trazado_765511" data-name="Trazado 765511" d="M84.2,13.461a9.976,9.976,0,0,1-8.547,7.093,4,4,0,0,0,.763-2.354,7.767,7.767,0,1,0-7.359-2.175,4.017,4.017,0,0,0-.48,1.045,3.942,3.942,0,0,0-.157,1.347A9.96,9.96,0,1,1,84.2,13.461" transform="translate(-33.172 -0.349)" fill="#73964a"/>
    <path id="Trazado_765512" data-name="Trazado 765512" d="M62.56,112.668,61.935,124.7l-2.253-8.36L61.2,113.11a4.86,4.86,0,0,0,1.329-.493Z" transform="translate(-30.607 -57.754)" fill="#73964a"/>
    <path id="Trazado_765513" data-name="Trazado 765513" d="M59.884,96.339a4.881,4.881,0,1,1-6.619-1.953,4.775,4.775,0,0,1,1.328-.493A4.9,4.9,0,0,1,59.037,95.2a4.784,4.784,0,0,1,.848,1.135m-.91,3.329a3.518,3.518,0,1,0-4.372,2.38,3.518,3.518,0,0,0,4.372-2.38" transform="translate(-26.009 -48.099)" fill="#fdebe0"/>
    <path id="Trazado_765514" data-name="Trazado 765514" d="M77.992,42.473l-.573,1.944-.051.107a29.413,29.413,0,0,0-7.693-2.269l.016-.118.573-1.944,1.316.388,5.1,1.5Z" transform="translate(-35.732 -20.612)" fill="#73964a"/>
    <path id="Trazado_765515" data-name="Trazado 765515" d="M80.337,32.433a4,4,0,0,1-2.3,3.622l-5.1-1.5A4,4,0,0,1,72.5,31.3a4,4,0,0,1,7.838,1.13" transform="translate(-37.096 -14.583)" fill="#73964a"/>
    <path id="Trazado_765516" data-name="Trazado 765516" d="M81.624,99.589l-11.634,3.137-.056-.017a4.855,4.855,0,0,0-.4-3.714l.054-.026Z" transform="translate(-35.661 -50.755)" fill="#73964a"/>
    <path id="Trazado_765517" data-name="Trazado 765517" d="M74.705,77.524,68.7,87.971,68.644,88a4.784,4.784,0,0,0-.848-1.135l.481-3.544Z" transform="translate(-34.768 -39.757)" fill="#73964a"/>
    <path id="Trazado_765518" data-name="Trazado 765518" d="M58.031,96.737a3.518,3.518,0,1,1-4.368,2.378,3.518,3.518,0,0,1,4.368-2.378" transform="translate(-27.446 -49.536)" fill="#fdebe0"/>
    <path id="Trazado_765519" data-name="Trazado 765519" d="M66.112,77.186l-.481,3.544a4.885,4.885,0,0,0-2.057-1.214L67.69,65.565Z" transform="translate(-32.603 -33.624)" fill="#ff964c"/>
    <path id="Trazado_765520" data-name="Trazado 765520" d="M53.57,113.43a4.884,4.884,0,0,0,2.386.1l-1.518,3.233-4.983,10.62Z" transform="translate(-25.362 -58.171)" fill="#668243"/>
    <path id="Trazado_765521" data-name="Trazado 765521" d="M65.178,65.565,61.062,79.516a4.884,4.884,0,0,0-2.386-.1L60.2,76.182Z" transform="translate(-30.091 -33.624)" fill="#ff964c"/>
    <path id="Trazado_765522" data-name="Trazado 765522" d="M51.512,110.939a4.891,4.891,0,0,0,2.057,1.214L49.454,126.1l1.578-11.624Z" transform="translate(-25.362 -56.894)" fill="#668243"/>
    <path id="Trazado_765523" data-name="Trazado 765523" d="M3.107,65.1A27.975,27.975,0,1,0,37.854,46.182,27.976,27.976,0,0,0,3.107,65.1M41.985,46.352a29.254,29.254,0,1,1-7.693-2.27,29.424,29.424,0,0,1,7.693,2.27" transform="translate(-0.349 -22.44)" fill="#73964a"/>
    <path id="Trazado_765524" data-name="Trazado 765524" d="M57.246,81.8a4.776,4.776,0,0,0-1.328.493l-.031-.051L56.511,70.2l2.254,8.356Z" transform="translate(-28.661 -36.003)" fill="#73964a"/>
    <path id="Trazado_765525" data-name="Trazado 765525" d="M45.558,108.609a4.9,4.9,0,0,0,.848,1.135l-.479,3.54-6.43,5.8L45.5,108.635Z" transform="translate(-20.255 -55.699)" fill="#73964a"/>
    <path id="Trazado_765526" data-name="Trazado 765526" d="M39.159,104.7l-12.035-.624,11.638-3.137.056.017a4.871,4.871,0,0,0,.4,3.718Z" transform="translate(-13.91 -51.767)" fill="#73964a"/>
    <path id="Trazado_765527" data-name="Trazado 765527" d="M42.515,91.52l-8.072-8.951,10.446,6.012.031.051a4.857,4.857,0,0,0-2.349,2.9Z" transform="translate(-17.664 -42.344)" fill="#73964a"/>
    <path id="Trazado_765528" data-name="Trazado 765528" d="M99.3,118.449l.2-.52,3.691,1.31-.235.621Z" transform="translate(-50.924 -60.478)" fill="#322222"/>
    <path id="Trazado_765529" data-name="Trazado 765529" d="M97.938,121.608c.086-.164.162-.333.235-.5l3.57,1.61c-.087.2-.178.405-.281.6Z" transform="translate(-50.226 -62.107)" fill="#322222"/>
    <path id="Trazado_765530" data-name="Trazado 765530" d="M96.325,124.648l.273-.484,3.425,1.9-.327.579Z" transform="translate(-49.399 -63.676)" fill="#322222"/>
    <path id="Trazado_765531" data-name="Trazado 765531" d="M94.455,127.545l.32-.454,3.255,2.178-.382.544Z" transform="translate(-48.44 -65.177)" fill="#322222"/>
    <path id="Trazado_765532" data-name="Trazado 765532" d="M92.361,130.277q.186-.207.352-.43l3.062,2.441q-.2.265-.421.514Z" transform="translate(-47.366 -66.59)" fill="#322222"/>
    <path id="Trazado_765533" data-name="Trazado 765533" d="M90.055,132.833l.383-.4,2.849,2.687-.458.481Z" transform="translate(-46.183 -67.915)" fill="#322222"/>
    <path id="Trazado_765534" data-name="Trazado 765534" d="M87.532,135.191l.42-.364,2.618,2.913-.5.435Z" transform="translate(-44.89 -69.144)" fill="#322222"/>
    <path id="Trazado_765535" data-name="Trazado 765535" d="M84.832,137.335c.15-.11.306-.209.449-.328l2.368,3.119c-.171.14-.357.261-.536.392Z" transform="translate(-43.505 -70.262)" fill="#322222"/>
    <path id="Trazado_765536" data-name="Trazado 765536" d="M81.972,139.254c.163-.089.314-.2.472-.3l2.1,3.3c-.188.117-.369.245-.563.352Z" transform="translate(-42.038 -71.263)" fill="#322222"/>
    <path id="Trazado_765537" data-name="Trazado 765537" d="M78.963,140.935l.495-.255,1.825,3.465-.59.3Z" transform="translate(-40.495 -72.146)" fill="#322222"/>
    <path id="Trazado_765538" data-name="Trazado 765538" d="M75.827,142.366l.517-.206,1.535,3.6-.617.247Z" transform="translate(-38.887 -72.905)" fill="#322222"/>
    <path id="Trazado_765539" data-name="Trazado 765539" d="M72.592,143.531c.179-.049.356-.1.531-.168l1.233,3.717c-.209.076-.42.141-.633.2Z" transform="translate(-37.228 -73.522)" fill="#322222"/>
    <path id="Trazado_765540" data-name="Trazado 765540" d="M69.278,144.433l.541-.13.922,3.807-.646.153Z" transform="translate(-35.528 -74.004)" fill="#322222"/>
    <path id="Trazado_765541" data-name="Trazado 765541" d="M65.9,145.053l.551-.076.6,3.87-.658.091Z" transform="translate(-33.797 -74.35)" fill="#322222"/>
    <path id="Trazado_765542" data-name="Trazado 765542" d="M62.493,145.393c.185-.01.371-.007.555-.029l.28,3.906c-.221.024-.442.023-.664.035Z" transform="translate(-32.049 -74.548)" fill="#322222"/>
    <path id="Trazado_765543" data-name="Trazado 765543" d="M58.909,145.439c.185.011.37.006.556.01l-.046,3.916c-.222,0-.443,0-.664-.013Z" transform="translate(-30.131 -74.586)" fill="#322222"/>
    <path id="Trazado_765544" data-name="Trazado 765544" d="M55.156,145.155l.552.061-.371,3.9-.661-.073Z" transform="translate(-28.04 -74.441)" fill="#322222"/>
    <path id="Trazado_765545" data-name="Trazado 765545" d="M51.443,144.593c.182.037.361.084.546.109l-.693,3.854c-.22-.031-.434-.086-.651-.13Z" transform="translate(-25.973 -74.153)" fill="#322222"/>
    <path id="Trazado_765546" data-name="Trazado 765546" d="M47.788,143.771l.538.144L47.32,147.7l-.641-.172Z" transform="translate(-23.939 -73.731)" fill="#322222"/>
    <path id="Trazado_765547" data-name="Trazado 765547" d="M44.228,142.655l.52.2-1.31,3.691-.621-.235Z" transform="translate(-21.958 -73.158)" fill="#322222"/>
    <path id="Trazado_765548" data-name="Trazado 765548" d="M40.774,141.294c.164.086.333.162.5.235l-1.609,3.57c-.2-.087-.405-.178-.6-.281Z" transform="translate(-20.035 -72.461)" fill="#322222"/>
    <path id="Trazado_765549" data-name="Trazado 765549" d="M37.453,139.681l.484.273-1.9,3.425-.579-.327Z" transform="translate(-18.185 -71.633)" fill="#322222"/>
    <path id="Trazado_765550" data-name="Trazado 765550" d="M34.3,137.81l.454.321-2.178,3.255L32.033,141Z" transform="translate(-16.428 -70.674)" fill="#322222"/>
    <path id="Trazado_765551" data-name="Trazado 765551" d="M31.323,135.717q.208.186.43.352l-2.441,3.062q-.265-.2-.513-.421Z" transform="translate(-14.769 -69.601)" fill="#322222"/>
    <path id="Trazado_765552" data-name="Trazado 765552" d="M28.542,133.411l.4.383-2.687,2.849-.481-.458Z" transform="translate(-13.219 -68.418)" fill="#322222"/>
    <path id="Trazado_765553" data-name="Trazado 765553" d="M25.995,130.888l.364.42-2.913,2.617-.435-.5Z" transform="translate(-11.801 -67.124)" fill="#322222"/>
    <path id="Trazado_765554" data-name="Trazado 765554" d="M23.679,128.188c.11.15.209.306.328.449l-3.119,2.368c-.14-.171-.261-.357-.392-.536Z" transform="translate(-10.511 -65.739)" fill="#322222"/>
    <path id="Trazado_765555" data-name="Trazado 765555" d="M21.608,125.327c.089.163.2.314.3.472l-3.3,2.1c-.117-.188-.245-.369-.352-.563Z" transform="translate(-9.358 -64.272)" fill="#322222"/>
    <path id="Trazado_765556" data-name="Trazado 765556" d="M19.808,122.318l.255.495L16.6,124.638l-.3-.59Z" transform="translate(-8.356 -62.729)" fill="#322222"/>
    <path id="Trazado_765557" data-name="Trazado 765557" d="M18.291,119.183l.206.517-3.6,1.535-.247-.617Z" transform="translate(-7.512 -61.121)" fill="#322222"/>
    <path id="Trazado_765558" data-name="Trazado 765558" d="M17.056,115.948c.049.179.1.356.168.531l-3.718,1.233c-.075-.208-.14-.419-.2-.633Z" transform="translate(-6.824 -59.462)" fill="#322222"/>
    <path id="Trazado_765559" data-name="Trazado 765559" d="M16.109,112.634l.129.541-3.806.922-.153-.646Z" transform="translate(-6.297 -57.763)" fill="#322222"/>
    <path id="Trazado_765560" data-name="Trazado 765560" d="M15.487,109.258l.076.55-3.87.6-.091-.658Z" transform="translate(-5.95 -56.031)" fill="#322222"/>
    <path id="Trazado_765561" data-name="Trazado 765561" d="M15.168,105.849c.01.185.007.371.029.555l-3.906.28c-.024-.221-.023-.442-.035-.664Z" transform="translate(-5.772 -54.283)" fill="#322222"/>
    <path id="Trazado_765562" data-name="Trazado 765562" d="M15.138,102.264c-.011.185-.006.37-.01.556l-3.916-.046c0-.222,0-.443.013-.664Z" transform="translate(-5.75 -52.365)" fill="#322222"/>
    <path id="Trazado_765563" data-name="Trazado 765563" d="M15.387,98.512l-.061.552-3.9-.371.073-.661Z" transform="translate(-5.86 -50.275)" fill="#322222"/>
    <path id="Trazado_765564" data-name="Trazado 765564" d="M15.945,94.8c-.037.182-.084.361-.109.546l-3.854-.693c.031-.22.086-.434.13-.651Z" transform="translate(-6.144 -48.207)" fill="#322222"/>
    <path id="Trazado_765565" data-name="Trazado 765565" d="M16.8,91.144l-.143.538-3.785-1.006.172-.641Z" transform="translate(-6.603 -46.173)" fill="#322222"/>
    <path id="Trazado_765566" data-name="Trazado 765566" d="M17.962,87.583l-.2.52-3.691-1.31.235-.621Z" transform="translate(-7.217 -44.192)" fill="#322222"/>
    <path id="Trazado_765567" data-name="Trazado 765567" d="M19.411,84.129c-.086.164-.163.333-.235.5l-3.57-1.61c.087-.2.178-.405.28-.6Z" transform="translate(-8.003 -42.269)" fill="#322222"/>
    <path id="Trazado_765568" data-name="Trazado 765568" d="M21.137,80.809l-.273.484-3.425-1.9.327-.579Z" transform="translate(-8.944 -40.419)" fill="#322222"/>
    <path id="Trazado_765569" data-name="Trazado 765569" d="M23.136,77.656l-.32.455-3.255-2.178.382-.544Z" transform="translate(-10.031 -38.662)" fill="#322222"/>
    <path id="Trazado_765570" data-name="Trazado 765570" d="M25.4,74.679q-.186.208-.352.43l-3.062-2.441q.2-.265.421-.513Z" transform="translate(-11.274 -37.003)" fill="#322222"/>
    <path id="Trazado_765571" data-name="Trazado 765571" d="M27.9,71.9l-.383.4-2.849-2.687.458-.481Z" transform="translate(-12.649 -35.454)" fill="#322222"/>
    <path id="Trazado_765572" data-name="Trazado 765572" d="M30.625,69.35l-.42.364L27.587,66.8l.5-.435Z" transform="translate(-14.148 -34.035)" fill="#322222"/>
    <path id="Trazado_765573" data-name="Trazado 765573" d="M33.556,67.034c-.15.11-.306.209-.449.328l-2.368-3.119c.171-.14.357-.261.536-.392Z" transform="translate(-15.764 -32.745)" fill="#322222"/>
    <path id="Trazado_765574" data-name="Trazado 765574" d="M36.671,64.964c-.163.089-.314.2-.472.3l-2.1-3.3c.188-.117.369-.245.563-.352Z" transform="translate(-17.486 -31.593)" fill="#322222"/>
    <path id="Trazado_765575" data-name="Trazado 765575" d="M39.949,63.164l-.495.255-1.825-3.465.591-.3Z" transform="translate(-19.297 -30.591)" fill="#322222"/>
    <path id="Trazado_765576" data-name="Trazado 765576" d="M43.367,61.647l-.517.206-1.535-3.6L41.932,58Z" transform="translate(-21.188 -29.746)" fill="#322222"/>
    <path id="Trazado_765577" data-name="Trazado 765577" d="M46.906,60.412c-.179.049-.356.1-.531.168l-1.233-3.718c.209-.075.42-.14.633-.2Z" transform="translate(-23.15 -29.058)" fill="#322222"/>
    <path id="Trazado_765578" data-name="Trazado 765578" d="M50.536,59.465,50,59.594l-.922-3.806.646-.153Z" transform="translate(-25.167 -28.531)" fill="#322222"/>
    <path id="Trazado_765579" data-name="Trazado 765579" d="M54.237,58.843l-.55.076-.6-3.87.658-.091Z" transform="translate(-27.223 -28.185)" fill="#322222"/>
    <path id="Trazado_765580" data-name="Trazado 765580" d="M57.982,58.524c-.185.01-.371.007-.555.029l-.28-3.906c.221-.024.442-.023.664-.035Z" transform="translate(-29.307 -28.007)" fill="#322222"/>
    <path id="Trazado_765581" data-name="Trazado 765581" d="M61.7,58.494c-.185-.011-.37-.006-.556-.01l.046-3.916c.222,0,.443,0,.664.013Z" transform="translate(-31.356 -27.984)" fill="#322222"/>
    <path id="Trazado_765582" data-name="Trazado 765582" d="M65.112,58.742l-.552-.061.371-3.9.661.073Z" transform="translate(-33.108 -28.094)" fill="#322222"/>
    <path id="Trazado_765583" data-name="Trazado 765583" d="M68.5,59.3c-.182-.037-.361-.084-.546-.109l.693-3.854c.22.031.434.086.651.13Z" transform="translate(-34.848 -28.379)" fill="#322222"/>
    <path id="Trazado_765584" data-name="Trazado 765584" d="M71.833,60.16l-.538-.144L72.3,56.231l.641.172Z" transform="translate(-36.563 -28.837)" fill="#322222"/>
    <path id="Trazado_765585" data-name="Trazado 765585" d="M75.094,61.318l-.52-.2,1.31-3.691.621.235Z" transform="translate(-38.244 -29.452)" fill="#322222"/>
    <path id="Trazado_765586" data-name="Trazado 765586" d="M78.253,62.766c-.164-.086-.333-.163-.5-.235l1.61-3.57c.2.087.4.178.6.281Z" transform="translate(-39.873 -30.237)" fill="#322222"/>
    <path id="Trazado_765587" data-name="Trazado 765587" d="M81.292,64.493l-.484-.273,1.9-3.425.579.327Z" transform="translate(-41.441 -31.178)" fill="#322222"/>
    <path id="Trazado_765588" data-name="Trazado 765588" d="M84.189,66.492l-.454-.32,2.178-3.255.544.382Z" transform="translate(-42.942 -32.266)" fill="#322222"/>
    <path id="Trazado_765589" data-name="Trazado 765589" d="M86.921,68.755q-.208-.186-.43-.352l2.441-3.062q.265.2.513.421Z" transform="translate(-44.356 -33.509)" fill="#322222"/>
    <path id="Trazado_765590" data-name="Trazado 765590" d="M89.478,71.253l-.4-.383,2.687-2.849.481.458Z" transform="translate(-45.681 -34.884)" fill="#322222"/>
    <path id="Trazado_765591" data-name="Trazado 765591" d="M91.835,73.98l-.364-.42,2.913-2.617.435.5Z" transform="translate(-46.91 -36.382)" fill="#322222"/>
    <path id="Trazado_765592" data-name="Trazado 765592" d="M93.98,76.912c-.11-.15-.209-.306-.328-.449L96.771,74.1c.14.171.261.357.392.536Z" transform="translate(-48.028 -37.999)" fill="#322222"/>
    <path id="Trazado_765593" data-name="Trazado 765593" d="M95.9,80.027c-.089-.163-.2-.314-.3-.472l3.3-2.1c.117.188.245.369.352.563Z" transform="translate(-49.029 -39.72)" fill="#322222"/>
    <path id="Trazado_765594" data-name="Trazado 765594" d="M97.58,83.3l-.255-.495,3.465-1.825.3.59Z" transform="translate(-49.912 -41.532)" fill="#322222"/>
    <path id="Trazado_765595" data-name="Trazado 765595" d="M99.011,86.723l-.206-.517,3.6-1.535.247.617Z" transform="translate(-50.671 -43.422)" fill="#322222"/>
    <path id="Trazado_765596" data-name="Trazado 765596" d="M100.175,90.262c-.05-.179-.1-.356-.168-.531l3.718-1.233c.075.208.14.419.2.633Z" transform="translate(-51.287 -45.386)" fill="#322222"/>
    <path id="Trazado_765597" data-name="Trazado 765597" d="M101.077,93.892l-.13-.541,3.807-.922.153.646Z" transform="translate(-51.77 -47.401)" fill="#322222"/>
    <path id="Trazado_765598" data-name="Trazado 765598" d="M101.7,97.593l-.076-.551,3.87-.6.091.658Z" transform="translate(-52.115 -49.457)" fill="#322222"/>
    <path id="Trazado_765599" data-name="Trazado 765599" d="M102.037,101.338c-.01-.185-.007-.371-.029-.555l3.906-.28c.024.221.023.442.035.664Z" transform="translate(-52.313 -51.542)" fill="#322222"/>
    <path id="Trazado_765600" data-name="Trazado 765600" d="M102.083,105.054c.011-.185.006-.37.01-.556l3.916.046c0,.222,0,.443-.013.664Z" transform="translate(-52.352 -53.59)" fill="#322222"/>
    <path id="Trazado_765601" data-name="Trazado 765601" d="M101.8,108.468l.061-.552,3.9.371-.073.661Z" transform="translate(-52.206 -55.343)" fill="#322222"/>
    <path id="Trazado_765602" data-name="Trazado 765602" d="M101.237,111.853c.037-.182.084-.361.109-.546L105.2,112c-.031.22-.086.434-.13.651Z" transform="translate(-51.918 -57.082)" fill="#322222"/>
    <path id="Trazado_765603" data-name="Trazado 765603" d="M100.415,115.189l.144-.538,3.785,1.006-.172.641Z" transform="translate(-51.496 -58.797)" fill="#322222"/>
    <path id="Trazado_765604" data-name="Trazado 765604" d="M32.3,102.387a27.107,27.107,0,1,1,12.9-3.309,27.041,27.041,0,0,1-12.9,3.309M6.678,67.8,7,67.894A26.351,26.351,0,0,0,44.879,98.5,26.35,26.35,0,1,0,7,67.894Z" transform="translate(-2.691 -24.78)" fill="#322222"/>
    <path id="Trazado_765605" data-name="Trazado 765605" d="M30.976,102.331A28.314,28.314,0,1,1,58.087,82.02a28.349,28.349,0,0,1-27.111,20.31m-.025-55.965A27.651,27.651,0,1,0,38.76,47.5a27.693,27.693,0,0,0-7.809-1.132" transform="translate(-1.348 -23.438)" fill="#322222"/>
    <path id="Trazado_765606" data-name="Trazado 765606" d="M32.3,102.388a27.108,27.108,0,1,1,12.9-3.309,27.059,27.059,0,0,1-12.9,3.309m-.027-53.4a26.39,26.39,0,1,0,7.471,1.086,26.264,26.264,0,0,0-7.471-1.086" transform="translate(-2.691 -24.78)" fill="#322222"/>
    <path id="Trazado_765607" data-name="Trazado 765607" d="M37.654,102.817a.331.331,0,0,1-.328-.376l1.457-10.728-5.758,5.193a.331.331,0,0,1-.509-.411l5.739-9.98-11.5-.6a.331.331,0,0,1-.069-.65l11.116-3-7.71-8.55a.331.331,0,0,1,.411-.509l9.979,5.743.6-11.5a.331.331,0,0,1,.651-.069l2.019,7.483,4.6-9.8a.331.331,0,0,1,.628.186L47.52,75.986,53.277,70.8a.331.331,0,0,1,.509.411l-5.739,9.98,11.494.592a.331.331,0,0,1,.069.65l-11.113,3L56.2,93.975a.331.331,0,0,1-.411.509l-9.976-5.738-.6,11.5a.331.331,0,0,1-.651.069l-2.017-7.487-4.6,9.8a.331.331,0,0,1-.3.191M39.233,90.53a.329.329,0,0,1,.154.038.333.333,0,0,1,.174.338l-1.288,9.479,4.064-8.66a.331.331,0,0,1,.62.055l1.71,6.346.516-9.954a.331.331,0,0,1,.5-.269l8.637,4.968-6.673-7.4a.331.331,0,0,1,.16-.541l9.62-2.595-9.949-.512a.331.331,0,0,1-.27-.5l4.97-8.641-4.881,4.4a.331.331,0,0,1-.55-.29l1.287-9.476-4.062,8.658a.331.331,0,0,1-.62-.055l-1.712-6.344-.516,9.955a.332.332,0,0,1-.5.27l-8.637-4.971,6.674,7.4a.331.331,0,0,1-.16.542l-9.624,2.595,9.953.516a.331.331,0,0,1,.27.5l-4.969,8.64,4.881-4.4a.333.333,0,0,1,.222-.085" transform="translate(-13.561 -33.276)" fill="#322222"/>
    <path id="Trazado_765608" data-name="Trazado 765608" d="M75.671,115.6a.33.33,0,0,1-.165-.044l-10.444-6.007a.336.336,0,0,1-.119-.116.406.406,0,0,1-.051-.283.362.362,0,0,1,.147-.23,4.521,4.521,0,0,0,2.19-2.711.334.334,0,0,1,.16-.2.327.327,0,0,1,.253-.026.566.566,0,0,1,.208.113l8.069,8.949a.331.331,0,0,1-.246.553m-9.854-6.381,8.212,4.723L67.686,106.9a5.165,5.165,0,0,1-1.868,2.314" transform="translate(-33.275 -54.344)" fill="#322222"/>
    <path id="Trazado_765609" data-name="Trazado 765609" d="M75.3,20.536a.331.331,0,0,1-.267-.527,3.6,3.6,0,0,0,.55-1.118,3.649,3.649,0,0,0,.15-1.041.332.332,0,0,1,.256-.322,7.435,7.435,0,1,0-7.044-2.082.332.332,0,0,1,.04.41,3.643,3.643,0,0,0-.441.959,3.6,3.6,0,0,0-.144,1.233.331.331,0,0,1-.538.278,10.288,10.288,0,1,1,7.473,2.209l-.034,0m1.087-2.425a4.351,4.351,0,0,1-.444,1.67,9.631,9.631,0,1,0-8.186-2.419,4.277,4.277,0,0,1,.15-.735,4.328,4.328,0,0,1,.385-.909,8.095,8.095,0,1,1,8.1,2.392m7.461-5h0Z" transform="translate(-32.82 0)" fill="#322222"/>
    <path id="Trazado_765610" data-name="Trazado 765610" d="M61.587,124.686a.331.331,0,0,1-.32-.245l-2.253-8.36a.332.332,0,0,1,.02-.227l1.518-3.233a.334.334,0,0,1,.23-.183,4.518,4.518,0,0,0,1.237-.459.331.331,0,0,1,.444.119.554.554,0,0,1,.077.239l-.624,12.036a.33.33,0,0,1-.3.312l-.036,0m-1.9-8.66,1.679,6.229.491-9.462a5.356,5.356,0,0,1-.771.255Z" transform="translate(-30.259 -57.405)" fill="#322222"/>
    <path id="Trazado_765611" data-name="Trazado 765611" d="M55.256,103.543a5.217,5.217,0,0,1-5.007-6.692,5.239,5.239,0,0,1,3.926-3.628,5.231,5.231,0,0,1,4.745,1.4,5.226,5.226,0,0,1-2.6,8.811,5.246,5.246,0,0,1-1.067.11m-.014-9.768a4.552,4.552,0,0,0-3.989,6.729,4.555,4.555,0,0,0,4.932,2.28,4.555,4.555,0,0,0,3.06-6.633v0a4.447,4.447,0,0,0-.789-1.056,4.568,4.568,0,0,0-3.212-1.318" transform="translate(-25.659 -47.752)" fill="#322222"/>
    <path id="Trazado_765612" data-name="Trazado 765612" d="M56.685,103.612a3.85,3.85,0,1,1,3.7-2.762,3.849,3.849,0,0,1-3.7,2.762m0-7.038a3.2,3.2,0,1,0,.9.131,3.2,3.2,0,0,0-.9-.131m3.38,4.182h0Z" transform="translate(-27.097 -49.187)" fill="#322222"/>
    <path id="Trazado_765613" data-name="Trazado 765613" d="M77.019,44.507a.326.326,0,0,1-.135-.029,29.126,29.126,0,0,0-7.607-2.244A.331.331,0,0,1,69,41.863l.016-.117.584-1.995a.332.332,0,0,1,.412-.224l7.728,2.28a.332.332,0,0,1,.224.412l-.643,2.1a.331.331,0,0,1-.3.189m-7.287-2.871a29.72,29.72,0,0,1,7.1,2.094l.4-1.38-7.094-2.093Z" transform="translate(-35.383 -20.264)" fill="#322222"/>
    <path id="Trazado_765614" data-name="Trazado 765614" d="M77.691,36.041a.324.324,0,0,1-.094-.014l-5.1-1.5a.33.33,0,0,1-.187-.142,4.324,4.324,0,0,1-.483-3.518,4.333,4.333,0,0,1,8.311,2.451,4.288,4.288,0,0,1-.651,1.322,4.344,4.344,0,0,1-1.659,1.371.327.327,0,0,1-.142.032m-4.879-2.116,4.849,1.43a3.667,3.667,0,0,0,1.3-1.108,3.6,3.6,0,0,0,.55-1.119,3.666,3.666,0,0,0,.15-1.041h0a3.67,3.67,0,0,0-7.19-1.035,3.6,3.6,0,0,0-.143,1.233,3.639,3.639,0,0,0,.489,1.64" transform="translate(-36.747 -14.237)" fill="#322222"/>
    <path id="Trazado_765615" data-name="Trazado 765615" d="M69.64,102.71a.326.326,0,0,1-.095-.014.386.386,0,0,1-.279-.428,4.508,4.508,0,0,0-.369-3.462.332.332,0,0,1,.146-.457.667.667,0,0,1,.215-.058l12.033.62a.331.331,0,0,1,.069.65L69.726,102.7a.329.329,0,0,1-.087.012m.075-3.733a5.147,5.147,0,0,1,.313,2.954l9.146-2.467Z" transform="translate(-35.312 -50.407)" fill="#322222"/>
    <path id="Trazado_765616" data-name="Trazado 765616" d="M68.312,87.959A.342.342,0,0,1,68,87.805a4.459,4.459,0,0,0-.789-1.057.333.333,0,0,1-.1-.28l.481-3.544a.33.33,0,0,1,.107-.2l6.429-5.795a.331.331,0,0,1,.509.411L68.636,87.787a.33.33,0,0,1-.143.133.418.418,0,0,1-.181.039M67.8,86.4a5.125,5.125,0,0,1,.51.633l4.724-8.214L68.24,83.134Z" transform="translate(-34.42 -39.408)" fill="#322222"/>
    <path id="Trazado_765617" data-name="Trazado 765617" d="M56.684,103.612a3.85,3.85,0,1,1,3.7-2.762,3.849,3.849,0,0,1-3.7,2.762m0-7.038a3.2,3.2,0,1,0,.9.132,3.167,3.167,0,0,0-.9-.132" transform="translate(-27.097 -49.187)" fill="#322222"/>
    <path id="Trazado_765618" data-name="Trazado 765618" d="M65.282,80.713a.332.332,0,0,1-.233-.1,4.589,4.589,0,0,0-1.918-1.132.331.331,0,0,1-.224-.411l4.116-13.95a.331.331,0,0,1,.646.138L65.61,80.426a.331.331,0,0,1-.328.287m-1.649-1.759a5.245,5.245,0,0,1,1.4.773l.4-2.934.992-7.307Z" transform="translate(-32.254 -33.276)" fill="#322222"/>
    <path id="Trazado_765619" data-name="Trazado 765619" d="M49.1,127.364a.343.343,0,0,1-.118-.021.332.332,0,0,1-.2-.4L52.9,112.987a.331.331,0,0,1,.411-.224,4.57,4.57,0,0,0,2.224.092.332.332,0,0,1,.368.465l-6.5,13.853a.331.331,0,0,1-.3.191m4.343-13.881-2.793,9.467,4.391-9.355a5.309,5.309,0,0,1-1.6-.113" transform="translate(-25.013 -57.822)" fill="#322222"/>
    <path id="Trazado_765620" data-name="Trazado 765620" d="M60.713,79.5a.347.347,0,0,1-.094-.013,4.57,4.57,0,0,0-2.224-.091.331.331,0,0,1-.368-.465l6.5-13.853a.331.331,0,0,1,.618.235L61.03,79.262a.331.331,0,0,1-.318.237m-1.388-.862a5.24,5.24,0,0,1,1.161.13L63.279,69.3l-4.391,9.355c.145-.012.291-.018.437-.018" transform="translate(-29.742 -33.276)" fill="#322222"/>
    <path id="Trazado_765621" data-name="Trazado 765621" d="M49.105,126.087a.375.375,0,0,1-.069-.007.332.332,0,0,1-.259-.369l2.058-15.164a.333.333,0,0,1,.222-.269.337.337,0,0,1,.34.078,4.584,4.584,0,0,0,1.918,1.131.328.328,0,0,1,.2.159.332.332,0,0,1,.027.252L49.423,125.85a.331.331,0,0,1-.318.237m2.3-14.842-1.39,10.24,2.793-9.466a5.268,5.268,0,0,1-1.4-.774" transform="translate(-25.013 -56.546)" fill="#322222"/>
    <path id="Trazado_765622" data-name="Trazado 765622" d="M30.976,102.331a28.314,28.314,0,1,1,27.111-20.31,28.349,28.349,0,0,1-27.111,20.31M4.425,66.191A27.643,27.643,0,1,0,38.76,47.5,27.675,27.675,0,0,0,4.425,66.191" transform="translate(-1.349 -23.439)" fill="#322222"/>
    <path id="Trazado_765623" data-name="Trazado 765623" d="M29.576,102.254a29.589,29.589,0,1,1,4.417-58.848,29.585,29.585,0,0,1,23.975,37.63,29.642,29.642,0,0,1-28.392,21.218m.038-58.516A28.924,28.924,0,1,0,41.5,46.3a29.164,29.164,0,0,0-7.607-2.244,28.69,28.69,0,0,0-4.28-.322" transform="translate(0 -22.091)" fill="#322222"/>
    <path id="Trazado_765624" data-name="Trazado 765624" d="M55.569,82.273a.332.332,0,0,1-.284-.159.557.557,0,0,1-.078-.24l.624-12.036a.331.331,0,0,1,.651-.069l2.255,8.356a.332.332,0,0,1-.02.227L57.2,81.59a.332.332,0,0,1-.231.183,4.45,4.45,0,0,0-1.236.459.327.327,0,0,1-.16.041m1.328-.824h0Zm-.512-9.495-.491,9.463a5.143,5.143,0,0,1,.771-.255l1.4-2.981Z" transform="translate(-28.312 -35.654)" fill="#322222"/>
    <path id="Trazado_765625" data-name="Trazado 765625" d="M39.148,119.087a.332.332,0,0,1-.287-.5l6.008-10.447a.333.333,0,0,1,.14-.132.39.39,0,0,1,.492.112,4.561,4.561,0,0,0,.79,1.059.331.331,0,0,1,.095.28L45.906,113a.332.332,0,0,1-.106.2L39.37,119a.329.329,0,0,1-.222.085M45.2,108.9l-4.724,8.215,4.791-4.321.441-3.26a5.109,5.109,0,0,1-.509-.634" transform="translate(-19.907 -55.371)" fill="#322222"/>
    <path id="Trazado_765626" data-name="Trazado 765626" d="M38.8,104.686h-.007l-12.035-.625a.331.331,0,0,1-.069-.65l11.638-3.137a.321.321,0,0,1,.181,0,.387.387,0,0,1,.279.428,4.524,4.524,0,0,0,.368,3.466.331.331,0,0,1,.025.259.334.334,0,0,1-.169.2.638.638,0,0,1-.211.06m-9.925-1.178,9.464.491a5.166,5.166,0,0,1-.314-2.957Z" transform="translate(-13.561 -51.418)" fill="#322222"/>
    <path id="Trazado_765627" data-name="Trazado 765627" d="M42.223,91.519a.332.332,0,0,1-.1-.014.562.562,0,0,1-.208-.113l-8.072-8.951a.331.331,0,0,1,.411-.509l10.447,6.012a.333.333,0,0,1,.118.115.4.4,0,0,1,.052.284.365.365,0,0,1-.147.23,4.506,4.506,0,0,0-2.189,2.708.331.331,0,0,1-.318.237m-6.485-7.97,6.345,7.036a5.145,5.145,0,0,1,1.866-2.31Z" transform="translate(-17.315 -41.996)" fill="#322222"/>
  </g>
</svg>
