<svg xmlns="http://www.w3.org/2000/svg" xmlns:xlink="http://www.w3.org/1999/xlink" width="94.255" height="92.771" viewBox="0 0 94.255 92.771">
  <defs>
    <clipPath id="clip-path">
      <rect id="Rectángulo_378017" data-name="Rectángulo 378017" width="70.691" height="66.886" transform="translate(0 0)" fill="none"/>
    </clipPath>
  </defs>
  <g id="Grupo_1106509" data-name="Grupo 1106509" transform="matrix(0.875, -0.485, 0.485, 0.875, 0, 34.271)">
    <g id="Grupo_1073166" data-name="Grupo 1073166" transform="translate(0 0)" clip-path="url(#clip-path)">
      <path id="Trazado_765628" data-name="Trazado 765628" d="M26.829,6.014,17.875,40.73a1.553,1.553,0,0,1-1.891,1.116l-.251-.065L0,37.723A20.209,20.209,0,0,0,19.221,22.567,20.21,20.21,0,0,0,9.729,0L25.713,4.122c.045.012.09.028.131.038a1.325,1.325,0,0,1,.127.05c0,.005.011.007.015.008a1.553,1.553,0,0,1,.843,1.795" transform="translate(43.414 22.845)" fill="#668243"/>
      <path id="Trazado_765629" data-name="Trazado 765629" d="M59.038,16.188l-.153-.035c-.041-.011-.085-.026-.13-.038L42.771,11.993A20.29,20.29,0,0,0,32.357,9.307L20.312,6.2a1.556,1.556,0,0,0-1.2.184L15.886,8.38a1.55,1.55,0,0,1-1.2.185L0,4.778l1.333-3A3.009,3.009,0,0,1,4.827.1L6.174.443v0l8.454,2.18v0l2.892.746v0l5.213,1.344v0l20.975,5.41.788,1.343,13.864,3.576a.939.939,0,0,1,.677,1.147" transform="translate(10.372 10.852)" fill="#322222"/>
      <path id="Trazado_765630" data-name="Trazado 765630" d="M41.926,10.793,57.66,14.85a2.477,2.477,0,0,1-3.014,1.782L1.859,3.018A2.481,2.481,0,0,1,.079,0L14.76,3.786,31.513,8.107a20.041,20.041,0,0,0,5.023,2.045,20.076,20.076,0,0,0,5.39.641" transform="translate(1.486 49.776)" fill="#322222"/>
      <path id="Trazado_765631" data-name="Trazado 765631" d="M30.285,2.689A20.29,20.29,0,1,1,25.257.643a20.211,20.211,0,0,1,5.027,2.046m5.582,21.558A16.166,16.166,0,1,0,16.174,35.861,16.166,16.166,0,0,0,35.866,24.247" transform="translate(22.858 20.156)" fill="#fffaf7"/>
      <path id="Trazado_765632" data-name="Trazado 765632" d="M20.2.516A16.165,16.165,0,1,1,.516,12.135,16.167,16.167,0,0,1,20.2.516M30.258,19.8A14.549,14.549,0,1,0,12.539,30.258,14.545,14.545,0,0,0,30.258,19.8" transform="translate(26.901 24.194)" fill="#fde9de"/>
      <path id="Trazado_765633" data-name="Trazado 765633" d="M18.187.465A14.547,14.547,0,1,1,.464,10.917,14.546,14.546,0,0,1,18.187.465M23,16.73A8.729,8.729,0,1,0,12.374,23,8.73,8.73,0,0,0,23,16.73" transform="translate(28.518 25.816)" fill="#ff964c"/>
      <path id="Trazado_765634" data-name="Trazado 765634" d="M10.913.279A8.731,8.731,0,1,1,.279,6.552,8.73,8.73,0,0,1,10.913.279" transform="translate(34.34 31.634)" fill="#fffaf7"/>
      <path id="Trazado_765635" data-name="Trazado 765635" d="M14.437.049,26.481,3.155a20.207,20.207,0,0,0-9.729,37.723L0,36.558,8.805,2.417v0a1.552,1.552,0,0,0,1.2-.184l3.222-2a1.556,1.556,0,0,1,1.2-.184" transform="translate(16.247 17.005)" fill="#668243"/>
      <rect id="Rectángulo_378015" data-name="Rectángulo 378015" width="0.004" height="5.384" transform="translate(27.909 14.158) rotate(-74.042)" fill="#fde9de"/>
      <rect id="Rectángulo_378016" data-name="Rectángulo 378016" width="1.374" height="5.384" transform="translate(27.892 14.221) rotate(-75.53)" fill="#ff964c"/>
      <path id="Trazado_765636" data-name="Trazado 765636" d="M24.652,3.84,15.847,37.981,1.165,34.195A1.554,1.554,0,0,1,.05,32.3L8.08,1.166A1.554,1.554,0,0,1,9.971.05L24.653,3.836Z" transform="translate(0.4 15.581)" fill="#668243"/>
      <path id="Trazado_765637" data-name="Trazado 765637" d="M8.455,2.18v0L0,0V0l8.45,2.179Z" transform="translate(16.544 11.295)" fill="#fde9de"/>
      <path id="Trazado_765638" data-name="Trazado 765638" d="M8.886,2.18,8.454,3.852h0L0,1.672.431,0Z" transform="translate(16.545 9.623)" fill="#ff964c"/>
      <path id="Trazado_765639" data-name="Trazado 765639" d="M16.774,42.694a1.944,1.944,0,0,1-.491-.063L.3,38.509a.4.4,0,0,1,.093-.785A19.848,19.848,0,0,0,19.234,22.866,19.853,19.853,0,0,0,9.93.746a.4.4,0,0,1,.3-.733L26.212,4.135l.088.026a2.06,2.06,0,0,1,.242.089l.023.014a1.953,1.953,0,0,1,1.048,2.25L18.661,41.228a1.955,1.955,0,0,1-1.887,1.465M2.831,38.338l13.651,3.52a1.155,1.155,0,0,0,1.405-.829L26.842,6.313a1.156,1.156,0,0,0-.626-1.334h0l-.028-.014c-.024-.011-.052-.021-.079-.03V4.912a.424.424,0,0,1-.077-.086l-.021.083L12.362,1.388a20.669,20.669,0,0,1,7.646,21.678A20.667,20.667,0,0,1,2.831,38.338m24.4-31.925h0ZM26.113,4.522l-.071.276.07-.041Z" transform="translate(43.014 22.446)" fill="#322222"/>
      <path id="Trazado_765640" data-name="Trazado 765640" d="M59.437,16.987a.394.394,0,0,1-.09-.01l-.153-.035-.089-.026L43.071,12.779a.382.382,0,0,1-.1-.042,19.918,19.918,0,0,0-10.208-2.632.542.542,0,0,1-.107-.012L20.612,6.987a1.158,1.158,0,0,0-.9.137L16.5,9.119a1.964,1.964,0,0,1-1.515.232L.3,5.564a.4.4,0,0,1-.265-.549L1.368,2.021A3.4,3.4,0,0,1,5.326.108L6.674.456a.409.409,0,0,1,.053.018l8.345,2.153a.279.279,0,0,1,.055.009l2.893.746a.316.316,0,0,1,.055.019l5.1,1.315a.38.38,0,0,1,.056.011l20.975,5.409a.4.4,0,0,1,.245.185l.7,1.2,13.7,3.535a1.339,1.339,0,0,1,.964,1.634.4.4,0,0,1-.387.3M43.322,12.02l15.66,4.038a.541.541,0,0,0-.322-.231L44.8,12.251a.4.4,0,0,1-.245-.184l-.7-1.2L23.087,5.514a.485.485,0,0,1-.056-.01L17.819,4.159a.375.375,0,0,1-.055-.019l-2.783-.718a.343.343,0,0,1-.055-.009L6.473,1.233a.38.38,0,0,1-.053-.018L5.127.881A2.6,2.6,0,0,0,2.1,2.346L.956,4.908,15.181,8.577a1.142,1.142,0,0,0,.9-.137l3.221-2a1.969,1.969,0,0,1,1.515-.232L32.8,9.306A20.689,20.689,0,0,1,43.322,12.02" transform="translate(9.972 10.453)" fill="#322222"/>
      <path id="Trazado_765641" data-name="Trazado 765641" d="M55.667,17.51a2.877,2.877,0,0,1-.721-.092L2.159,3.8A2.882,2.882,0,0,1,.091.3.4.4,0,0,1,.275.056a.39.39,0,0,1,.3-.043L32.012,8.12a.382.382,0,0,1,.1.042,19.706,19.706,0,0,0,4.924,2,19.469,19.469,0,0,0,5.283.628.4.4,0,0,1,.107.013l15.733,4.057a.4.4,0,0,1,.287.487,2.882,2.882,0,0,1-2.779,2.16M.8.9A2.082,2.082,0,0,0,2.358,3.031L55.146,16.645a2.079,2.079,0,0,0,2.39-1.117L42.278,11.593a20.617,20.617,0,0,1-5.442-.655A20.454,20.454,0,0,1,31.76,8.879Z" transform="translate(1.087 49.376)" fill="#322222"/>
      <path id="Trazado_765642" data-name="Trazado 765642" d="M20.588,41.214a20.6,20.6,0,1,1,.366,0c-.122,0-.245,0-.366,0M20.625.8c-.118,0-.235,0-.354,0a19.805,19.805,0,0,0-4.613,38.983,19.488,19.488,0,0,0,5.283.628A19.809,19.809,0,0,0,30.479,3.435h0A19.911,19.911,0,0,0,20.625.8" transform="translate(22.465 19.757)" fill="#322222"/>
      <path id="Trazado_765643" data-name="Trazado 765643" d="M16.569,33.132A16.566,16.566,0,1,1,32.613,20.7,16.552,16.552,0,0,1,16.569,33.132M16.574.8a15.774,15.774,0,1,0,3.934.5A15.8,15.8,0,0,0,16.574.8M32.226,20.6h0Z" transform="translate(26.498 23.798)" fill="#322222"/>
      <path id="Trazado_765644" data-name="Trazado 765644" d="M16.569,33.133A16.566,16.566,0,1,1,32.612,20.705,16.56,16.56,0,0,1,16.569,33.133M16.575.8a15.775,15.775,0,1,0,3.933.5A15.8,15.8,0,0,0,16.575.8" transform="translate(26.498 23.798)" fill="#322222"/>
      <path id="Trazado_765645" data-name="Trazado 765645" d="M14.954,29.9A14.948,14.948,0,1,1,29.43,18.682,14.938,14.938,0,0,1,14.954,29.9m0-29.1a14.169,14.169,0,1,0,3.533.451A14.173,14.173,0,0,0,14.956.8" transform="translate(28.115 25.417)" fill="#322222"/>
      <path id="Trazado_765646" data-name="Trazado 765646" d="M14.954,29.9A14.948,14.948,0,1,1,29.43,18.682,14.938,14.938,0,0,1,14.954,29.9m0-29.1a14.169,14.169,0,1,0,3.533.451A14.173,14.173,0,0,0,14.956.8" transform="translate(28.115 25.417)" fill="#322222"/>
      <path id="Trazado_765647" data-name="Trazado 765647" d="M9.147,18.266a9.162,9.162,0,0,1-2.293-.292A9.131,9.131,0,0,1,.293,6.853a9.128,9.128,0,1,1,17.678,4.56,9.143,9.143,0,0,1-8.824,6.854M9.12.8A8.335,8.335,0,0,0,1.958,13.366a8.33,8.33,0,1,0,9.257-12.3A8.372,8.372,0,0,0,9.12.8" transform="translate(33.939 31.233)" fill="#322222"/>
      <path id="Trazado_765648" data-name="Trazado 765648" d="M9.147,18.266a9.162,9.162,0,0,1-2.293-.292A9.131,9.131,0,0,1,.293,6.853a9.128,9.128,0,1,1,17.678,4.56,9.143,9.143,0,0,1-8.824,6.854M9.12.8A8.335,8.335,0,0,0,1.958,13.366a8.33,8.33,0,1,0,9.257-12.3A8.372,8.372,0,0,0,9.12.8" transform="translate(33.939 31.233)" fill="#322222"/>
      <path id="Trazado_765649" data-name="Trazado 765649" d="M17.152,41.676a.426.426,0,0,1-.1-.012L.3,37.343a.4.4,0,0,1-.287-.486L8.818,2.716a.4.4,0,0,1,.487-.291,1.144,1.144,0,0,0,.9-.137L13.421.292A1.969,1.969,0,0,1,14.937.061L26.981,3.167a.4.4,0,0,1-.094.785A19.808,19.808,0,0,0,17.351,40.93a.4.4,0,0,1-.2.746M.886,36.67l14.031,3.619A20.609,20.609,0,0,1,24.446,3.337L14.737.834a1.156,1.156,0,0,0-.9.137L10.621,2.966A2.032,2.032,0,0,1,9.5,3.258Z" transform="translate(15.847 16.606)" fill="#322222"/>
      <path id="Trazado_765650" data-name="Trazado 765650" d="M5.612,2.147a.418.418,0,0,1-.1-.012L.3.79A.4.4,0,0,1,.5.013L5.714,1.357a.4.4,0,0,1,.27.535v0a.4.4,0,0,1-.37.251" transform="translate(27.491 13.822)" fill="#322222"/>
      <path id="Trazado_765651" data-name="Trazado 765651" d="M5.612,3.474a.384.384,0,0,1-.1-.012L.3,2.117a.4.4,0,0,1-.287-.486L.356.3A.4.4,0,0,1,.54.056a.391.391,0,0,1,.3-.043L6.055,1.358a.4.4,0,0,1,.287.486L6,3.175a.4.4,0,0,1-.387.3M.886,1.444,5.325,2.589l.144-.558L1.029.886Z" transform="translate(27.493 12.491)" fill="#322222"/>
      <path id="Trazado_765652" data-name="Trazado 765652" d="M16.247,38.78a.411.411,0,0,1-.1-.012L1.465,34.981A1.953,1.953,0,0,1,.062,32.6L8.093,1.465a1.954,1.954,0,0,1,2.378-1.4L25.153,3.849a.4.4,0,0,1,.292.464l-.005.026L16.634,38.481a.4.4,0,0,1-.387.3M9.984.8a1.157,1.157,0,0,0-1.117.865L.836,32.8a1.155,1.155,0,0,0,.828,1.4l14.3,3.687L24.568,4.523,10.272.836A1.161,1.161,0,0,0,9.984.8M25.053,4.24h0Z" transform="translate(0 15.182)" fill="#322222"/>
      <path id="Trazado_765653" data-name="Trazado 765653" d="M8.853,2.981a.411.411,0,0,1-.1-.012L.3.789A.4.4,0,0,1,.008.324.4.4,0,0,1,.5.012L8.95,2.191a.4.4,0,0,1,.3.466v0a.4.4,0,0,1-.392.321" transform="translate(16.146 10.897)" fill="#322222"/>
      <path id="Trazado_765654" data-name="Trazado 765654" d="M8.854,4.651a.391.391,0,0,1-.078-.008L.3,2.459a.4.4,0,0,1-.287-.487L.444.3A.4.4,0,0,1,.628.056a.393.393,0,0,1,.3-.043L9.384,2.194a.4.4,0,0,1,.287.487L9.24,4.352a.4.4,0,0,1-.387.3M.886,1.785l7.68,1.981.232-.9L1.117.887Z" transform="translate(16.146 9.223)" fill="#322222"/>
      <path id="Trazado_765655" data-name="Trazado 765655" d="M6.543.167A5.234,5.234,0,1,1,.167,3.928,5.234,5.234,0,0,1,6.543.167" transform="translate(37.836 35.128)" fill="#322222"/>
      <path id="Trazado_765656" data-name="Trazado 765656" d="M.4,30.917A.385.385,0,0,1,.3,30.9a.4.4,0,0,1-.284-.488L8.01.3A.4.4,0,0,1,8.5.014.4.4,0,0,1,8.782.5l-8,30.118a.4.4,0,0,1-.386.3" transform="translate(13.677 20.191)" fill="#322222"/>
      <path id="Trazado_765657" data-name="Trazado 765657" d="M.4,7.961a.408.408,0,0,1-.091-.01.4.4,0,0,1-.3-.48L1.685.308a.4.4,0,0,1,.778.183L.789,7.653A.4.4,0,0,1,.4,7.961" transform="translate(21.68 0)" fill="#322222"/>
      <path id="Trazado_765658" data-name="Trazado 765658" d="M1.555,5.833a.4.4,0,0,1-.389-.309L.01.49A.4.4,0,0,1,.31.012a.393.393,0,0,1,.478.3L1.944,5.344a.4.4,0,0,1-.389.489" transform="translate(17.82 1.874)" fill="#322222"/>
      <path id="Trazado_765659" data-name="Trazado 765659" d="M2.141,3.314a.4.4,0,0,1-.328-.173L.071.626A.4.4,0,0,1,.727.171L2.469,2.688a.4.4,0,0,1-.1.555.39.39,0,0,1-.227.071" transform="translate(14.535 4.389)" fill="#322222"/>
      <path id="Trazado_765660" data-name="Trazado 765660" d="M.4,4.414a.4.4,0,0,1-.3-.667L3.391.131a.4.4,0,1,1,.591.536L.695,4.283a.4.4,0,0,1-.3.131" transform="translate(24.145 4.455)" fill="#322222"/>
      <path id="Trazado_765661" data-name="Trazado 765661" d="M.4,1.831A.4.4,0,0,1,.254,1.06L2.9.028a.4.4,0,1,1,.29.744L.544,1.8A.405.405,0,0,1,.4,1.831" transform="translate(25.434 8.457)" fill="#322222"/>
    </g>
  </g>
</svg>
