<svg xmlns="http://www.w3.org/2000/svg" xmlns:xlink="http://www.w3.org/1999/xlink" width="129" height="129" viewBox="0 0 129 129">
  <defs>
    <radialGradient id="radial-gradient" cx="0.5" cy="0.5" r="0.5" gradientUnits="objectBoundingBox">
      <stop offset="0" stop-color="#fff"/>
      <stop offset="1" stop-color="#fff7ea"/>
    </radialGradient>
  </defs>
  <g id="Grupo_1106822" data-name="Grupo 1106822" transform="translate(-1051.571 -2749)">
    <g id="Grupo_1106808" data-name="Grupo 1106808" transform="translate(0 -1414)">
      <g id="Grupo_1106777" data-name="Grupo 1106777" transform="translate(626)">
        <g id="Elipse_12307" data-name="Elipse 12307" transform="translate(440.571 4178)" stroke="#fff" stroke-width="2" fill="url(#radial-gradient)">
          <circle cx="49.5" cy="49.5" r="49.5" stroke="none"/>
          <circle cx="49.5" cy="49.5" r="48.5" fill="none"/>
        </g>
        <g id="Elipse_12308" data-name="Elipse 12308" transform="translate(425.571 4163)" fill="none" stroke="#fff0d6" stroke-width="10" opacity="0.43">
          <circle cx="64.5" cy="64.5" r="64.5" stroke="none"/>
          <circle cx="64.5" cy="64.5" r="59.5" fill="none"/>
        </g>
      </g>
    </g>
    <g id="_002-camping" data-name="002-camping" transform="translate(1087.571 2784.898)">
      <path id="Trazado_902963" data-name="Trazado 902963" d="M60.8,398.005a.379.379,0,0,1-.022.155,6.056,6.056,0,0,1-3.987-1.529,2.358,2.358,0,0,0-3.1,0,6.023,6.023,0,0,1-8.019,0,2.358,2.358,0,0,0-3.1,0,6.024,6.024,0,0,1-8.019,0,2.358,2.358,0,0,0-3.1,0,6.023,6.023,0,0,1-8.019,0,2.358,2.358,0,0,0-3.1,0,6.024,6.024,0,0,1-8.019,0,2.358,2.358,0,0,0-3.1,0,5.969,5.969,0,0,1-3.987,1.529.331.331,0,0,1-.022-.155v10.345H60.8Zm0,0" transform="translate(-4.623 -352.093)" fill="#55acd5"/>
      <path id="Trazado_902964" data-name="Trazado 902964" d="M52.476,137.469a.444.444,0,0,1-.443-.443.5.5,0,0,1,.266-.421,21.161,21.161,0,0,0,1.994-1.019c-2.946-5.006-7-8.086-11.386-8.086-8.064,0-14.975,10.368-16.1,24.124h32.21a39.738,39.738,0,0,0-3.7-14.156Zm0,0" transform="translate(-23.833 -113.287)" fill="#ffae2c"/>
      <path id="Trazado_902965" data-name="Trazado 902965" d="M121.2,240.7h11.3v11.519H121.2Zm0,0" transform="translate(-107.775 -213.948)" fill="#fc9322"/>
      <path id="Trazado_902966" data-name="Trazado 902966" d="M121.2,240.7h5.538v11.519H121.2Zm0,0" transform="translate(-107.775 -213.948)" fill="#fc9322"/>
      <path id="Trazado_902967" data-name="Trazado 902967" d="M30.454,49.624a9.842,9.842,0,0,1,10.323,0h.332a1.85,1.85,0,1,0,.022-3.7,1.8,1.8,0,0,0-.687.133,2.958,2.958,0,0,0-3.5-2.282h-.022a5.686,5.686,0,0,0-11.209-1.152A3.581,3.581,0,0,0,21.5,44.462c-.067,0-.155-.022-.222-.022a2.675,2.675,0,0,0-2.68,2.681,2.53,2.53,0,0,0,2.68,2.5Zm0,0" transform="translate(-16.542 -33.949)" fill="#acdef9"/>
      <path id="Trazado_902968" data-name="Trazado 902968" d="M246.089,35.244a3.544,3.544,0,1,1-3.544-3.544A3.544,3.544,0,0,1,246.089,35.244Zm0,0" transform="translate(-212.528 -28.098)" fill="#ffcd29"/>
      <path id="Trazado_902969" data-name="Trazado 902969" d="M9.208,258.488a2.358,2.358,0,0,1,3.1,0,6.024,6.024,0,0,0,8.019,0,2.358,2.358,0,0,1,3.1,0,6.023,6.023,0,0,0,8.019,0,2.358,2.358,0,0,1,3.1,0,6.024,6.024,0,0,0,8.019,0,2.358,2.358,0,0,1,3.1,0,6.023,6.023,0,0,0,8.019,0,2.358,2.358,0,0,1,3.1,0,5.971,5.971,0,0,0,3.987,1.529.331.331,0,0,0,.022-.155V241.253a.548.548,0,0,0-.554-.554H37.231a42.405,42.405,0,0,1,2.57,11.586H7.591a40.826,40.826,0,0,1,2.57-11.586H5.2v19.162a.38.38,0,0,0,.022.155,5.969,5.969,0,0,0,3.987-1.529Zm0,0" transform="translate(-4.623 -213.949)" fill="#ffe5a4"/>
      <path id="Trazado_902970" data-name="Trazado 902970" d="M279.7,121.877c-6.38-2.835-10.544-8.462-11.984-10.633a.677.677,0,0,0-.93-.2.849.849,0,0,0-.2.2c-1.44,2.171-5.6,7.8-11.984,10.633a.484.484,0,0,0-.244.6.469.469,0,0,0,.421.266H279.5a.444.444,0,0,0,.443-.443.354.354,0,0,0-.244-.421Zm0,0" transform="translate(-226.155 -98.56)" fill="#ea4647"/>
      <path id="Trazado_902971" data-name="Trazado 902971" d="M302.838,111.033a.75.75,0,0,0-.443,0c-.8,2.171-3.677,9.326-8.2,11.763h16.836C306.516,120.359,303.636,113.2,302.838,111.033Zm0,0" transform="translate(-261.613 -98.614)" fill="#e9e9ea"/>
      <path id="Trazado_902972" data-name="Trazado 902972" d="M347.548,110.9c-.266,2.127-1.218,9.349-2.747,11.807h5.627c-1.529-2.437-2.481-9.658-2.747-11.807Zm0,0" transform="translate(-306.61 -98.524)" fill="#ea4647"/>
      <path id="Trazado_902973" data-name="Trazado 902973" d="M434.061,114.453h-.4v-.4a.554.554,0,0,0-1.108,0v.4h-.4a.554.554,0,0,0,0,1.108h.4v.4a.554.554,0,0,0,1.108,0v-.4h.4a.554.554,0,1,0,0-1.108Zm0,0" transform="translate(-383.797 -100.839)" fill="#ffcd29"/>
      <path id="Trazado_902974" data-name="Trazado 902974" d="M407.13,89.786c0-.045-.022-.067-.022-.111-.022-.022-.022-.067-.045-.089s-.044-.067-.066-.089a.577.577,0,0,0-.775,0,.3.3,0,0,0-.067.089.791.791,0,0,0-.089.2.379.379,0,0,0,0,.222c0,.044.022.066.022.111.023.044.023.066.045.089s.044.066.066.088a.535.535,0,0,0,.775,0,.3.3,0,0,0,.067-.088.17.17,0,0,0,.044-.089.164.164,0,0,0,.022-.111A.255.255,0,0,0,407.13,89.786Zm0,0" transform="translate(-361.075 -79.362)" fill="#55acd5"/>
      <path id="Trazado_902975" data-name="Trazado 902975" d="M41.13,33.786c0-.045-.022-.067-.022-.111-.022-.022-.022-.067-.045-.089S41.019,33.52,41,33.5a.577.577,0,0,0-.775,0,.3.3,0,0,0-.067.089.791.791,0,0,0-.089.2.379.379,0,0,0,0,.222c0,.044.022.066.022.111.022.044.022.066.045.089s.044.066.066.088a.535.535,0,0,0,.775,0,.3.3,0,0,0,.067-.088.17.17,0,0,0,.044-.089.164.164,0,0,0,.022-.111A.255.255,0,0,0,41.13,33.786Zm0,0" transform="translate(-35.614 -29.565)" fill="#6dcc6d"/>
      <path id="Trazado_902976" data-name="Trazado 902976" d="M72.747,1.674A1.912,1.912,0,0,1,71.218.146C71.2.1,71.174.1,71.174.1a.022.022,0,0,0-.022.022,1.913,1.913,0,0,1-1.529,1.529c-.022,0-.022.022-.022.044a.022.022,0,0,0,.022.022,1.913,1.913,0,0,1,1.529,1.529c0,.022.022.022.044.022a.022.022,0,0,0,.022-.022,1.912,1.912,0,0,1,1.529-1.529c.022.022.022,0,.022-.022A.022.022,0,0,0,72.747,1.674Zm0,0" transform="translate(-61.892)" fill="#ea4647"/>
      <path id="Trazado_902977" data-name="Trazado 902977" d="M275.321,118.891H250.6a.993.993,0,0,1-1-1,1.053,1.053,0,0,1,.6-.93c6.2-2.747,10.279-8.219,11.741-10.434a1.24,1.24,0,0,1,1.684-.354,1.083,1.083,0,0,1,.354.354c1.462,2.215,5.538,7.687,11.741,10.434a1.007,1.007,0,0,1,.51,1.329.974.974,0,0,1-.908.6Zm-24.235-1.108h23.77c-6.247-2.924-10.323-8.4-11.785-10.655a.146.146,0,0,0-.155-.045c-.022,0-.022.022-.045.045-1.484,2.259-5.56,7.731-11.785,10.655Zm0,0" transform="translate(-221.956 -94.156)"/>
      <path id="Trazado_902978" data-name="Trazado 902978" d="M306.766,118.814H289.952a.555.555,0,0,1-.266-1.041c4.342-2.349,7.177-9.371,7.931-11.475a.547.547,0,0,1,.332-.332,1.228,1.228,0,0,1,.8,0,.5.5,0,0,1,.332.332c.753,2.1,3.589,9.127,7.93,11.475a.553.553,0,0,1,.222.753A.516.516,0,0,1,306.766,118.814Zm-15.019-1.108h13.2c-3.367-2.747-5.627-7.775-6.6-10.234-.952,2.459-3.234,7.487-6.6,10.234Zm0,0" transform="translate(-257.344 -94.079)"/>
      <path id="Trazado_902979" data-name="Trazado 902979" d="M345.982,118.995h-5.627a.548.548,0,0,1-.554-.554.445.445,0,0,1,.089-.288c1.152-1.86,2.127-7.2,2.658-11.563a.543.543,0,0,1,.487-.487h.244a.524.524,0,0,1,.488.487c.531,4.364,1.506,9.7,2.658,11.563a.541.541,0,0,1-.177.753A.322.322,0,0,1,345.982,118.995Zm-4.719-1.108h3.81a36.445,36.445,0,0,1-1.905-7.753,36.419,36.419,0,0,1-1.9,7.753Zm0,0" transform="translate(-302.164 -94.26)"/>
      <path id="Trazado_902980" data-name="Trazado 902980" d="M366.554,228.3a.548.548,0,0,1-.554-.554V213.656a.554.554,0,1,1,1.108,0v14.089A.548.548,0,0,1,366.554,228.3Zm0,0" transform="translate(-325.461 -189.408)"/>
      <path id="Trazado_902981" data-name="Trazado 902981" d="M45.236,256.124a6.672,6.672,0,0,1-4.386-1.661,1.789,1.789,0,0,0-2.37,0,6.591,6.591,0,0,1-8.75,0,1.79,1.79,0,0,0-2.371,0,6.591,6.591,0,0,1-8.75,0,1.789,1.789,0,0,0-2.37,0,6.591,6.591,0,0,1-8.75,0,1.789,1.789,0,0,0-2.37,0,6.559,6.559,0,0,1-4.342,1.661.545.545,0,0,1-.531-.4,1.291,1.291,0,0,1-.045-.31V236.253a.548.548,0,0,1,.554-.554h4.94a.548.548,0,0,1,.554.554.638.638,0,0,1-.045.2,40.309,40.309,0,0,0-2.481,10.833H34.735a40.5,40.5,0,0,0-2.481-10.833.539.539,0,0,1,.31-.709.641.641,0,0,1,.2-.045H55.8a1.125,1.125,0,0,1,1.108,1.108v18.608a1.5,1.5,0,0,1-.044.31.546.546,0,0,1-.532.4,6.558,6.558,0,0,1-4.342-1.661,1.79,1.79,0,0,0-2.371,0,6.671,6.671,0,0,1-4.386,1.661Zm-5.56-3.212a2.939,2.939,0,0,1,1.927.731,5.5,5.5,0,0,0,7.288,0,2.876,2.876,0,0,1,3.832,0,5.486,5.486,0,0,0,3.079,1.351V236.807h-22.2a42.467,42.467,0,0,1,2.326,10.988.551.551,0,0,1-.51.6H3.146a.548.548,0,0,1-.554-.554v-.045a42.431,42.431,0,0,1,2.326-10.988H1.307v18.165a5.485,5.485,0,0,0,3.079-1.351,2.877,2.877,0,0,1,3.833,0,5.5,5.5,0,0,0,7.288,0,2.877,2.877,0,0,1,3.833,0,5.5,5.5,0,0,0,7.288,0,2.876,2.876,0,0,1,3.832,0,5.5,5.5,0,0,0,7.288,0,2.918,2.918,0,0,1,1.928-.709Zm-34.913,1.13" transform="translate(-0.178 -209.503)"/>
      <path id="Trazado_902982" data-name="Trazado 902982" d="M54.565,147.732H22.355a.548.548,0,0,1-.554-.554v-.045c1.13-14.044,8.307-24.633,16.658-24.633,4.475,0,8.684,2.969,11.874,8.351a.546.546,0,0,1-.2.753c-.532.31-1.086.6-1.617.842h2.348a.51.51,0,0,1,.488.31A40.038,40.038,0,0,1,55.1,147.112a.55.55,0,0,1-.509.6c0,.022,0,.022-.022.022Zm-31.612-1.108H53.966a39.522,39.522,0,0,0-3.434-13.048H48.052a.993.993,0,0,1-1-1,1.053,1.053,0,0,1,.6-.93c.488-.222.953-.443,1.44-.709-2.924-4.718-6.69-7.31-10.633-7.31-7.665-.022-14.266,9.836-15.507,22.994Zm0,0" transform="translate(-19.386 -108.842)"/>
      <path id="Trazado_902983" data-name="Trazado 902983" d="M128.051,248.326h-11.3a.548.548,0,0,1-.554-.554V236.253a.548.548,0,0,1,.554-.554h11.3a.548.548,0,0,1,.554.554v11.519A.563.563,0,0,1,128.051,248.326Zm-10.744-1.108H127.5V236.807h-10.19Zm0,0" transform="translate(-103.329 -209.502)"/>
      <path id="Trazado_902984" data-name="Trazado 902984" d="M122.291,248.326h-5.538a.548.548,0,0,1-.554-.554V236.253a.548.548,0,0,1,.554-.554h5.538a.548.548,0,0,1,.554.554v11.519A.563.563,0,0,1,122.291,248.326Zm-4.984-1.108h4.43V236.807h-4.43Zm0,0" transform="translate(-103.329 -209.502)"/>
      <path id="Trazado_902985" data-name="Trazado 902985" d="M123.38,236.807H110.753a.554.554,0,1,1,0-1.108H123.38a.554.554,0,1,1,0,1.108Zm0,0" transform="translate(-97.993 -209.502)"/>
      <path id="Trazado_902986" data-name="Trazado 902986" d="M56.178,440.134a6.671,6.671,0,0,1-4.386-1.661,1.79,1.79,0,0,0-2.371,0,6.591,6.591,0,0,1-8.75,0,1.789,1.789,0,0,0-2.37,0,6.591,6.591,0,0,1-8.75,0,1.79,1.79,0,0,0-2.371,0,6.591,6.591,0,0,1-8.75,0,1.789,1.789,0,0,0-2.37,0,6.591,6.591,0,0,1-8.75,0,1.789,1.789,0,0,0-2.37,0,6.629,6.629,0,0,1-4.386,1.661.554.554,0,1,1,0-1.108,5.362,5.362,0,0,0,3.633-1.4,2.876,2.876,0,0,1,3.832,0,5.5,5.5,0,0,0,7.288,0,2.877,2.877,0,0,1,3.833,0,5.5,5.5,0,0,0,7.288,0,2.876,2.876,0,0,1,3.832,0,5.5,5.5,0,0,0,7.288,0,2.877,2.877,0,0,1,3.833,0,5.5,5.5,0,0,0,7.288,0,2.877,2.877,0,0,1,3.833,0,5.527,5.527,0,0,0,3.655,1.4.548.548,0,0,1,.554.554.53.53,0,0,1-.532.554Zm0,0" transform="translate(0 -388.417)"/>
      <path id="Trazado_902987" data-name="Trazado 902987" d="M56.178,486.134a6.671,6.671,0,0,1-4.386-1.661,1.79,1.79,0,0,0-2.371,0,6.591,6.591,0,0,1-8.75,0,1.789,1.789,0,0,0-2.37,0,6.591,6.591,0,0,1-8.75,0,1.79,1.79,0,0,0-2.371,0,6.591,6.591,0,0,1-8.75,0,1.789,1.789,0,0,0-2.37,0,6.591,6.591,0,0,1-8.75,0,1.789,1.789,0,0,0-2.37,0,6.629,6.629,0,0,1-4.386,1.661.554.554,0,0,1,0-1.108,5.362,5.362,0,0,0,3.633-1.4,2.876,2.876,0,0,1,3.832,0,5.5,5.5,0,0,0,7.288,0,2.877,2.877,0,0,1,3.833,0,5.5,5.5,0,0,0,7.288,0,2.876,2.876,0,0,1,3.832,0,5.5,5.5,0,0,0,7.288,0,2.877,2.877,0,0,1,3.833,0,5.5,5.5,0,0,0,7.288,0,2.877,2.877,0,0,1,3.833,0,5.527,5.527,0,0,0,3.655,1.4.548.548,0,0,1,.554.554.53.53,0,0,1-.532.554Zm0,0" transform="translate(0 -429.322)"/>
      <path id="Trazado_902988" data-name="Trazado 902988" d="M238.1,34.9a4.1,4.1,0,1,1,4.1-4.1A4.1,4.1,0,0,1,238.1,34.9Zm0-7.089a2.991,2.991,0,1,0,2.991,2.991A2.992,2.992,0,0,0,238.1,27.807Zm0,0" transform="translate(-208.082 -23.651)"/>
      <path id="Trazado_902989" data-name="Trazado 902989" d="M36.46,45.658h-.332a.685.685,0,0,1-.288-.066,9.34,9.34,0,0,0-9.769,0,.616.616,0,0,1-.288.066H16.633A3.079,3.079,0,0,1,13.4,42.6a3.235,3.235,0,0,1,3.146-3.235,4.155,4.155,0,0,1,4.164-1.927,6.224,6.224,0,0,1,12.073,1.174,3.528,3.528,0,0,1,3.39,2.237,2.4,2.4,0,0,1,.6,4.763.7.7,0,0,1-.31.044Zm-.177-1.108h.177a1.3,1.3,0,0,0,.022-2.592,1.261,1.261,0,0,0-.488.089.539.539,0,0,1-.709-.31.134.134,0,0,1-.022-.089,2.4,2.4,0,0,0-2.836-1.861h-.022a.572.572,0,0,1-.665-.421.947.947,0,0,1-.022-.111A5.111,5.111,0,0,0,21.64,38.237a.54.54,0,0,1-.665.4h-.022a3.018,3.018,0,0,0-3.567,1.551.557.557,0,0,1-.531.31h-.177a2.127,2.127,0,0,0-2.127,2.127,1.972,1.972,0,0,0,2.127,1.949h8.994a10.309,10.309,0,0,1,10.611-.022Zm0,0" transform="translate(-11.915 -29.43)"/>
      <path id="Trazado_902990" data-name="Trazado 902990" d="M358.19,342.21h-2.437a.554.554,0,1,1,0-1.108h2.437a.554.554,0,0,1,0,1.108Zm0,0" transform="translate(-315.856 -303.23)"/>
      <path id="Trazado_902991" data-name="Trazado 902991" d="M265.753,1.985a.549.549,0,0,1-.554-.554V.655a.554.554,0,0,1,1.108,0v.775A.563.563,0,0,1,265.753,1.985Zm0,0" transform="translate(-235.825 0)"/>
      <path id="Trazado_902992" data-name="Trazado 902992" d="M265.753,112.383a.548.548,0,0,1-.554-.554v-.775a.554.554,0,0,1,1.108,0v.775A.548.548,0,0,1,265.753,112.383Zm0,0" transform="translate(-235.825 -98.17)"/>
      <path id="Trazado_902993" data-name="Trazado 902993" d="M207.727,60.006h-.775a.554.554,0,1,1,0-1.108h.775a.549.549,0,0,1,.554.554A.563.563,0,0,1,207.727,60.006Zm0,0" transform="translate(-183.537 -52.284)"/>
      <path id="Trazado_902994" data-name="Trazado 902994" d="M318.329,60.006h-.775a.554.554,0,1,1,0-1.108h.775a.549.549,0,0,1,.554.554A.578.578,0,0,1,318.329,60.006Zm0,0" transform="translate(-281.888 -52.284)"/>
      <path id="Trazado_902995" data-name="Trazado 902995" d="M224.773,19a.637.637,0,0,1-.4-.155l-.532-.532a.548.548,0,0,1,.753-.8l.022.022.532.532a.535.535,0,0,1,0,.775A.457.457,0,0,1,224.773,19Zm0,0" transform="translate(-198.899 -15.358)"/>
      <path id="Trazado_902996" data-name="Trazado 902996" d="M302.972,97.206a.636.636,0,0,1-.4-.155l-.532-.531a.549.549,0,0,1,.753-.8l.022.022.532.531a.535.535,0,0,1,0,.775A.486.486,0,0,1,302.972,97.206Zm0,0" transform="translate(-268.437 -84.899)"/>
      <path id="Trazado_902997" data-name="Trazado 902997" d="M302.355,18.935a.549.549,0,0,1-.554-.554.636.636,0,0,1,.155-.4l.532-.532a.535.535,0,0,1,.775.022.577.577,0,0,1,0,.775l-.532.532A.457.457,0,0,1,302.355,18.935Zm0,0" transform="translate(-268.373 -15.289)"/>
    </g>
  </g>
</svg>
