<svg xmlns="http://www.w3.org/2000/svg" xmlns:xlink="http://www.w3.org/1999/xlink" width="129" height="129" viewBox="0 0 129 129">
  <defs>
    <radialGradient id="radial-gradient" cx="0.5" cy="0.5" r="0.5" gradientUnits="objectBoundingBox">
      <stop offset="0" stop-color="#fff"/>
      <stop offset="1" stop-color="#fff7ea"/>
    </radialGradient>
  </defs>
  <g id="Grupo_1106820" data-name="Grupo 1106820" transform="translate(-421.571 -2749)">
    <g id="Grupo_1106806" data-name="Grupo 1106806" transform="translate(-630 -1414)">
      <g id="Grupo_1106777" data-name="Grupo 1106777" transform="translate(626)">
        <g id="Elipse_12307" data-name="Elipse 12307" transform="translate(440.571 4178)" stroke="#fff" stroke-width="2" fill="url(#radial-gradient)">
          <circle cx="49.5" cy="49.5" r="49.5" stroke="none"/>
          <circle cx="49.5" cy="49.5" r="48.5" fill="none"/>
        </g>
        <g id="Elipse_12308" data-name="Elipse 12308" transform="translate(425.571 4163)" fill="none" stroke="#fff0d6" stroke-width="10" opacity="0.43">
          <circle cx="64.5" cy="64.5" r="64.5" stroke="none"/>
          <circle cx="64.5" cy="64.5" r="59.5" fill="none"/>
        </g>
      </g>
    </g>
    <g id="_042-hiking-1" data-name="042-hiking-1" transform="translate(463.47 2780)">
      <path id="Trazado_902845" data-name="Trazado 902845" d="M78.945,61.68a2.48,2.48,0,1,1-2.48-2.48A2.48,2.48,0,0,1,78.945,61.68Zm0,0" transform="translate(-64.238 -51.471)" fill="#6d6c6b"/>
      <path id="Trazado_902846" data-name="Trazado 902846" d="M46.6,184.834v-4.465a1.778,1.778,0,0,0-1.776-1.776H42.109a1.469,1.469,0,0,0-.47.079V175.2h-1.8a1.861,1.861,0,0,0-1.854,1.854v7.781a1.861,1.861,0,0,0,1.854,1.854h4.908a1.861,1.861,0,0,0,1.854-1.854Zm0,0" transform="translate(-32.937 -152.327)" fill="#b26e3b"/>
      <path id="Trazado_902847" data-name="Trazado 902847" d="M71.337,97.2H67.942a1.955,1.955,0,0,0-1.958,1.958v11.7a1.468,1.468,0,0,1,.47-.079h2.716a1.777,1.777,0,0,1,1.776,1.776V117.1a1.778,1.778,0,0,1-1.776,1.775h2.193a1.984,1.984,0,0,0,1.749-1.07l.209-14.465V99.157A1.978,1.978,0,0,0,71.337,97.2Zm0,0" transform="translate(-57.282 -84.51)" fill="#ffae2c"/>
      <path id="Trazado_902848" data-name="Trazado 902848" d="M65.984,155.2v6.084a1.469,1.469,0,0,1,.47-.079H69.17a1.777,1.777,0,0,1,1.776,1.776v4.543A1.778,1.778,0,0,1,69.17,169.3h2.193a1.984,1.984,0,0,0,1.749-1.07L73.3,155.2Zm0,0" transform="translate(-57.282 -134.938)" fill="#fc9322"/>
      <path id="Trazado_902849" data-name="Trazado 902849" d="M57.759,201.2h2.716a1.777,1.777,0,0,1,1.776,1.776v4.543a1.778,1.778,0,0,1-1.776,1.775H57.759a1.777,1.777,0,0,1-1.775-1.775v-4.543A1.794,1.794,0,0,1,57.759,201.2Zm0,0" transform="translate(-48.588 -174.933)" fill="#6d6c6b"/>
      <path id="Trazado_902850" data-name="Trazado 902850" d="M60.475,201.2H57.759a1.777,1.777,0,0,0-1.775,1.776v1.358h6.266v-1.358a1.8,1.8,0,0,0-1.776-1.776Zm0,0" transform="translate(-48.588 -174.933)" fill="#898989"/>
      <path id="Trazado_902851" data-name="Trazado 902851" d="M125.7,10.656A5.457,5.457,0,1,1,120.238,5.2,5.457,5.457,0,0,1,125.7,10.656Zm0,0" transform="translate(-99.709 -4.52)" fill="#f9d0b4"/>
      <path id="Trazado_902852" data-name="Trazado 902852" d="M115.781,9.668h10.705a5.414,5.414,0,0,0-6.344-4.334A5.359,5.359,0,0,0,115.781,9.668Zm0,0" transform="translate(-100.578 -4.551)" fill="#ea4647"/>
      <path id="Trazado_902853" data-name="Trazado 902853" d="M49.411,122.777a2.264,2.264,0,0,1-.235-1.175v.052l-.261,18.538L43.38,155.205l-5.2,8.59a.7.7,0,0,1,.366.183l3.786,2.846,5.535-9.164a2.313,2.313,0,0,0,.209-.444l5.77-15.666a2.259,2.259,0,0,0,.157-.835l.1-7.833Zm0,0" transform="translate(-33.111 -105.727)" fill="#f9d0b4"/>
      <path id="Trazado_902854" data-name="Trazado 902854" d="M149.364,290.788h4.308l-1.7-11.149a2.409,2.409,0,0,0-.209-.705L144.455,263.4v.6a2.259,2.259,0,0,1-.157.835l-2.115,5.744,4.8,10.209,1.593,10.444A.857.857,0,0,1,149.364,290.788Zm0,0" transform="translate(-123.534 -229.012)" fill="#f9d0b4"/>
      <path id="Trazado_902855" data-name="Trazado 902855" d="M198.8,476.2v-.052a3.51,3.51,0,0,0-3.473-2.951h-4.752a.992.992,0,0,0-.992.992v2.454a.992.992,0,0,0,.992.992h6.945a1.293,1.293,0,0,0,1.305-1.306A.237.237,0,0,0,198.8,476.2Zm0,0" transform="translate(-164.745 -411.423)" fill="#b26e3b"/>
      <path id="Trazado_902856" data-name="Trazado 902856" d="M25.457,452.187l.026-.026a3.488,3.488,0,0,0-.992-4.439l-3.812-2.872a.99.99,0,0,0-1.384.183l-1.462,1.958a.989.989,0,0,0,.183,1.384l5.536,4.178a1.3,1.3,0,0,0,1.828-.235.586.586,0,0,1,.078-.131Zm0,0" transform="translate(-15.241 -386.599)" fill="#b26e3b"/>
      <path id="Trazado_902857" data-name="Trazado 902857" d="M188.026,451.88a1,1,0,0,1,.809-.418h4.308l-.5-3.264-5.065.705Zm0,0" transform="translate(-163.005 -389.687)" fill="#e9e9ea"/>
      <path id="Trazado_902858" data-name="Trazado 902858" d="M44.136,426.594,39.855,423.8l-1.671,2.742a.7.7,0,0,1,.366.183l3.786,2.846Zm0,0" transform="translate(-33.111 -368.474)" fill="#e9e9ea"/>
      <path id="Trazado_902859" data-name="Trazado 902859" d="M85.579,264l-5.2,14.125,4.752,1.932,5.405-14.7a2.259,2.259,0,0,0,.157-.835v-.261Zm0,0" transform="translate(-69.801 -229.535)" fill="#55acd5"/>
      <path id="Trazado_902860" data-name="Trazado 902860" d="M144.455,263.4v.6a2.259,2.259,0,0,1-.157.835l-2.115,5.744,4.1,8.747,4.8-1.828Zm0,0" transform="translate(-123.534 -229.011)" fill="#3992c4"/>
      <path id="Trazado_902861" data-name="Trazado 902861" d="M120.644,121.6v.052l-.261,18.538,5.117.235.1-7.572-4.726-10.078A2.264,2.264,0,0,1,120.644,121.6Zm0,0" transform="translate(-104.579 -105.727)" fill="#ea4647"/>
      <path id="Trazado_902862" data-name="Trazado 902862" d="M129.776,118.523a2.554,2.554,0,0,1-2.323-1.488l-5.091-10.862a2.552,2.552,0,1,1,4.621-2.167l4.152,8.851,8.877-2.664a2.561,2.561,0,0,1,1.462,4.909l-10.94,3.316a2.409,2.409,0,0,1-.757.1Zm0,0" transform="translate(-106.088 -89.149)" fill="#f9d0b4"/>
      <path id="Trazado_902863" data-name="Trazado 902863" d="M37.887,163.3a.7.7,0,0,1-.392-.131l-3.786-2.846a.2.2,0,0,0-.131-.052.674.674,0,0,1-.5-.783,1.286,1.286,0,0,1,.078-.183L38.3,150.77l5.483-14.857.261-18.408v-.078a.653.653,0,1,1,1.305.052,1.893,1.893,0,0,0,.183.862l4.726,10.078a.513.513,0,0,1,.053.287l-.1,7.833A3,3,0,0,1,50,137.61l-5.77,15.666a5.09,5.09,0,0,1-.261.548l-5.535,9.165a.637.637,0,0,1-.548.313Zm-3.264-3.917,3.055,2.324,5.17-8.538c.052-.1.1-.209.157-.339l5.77-15.666a1.751,1.751,0,0,0,.1-.627l.1-7.676-3.655-7.938-.209,15.092a.5.5,0,0,1-.052.209L39.531,151.24c-.026.026-.026.078-.052.1Zm0,0" transform="translate(-28.663 -101.552)"/>
      <path id="Trazado_902864" data-name="Trazado 902864" d="M127.382,104.206a2.552,2.552,0,1,0-4.621,2.167l3.864,8.3,4.517-2.454Zm0,0" transform="translate(-106.435 -89.323)" fill="#ea4647"/>
      <path id="Trazado_902865" data-name="Trazado 902865" d="M236.435,150.028l2.506-.757-.209-.888a1.311,1.311,0,0,0-2.559.575Zm0,0" transform="translate(-205.226 -128.122)" fill="#6d6c6b"/>
      <path id="Trazado_902866" data-name="Trazado 902866" d="M258.437,238.858,249.69,200.4l-2.506.757,8.721,38.3a1.3,1.3,0,1,0,2.532-.6Zm0,0" transform="translate(-214.826 -174.236)" fill="#6d6c6b"/>
      <path id="Trazado_902867" data-name="Trazado 902867" d="M225.281,312.724h-.47v-.47a.653.653,0,0,0-1.306,0v.47h-.47a.653.653,0,1,0,0,1.306h.47v.47a.653.653,0,0,0,1.306,0v-.47h.47a.653.653,0,1,0,0-1.306Zm0,0" transform="translate(-193.263 -270.922)" fill="#6dcc6d"/>
      <path id="Trazado_902868" data-name="Trazado 902868" d="M57.931,16.766c0-.052-.026-.078-.026-.131-.026-.026-.026-.078-.052-.1s-.053-.078-.079-.1a.68.68,0,0,0-.914,0,.369.369,0,0,0-.079.1.431.431,0,0,0-.131.235.447.447,0,0,0,0,.261c0,.053.027.079.027.131.026.053.026.079.052.1s.052.079.079.1a.631.631,0,0,0,.914,0,.362.362,0,0,0,.078-.1.2.2,0,0,0,.053-.1.2.2,0,0,0,.026-.131A.258.258,0,0,0,57.931,16.766Zm0,0" transform="translate(-49.151 -14.129)" fill="#ea4647"/>
      <path id="Trazado_902869" data-name="Trazado 902869" d="M206.1,274.766c0-.052-.026-.078-.026-.131-.026-.026-.026-.078-.052-.1s-.053-.078-.079-.1a.68.68,0,0,0-.914,0,.369.369,0,0,0-.079.1.937.937,0,0,0-.1.235.438.438,0,0,0,0,.261c0,.053.026.079.026.131.026.053.026.079.052.1s.053.079.079.1a.631.631,0,0,0,.914,0,.363.363,0,0,0,.078-.1.466.466,0,0,0,.079-.235A.317.317,0,0,0,206.1,274.766Zm0,0" transform="translate(-178.003 -238.447)" fill="#55acd5"/>
      <path id="Trazado_902870" data-name="Trazado 902870" d="M4.341,56.216a2.622,2.622,0,0,1-2.063-2.063c0-.026-.026-.052-.052-.026a.025.025,0,0,0-.026.026A2.622,2.622,0,0,1,.138,56.216c-.026,0-.052.026-.026.053a.025.025,0,0,0,.026.026A2.622,2.622,0,0,1,2.2,58.358c0,.026.026.052.052.026a.025.025,0,0,0,.026-.026,2.622,2.622,0,0,1,2.063-2.063c.026,0,.053-.026.026-.053C4.394,56.242,4.367,56.242,4.341,56.216Zm0,0" transform="translate(0 -47.052)" fill="#ffcd29"/>
      <path id="Trazado_902871" data-name="Trazado 902871" d="M115.891,12.22A6.11,6.11,0,1,1,122,6.11,6.118,6.118,0,0,1,115.891,12.22Zm0-10.888a4.8,4.8,0,1,0,4.8,4.8A4.809,4.809,0,0,0,115.891,1.332Zm0,0" transform="translate(-95.361)"/>
      <path id="Trazado_902872" data-name="Trazado 902872" d="M125.4,114.453a3.2,3.2,0,0,1-2.9-1.854l-5.091-10.862a3.223,3.223,0,0,1,5.8-2.82c.026.026.026.052.052.1l3.916,8.355,8.329-2.506a3.221,3.221,0,1,1,1.88,6.162h-.026l-10.992,3.29a3.182,3.182,0,0,1-.966.131Zm-5.065-15.979a1.917,1.917,0,0,0-1.906,1.906,1.749,1.749,0,0,0,.183.809l5.091,10.862a1.913,1.913,0,0,0,2.272,1.018l10.992-3.29a1.919,1.919,0,1,0-.992-3.707c-.026,0-.078.026-.1.026l-8.877,2.663a.643.643,0,0,1-.783-.339L122.057,99.6a1.919,1.919,0,0,0-1.723-1.122Zm0,0" transform="translate(-101.71 -84.426)"/>
      <path id="Trazado_902873" data-name="Trazado 902873" d="M232.325,146.4a.623.623,0,0,1-.627-.5l-.235-1.07a1.957,1.957,0,0,1,3.812-.888l.209.888a.635.635,0,0,1-.444.757l-2.506.757A.8.8,0,0,1,232.325,146.4Zm1.018-2.664a.647.647,0,0,0-.653.653.334.334,0,0,0,.026.157l.079.392,1.253-.366-.078-.287A.621.621,0,0,0,233.344,143.735Zm0,0" transform="translate(-201.117 -123.839)"/>
      <path id="Trazado_902874" data-name="Trazado 902874" d="M252.7,236.753a1.955,1.955,0,0,1-1.906-1.514l-8.721-38.3a.635.635,0,0,1,.444-.757l2.506-.757a.66.66,0,0,1,.81.444v.052l8.747,38.46a1.971,1.971,0,0,1-1.463,2.35c-.131,0-.261.026-.418.026Zm-9.217-39.5,8.59,37.7a.656.656,0,1,0,1.279-.287l-8.59-37.781Zm0,0" transform="translate(-210.368 -169.885)"/>
      <path id="Trazado_902875" data-name="Trazado 902875" d="M121.9,110.6a.682.682,0,0,1-.6-.366l-3.89-8.3a3.223,3.223,0,0,1,5.8-2.82c.026.026.026.053.052.1l3.734,8.016a.656.656,0,0,1-.288.862l-4.517,2.454a.945.945,0,0,1-.287.052Zm-1.567-11.958a1.917,1.917,0,0,0-1.906,1.906,1.749,1.749,0,0,0,.183.809l3.6,7.676,3.368-1.828-3.525-7.441a1.919,1.919,0,0,0-1.723-1.122Zm0,0" transform="translate(-101.71 -84.599)"/>
      <path id="Trazado_902876" data-name="Trazado 902876" d="M120.954,136.732h-.026l-5.117-.235a.664.664,0,0,1-.627-.679v-.026l.261-18.486v-.079a.664.664,0,0,1,.679-.626.646.646,0,0,1,.627.679,1.966,1.966,0,0,0,.183.861l4.726,10.079a.513.513,0,0,1,.053.287l-.1,7.572a.646.646,0,0,1-.653.653Zm-4.439-1.515,3.812.183.1-6.737-3.707-7.912Zm0,0" transform="translate(-100.059 -101.379)"/>
      <path id="Trazado_902877" data-name="Trazado 902877" d="M80.829,276.347a.763.763,0,0,1-.235-.052l-4.752-1.932a.636.636,0,0,1-.366-.836l5.2-14.125a.652.652,0,0,1,.653-.418l5.117.235a.677.677,0,0,1,.627.653v.261a3,3,0,0,1-.209,1.07l-5.405,14.7a.7.7,0,0,1-.627.444ZM76.912,273.4l3.551,1.436,5.2-14.073c.027-.079.053-.183.079-.261l-3.969-.183Zm0,0" transform="translate(-65.495 -225.171)"/>
      <path id="Trazado_902878" data-name="Trazado 902878" d="M192.973,473.941h-6.945a1.638,1.638,0,0,1-1.645-1.645v-2.454a1.638,1.638,0,0,1,1.645-1.645h4.752a4.114,4.114,0,0,1,4.126,3.5v.052a1.9,1.9,0,0,1-.47,1.515,1.822,1.822,0,0,1-1.462.679Zm-6.919-4.439a.346.346,0,0,0-.34.34V472.3a.345.345,0,0,0,.34.339H193a.642.642,0,0,0,.5-.235.577.577,0,0,0,.157-.5v-.026a2.814,2.814,0,0,0-2.82-2.376Zm0,0" transform="translate(-160.224 -407.073)"/>
      <path id="Trazado_902879" data-name="Trazado 902879" d="M19.784,449.09a2,2,0,0,1-1.2-.392l-5.535-4.178a1.631,1.631,0,0,1-.313-2.3l1.462-1.958a1.632,1.632,0,0,1,2.3-.314l3.812,2.872a4.143,4.143,0,0,1,1.175,5.275l-.027.026v.026a1.978,1.978,0,0,1-1.279.914c-.131,0-.261.026-.392.026Zm-4.256-8.172a.32.32,0,0,0-.261.131l-1.462,1.958a.334.334,0,0,0,.078.47l5.536,4.178a.786.786,0,0,0,.548.131.593.593,0,0,0,.418-.287,2.846,2.846,0,0,0-.809-3.629L15.763,441a.423.423,0,0,0-.235-.078Zm0,0" transform="translate(-10.691 -382.223)"/>
      <path id="Trazado_902880" data-name="Trazado 902880" d="M144.139,287.511a.67.67,0,0,1-.653-.548l-1.567-10.339-4.752-10.1a.658.658,0,0,1-.026-.5l2.115-5.744a1.752,1.752,0,0,0,.1-.627v-.6a.663.663,0,0,1,.653-.653.642.642,0,0,1,.574.366L147.9,274.3a2.673,2.673,0,0,1,.261.888l1.7,11.149a.631.631,0,0,1-.548.731H144.9a.361.361,0,0,0-.287.157A.492.492,0,0,1,144.139,287.511Zm-5.692-21.306,4.674,9.948a.38.38,0,0,1,.052.183l1.436,9.5a1.255,1.255,0,0,1,.314-.027h3.551L146.88,275.4a1.737,1.737,0,0,0-.157-.522l-6.449-13.708Zm0,0" transform="translate(-119.118 -224.664)"/>
      <path id="Trazado_902881" data-name="Trazado 902881" d="M141.666,275.631a.683.683,0,0,1-.6-.365l-4.1-8.747a.654.654,0,0,1-.026-.5l2.115-5.744a1.751,1.751,0,0,0,.1-.627v-.6a.663.663,0,0,1,.653-.653.643.643,0,0,1,.574.366l6.632,14.1a.651.651,0,0,1-.313.862c-.027,0-.027.026-.053.026l-4.8,1.828C141.848,275.6,141.77,275.631,141.666,275.631Zm-3.394-9.426,3.734,7.938,3.577-1.358-5.457-11.619Zm0,0" transform="translate(-118.943 -224.664)"/>
      <path id="Trazado_902882" data-name="Trazado 902882" d="M183.631,448.311a.67.67,0,0,1-.653-.548l-.444-2.977a.631.631,0,0,1,.548-.731l5.065-.705a.632.632,0,0,1,.731.549l.5,3.264a.631.631,0,0,1-.549.731h-4.412a.363.363,0,0,0-.288.157A.592.592,0,0,1,183.631,448.311Zm.287-3.081.209,1.384a1.279,1.279,0,0,1,.314-.026h3.551l-.287-1.88Zm0,0" transform="translate(-158.61 -385.465)"/>
      <path id="Trazado_902883" data-name="Trazado 902883" d="M37.887,426.021a.7.7,0,0,1-.392-.131l-3.786-2.846a.2.2,0,0,0-.131-.052.674.674,0,0,1-.5-.783,1.286,1.286,0,0,1,.078-.183l1.671-2.742a.621.621,0,0,1,.888-.209h.026l4.282,2.794a.661.661,0,0,1,.209.888l-1.8,2.977a.677.677,0,0,1-.548.287ZM34.623,422.1l3.055,2.324,1.1-1.8-3.185-2.089Zm0,0" transform="translate(-28.663 -364.271)"/>
      <path id="Trazado_902884" data-name="Trazado 902884" d="M99.637,184.254a.646.646,0,0,1-.653-.653.68.68,0,0,1,.261-.522,43.314,43.314,0,0,0,5.692-5.457.649.649,0,0,1,.992.836,43.3,43.3,0,0,1-5.9,5.666.513.513,0,0,1-.392.131Zm0,0" transform="translate(-85.974 -154.228)"/>
      <path id="Trazado_902885" data-name="Trazado 902885" d="M89.637,101.076a.646.646,0,0,1-.653-.653V92.852a.653.653,0,1,1,1.305,0v7.572A.663.663,0,0,1,89.637,101.076Zm0,0" transform="translate(-77.28 -80.162)"/>
      <path id="Trazado_902886" data-name="Trazado 902886" d="M72.118,60.465a3.133,3.133,0,1,1,3.133-3.133A3.142,3.142,0,0,1,72.118,60.465Zm0-4.961a1.828,1.828,0,1,0,1.828,1.828A1.816,1.816,0,0,0,72.118,55.5Zm0,0" transform="translate(-59.891 -47.123)"/>
      <path id="Trazado_902887" data-name="Trazado 902887" d="M45.758,68.037a.66.66,0,0,1-.6-.392L43.33,63.651A6.679,6.679,0,0,1,46.62,54.8a6.8,6.8,0,0,1,2.794-.6.653.653,0,0,1,0,1.306,5.371,5.371,0,0,0-5.379,5.379,5.133,5.133,0,0,0,.5,2.246l1.828,3.995a.651.651,0,0,1-.313.862,1.117,1.117,0,0,1-.287.052Zm0,0" transform="translate(-37.056 -47.123)"/>
      <path id="Trazado_902888" data-name="Trazado 902888" d="M125.083,35.5H111.637a.653.653,0,0,1,0-1.306h13.447a.653.653,0,1,1,0,1.306Zm0,0" transform="translate(-96.407 -29.735)"/>
      <path id="Trazado_902889" data-name="Trazado 902889" d="M40.4,182.993H35.491a2.507,2.507,0,0,1-2.506-2.506v-7.781a2.507,2.507,0,0,1,2.506-2.506h1.8a.647.647,0,0,1,.653.653v2.742h2.532a2.441,2.441,0,0,1,2.428,2.428v4.465A2.507,2.507,0,0,1,40.4,182.993ZM35.491,171.5a1.215,1.215,0,0,0-1.2,1.2v7.781a1.215,1.215,0,0,0,1.2,1.2H40.4a1.215,1.215,0,0,0,1.2-1.2v-4.465a1.115,1.115,0,0,0-1.123-1.123H37.762a1.289,1.289,0,0,0-.313.053.66.66,0,0,1-.809-.444.381.381,0,0,1-.027-.183V171.5Zm0,0" transform="translate(-28.59 -147.98)"/>
      <path id="Trazado_902890" data-name="Trazado 902890" d="M66.813,115.176H64.619a.653.653,0,0,1,0-1.306,1.114,1.114,0,0,0,1.122-1.122V108.2a1.114,1.114,0,0,0-1.122-1.123H61.93a1.29,1.29,0,0,0-.313.053.66.66,0,0,1-.809-.444.381.381,0,0,1-.027-.183V94.81A2.636,2.636,0,0,1,63.392,92.2h3.421a2.636,2.636,0,0,1,2.611,2.611v4.178l-.209,14.465a.523.523,0,0,1-.079.287,2.579,2.579,0,0,1-2.323,1.436Zm-.027-1.306h.027a1.318,1.318,0,0,0,1.1-.6l.209-14.282V94.81A1.31,1.31,0,0,0,66.813,93.5H63.418a1.309,1.309,0,0,0-1.305,1.305v10.966h2.532a2.441,2.441,0,0,1,2.428,2.428v4.543a2.386,2.386,0,0,1-.288,1.122Zm1.776-.418" transform="translate(-52.758 -80.162)"/>
      <path id="Trazado_902891" data-name="Trazado 902891" d="M66.813,165.6H64.619a.653.653,0,1,1,0-1.305,1.114,1.114,0,0,0,1.122-1.122v-4.543a1.114,1.114,0,0,0-1.122-1.123H61.93a1.289,1.289,0,0,0-.313.053.66.66,0,0,1-.809-.444.381.381,0,0,1-.027-.183v-6.084a.647.647,0,0,1,.653-.653h7.285a.646.646,0,0,1,.653.653l-.183,13.029a.523.523,0,0,1-.079.287,2.512,2.512,0,0,1-2.3,1.436Zm-.027-1.305h.027a1.318,1.318,0,0,0,1.1-.6l.183-12.194H62.113v4.7h2.532a2.441,2.441,0,0,1,2.428,2.428v4.543a2.386,2.386,0,0,1-.288,1.122Zm0,0" transform="translate(-52.758 -130.59)"/>
      <path id="Trazado_902892" data-name="Trazado 902892" d="M56.128,205.6H53.412a2.44,2.44,0,0,1-2.428-2.428v-4.543a2.44,2.44,0,0,1,2.428-2.428h2.716a2.441,2.441,0,0,1,2.428,2.428v4.543A2.441,2.441,0,0,1,56.128,205.6ZM53.412,197.5a1.114,1.114,0,0,0-1.122,1.123v4.543a1.114,1.114,0,0,0,1.122,1.122h2.716a1.115,1.115,0,0,0,1.123-1.122v-4.543a1.115,1.115,0,0,0-1.123-1.123Zm0,0" transform="translate(-44.24 -170.585)"/>
      <path id="Trazado_902893" data-name="Trazado 902893" d="M57.9,200.638H51.637a.646.646,0,0,1-.653-.653v-1.357a2.441,2.441,0,0,1,2.428-2.428h2.716a2.441,2.441,0,0,1,2.428,2.428v1.357a.647.647,0,0,1-.653.653Zm-5.614-1.306H57.25v-.7a1.115,1.115,0,0,0-1.123-1.123H53.412a1.114,1.114,0,0,0-1.122,1.123Zm0,0" transform="translate(-44.24 -170.585)"/>
    </g>
  </g>
</svg>
