<svg xmlns="http://www.w3.org/2000/svg" xmlns:xlink="http://www.w3.org/1999/xlink" width="129" height="129" viewBox="0 0 129 129">
  <defs>
    <radialGradient id="radial-gradient" cx="0.5" cy="0.5" r="0.5" gradientUnits="objectBoundingBox">
      <stop offset="0" stop-color="#fff"/>
      <stop offset="1" stop-color="#fff7ea"/>
    </radialGradient>
  </defs>
  <g id="Grupo_1106815" data-name="Grupo 1106815" transform="translate(-2653 9067)">
    <g id="Grupo_1106810" data-name="Grupo 1106810" transform="translate(1601.429 -13230)">
      <g id="Grupo_1106777" data-name="Grupo 1106777" transform="translate(626)">
        <g id="Elipse_12307" data-name="Elipse 12307" transform="translate(440.571 4178)" stroke="#fff" stroke-width="2" fill="url(#radial-gradient)">
          <circle cx="49.5" cy="49.5" r="49.5" stroke="none"/>
          <circle cx="49.5" cy="49.5" r="48.5" fill="none"/>
        </g>
        <g id="Elipse_12308" data-name="Elipse 12308" transform="translate(425.571 4163)" fill="none" stroke="#fff0d6" stroke-width="10" opacity="0.43">
          <circle cx="64.5" cy="64.5" r="64.5" stroke="none"/>
          <circle cx="64.5" cy="64.5" r="59.5" fill="none"/>
        </g>
      </g>
    </g>
    <g id="_050-map" data-name="050-map" transform="translate(2688.001 -9030.398)">
      <path id="Trazado_902921" data-name="Trazado 902921" d="M62.46,33.165a2.347,2.347,0,0,0-1.968-.509L43.08,35.9,25.761,32.655a2.816,2.816,0,0,0-.88,0L7.145,35.99A2.362,2.362,0,0,0,5.2,38.328V78.477a2.381,2.381,0,0,0,2.385,2.385,2.855,2.855,0,0,0,.44-.046l17.3-3.242L42.64,80.816a2.813,2.813,0,0,0,.88,0l17.852-3.334a2.38,2.38,0,0,0,1.945-2.338V34.994a2.453,2.453,0,0,0-.857-1.829Zm0,0" transform="translate(-4.599 -28.483)" fill="#e9e9ea"/>
      <path id="Trazado_902922" data-name="Trazado 902922" d="M196.758,35.889l-17.319-3.242A2.849,2.849,0,0,0,179,32.6V77.566l17.319,3.242a2.843,2.843,0,0,0,.44.046Zm0,0" transform="translate(-158.277 -28.475)" fill="#bbbbbf"/>
      <path id="Trazado_902923" data-name="Trazado 902923" d="M350.251,93.348,332.4,96.683V56.533L350.251,53.2Zm0,0" transform="translate(-293.918 -46.688)" fill="#c17c4d"/>
      <path id="Trazado_902924" data-name="Trazado 902924" d="M196.759,96.683,179,93.348V53.2l17.759,3.334Zm0,0" transform="translate(-158.278 -46.688)" fill="#b26e3b"/>
      <path id="Trazado_902925" data-name="Trazado 902925" d="M43.537,93.348,25.8,96.683V56.533L43.537,53.2Zm0,0" transform="translate(-22.815 -46.688)" fill="#c17c4d"/>
      <path id="Trazado_902926" data-name="Trazado 902926" d="M332.222,307.913A13.066,13.066,0,0,0,341.3,311.2a27.949,27.949,0,0,0,8.752-1.644V306.64c-11,4.029-14.911.625-17.852-2.64v3.913Zm0,0" transform="translate(-293.741 -268.454)" fill="#898989"/>
      <path id="Trazado_902927" data-name="Trazado 902927" d="M69.532,83.23a14.249,14.249,0,0,0-2.894-1A10.9,10.9,0,0,1,58.95,75.4,15.993,15.993,0,0,1,57.932,72l-2.732.509a20.857,20.857,0,0,0,1.158,3.89,13.652,13.652,0,0,0,9.632,8.521,10.234,10.234,0,0,1,3.543,1.505Zm0,0" transform="translate(-48.81 -63.312)" fill="#898989"/>
      <path id="Trazado_902928" data-name="Trazado 902928" d="M196.38,183.781c-1.389-1.574-2.709-3.079-4.608-3.473a9.924,9.924,0,0,1-3.936-1.621l-.625.764-2.477-3.01a3.184,3.184,0,0,1-.625-2.964A11.084,11.084,0,0,0,179.2,168.8V172a11.132,11.132,0,0,1,3.2,4.075,16.523,16.523,0,0,0,2.64,3.843c.463,1.968.579,5.626-1.227,12.2a20.56,20.56,0,0,1-1.575,4.006l2.825.532a22.714,22.714,0,0,0,1.412-3.8,36.914,36.914,0,0,0,1.6-10.836,14.46,14.46,0,0,0,3.126,1c1.019.208,1.968,1.32,3.1,2.593a29.667,29.667,0,0,0,2.663,2.732v-3.936a7.36,7.36,0,0,1-.579-.625Zm0,0" transform="translate(-158.455 -148.906)" fill="#6d6c6b"/>
      <path id="Trazado_902929" data-name="Trazado 902929" d="M180.644,287.171A3.124,3.124,0,0,1,179,286.8v5.858C182.936,291.455,182.959,287.171,180.644,287.171Zm0,0" transform="translate(-158.278 -253.245)" fill="#6dcc6d"/>
      <path id="Trazado_902930" data-name="Trazado 902930" d="M41.476,175.822c-2.778-1.621-3.01,2.084-6.252.926s2.315-7.409-3.936-8.335A8.2,8.2,0,0,1,25.8,164.8v30.563l14.4-2.709a4.909,4.909,0,0,0-.116-3.172c-1.158-2.315-.463-3.473,3.45-4.677v-5.858c-1.343-.787-1.088-2.547-2.061-3.126Zm0,0" transform="translate(-22.815 -145.369)" fill="#88e288"/>
      <path id="Trazado_902931" data-name="Trazado 902931" d="M350.251,53.2,332.4,56.533V70.657c1.667-1.088,3.057-2.177,5.418-.926,3.473,1.852-.463,6.946,5.557,6.946,3.1,0,3.8,4.631,6.877,3.4Zm0,0" transform="translate(-293.918 -46.688)" fill="#88e288"/>
      <path id="Trazado_902932" data-name="Trazado 902932" d="M179,61.234c1.575,1.574,2.2,4.1,6.969,4.1,4.631,0,2.338,6.252,5.789,6.715a6.767,6.767,0,0,0,5-1.389V56.534L179,53.2Zm0,0" transform="translate(-158.278 -46.688)" fill="#6dcc6d"/>
      <path id="Trazado_902933" data-name="Trazado 902933" d="M120.245,60.007a4.23,4.23,0,0,1,3.219,1.227V53.2l-7.27,1.366c-.023,2.038.486,5.441,4.052,5.441Zm0,0" transform="translate(-102.742 -46.688)" fill="#88e288"/>
      <path id="Trazado_902934" data-name="Trazado 902934" d="M223.617,189.2a3.223,3.223,0,0,0-2.477,5.279l2.477,3.01,2.478-3.01a3.21,3.21,0,0,0-.44-4.538,3.108,3.108,0,0,0-2.038-.741Zm0,0" transform="translate(-194.884 -166.943)" fill="#ea4647"/>
      <path id="Trazado_902935" data-name="Trazado 902935" d="M239.746,207.273A1.273,1.273,0,1,1,238.472,206,1.274,1.274,0,0,1,239.746,207.273Zm0,0" transform="translate(-209.739 -181.799)" fill="#b26e3b"/>
      <path id="Trazado_902936" data-name="Trazado 902936" d="M58.5,297.052l.926-.37L57.131,293l-2.269,3.682.9.37-1.366,2.2h5.488Zm0,0" transform="translate(-48.102 -258.727)" fill="#6dcc6d"/>
      <path id="Trazado_902937" data-name="Trazado 902937" d="M356.5,103.052l.926-.37L355.131,99l-2.269,3.682.9.37-1.366,2.2h5.488Zm0,0" transform="translate(-311.602 -87.186)" fill="#6dcc6d"/>
      <path id="Trazado_902938" data-name="Trazado 902938" d="M387.07,58.849c4.909,1.019,2.594,6.506,7.572,7.247V53.2L382.6,55.446a6.78,6.78,0,0,0,4.468,3.4Zm0,0" transform="translate(-338.308 -46.688)" fill="#55acd5"/>
      <path id="Trazado_902939" data-name="Trazado 902939" d="M322.172,1.394h-.417V.977a.579.579,0,0,0-1.158,0v.417h-.417a.579.579,0,1,0,0,1.158h.417v.417a.579.579,0,0,0,1.158,0V2.552h.417a.579.579,0,1,0,0-1.158Zm0,0" transform="translate(-282.602)" fill="#6dcc6d"/>
      <path id="Trazado_902940" data-name="Trazado 902940" d="M280.779,18.708c0-.046-.023-.069-.023-.116-.023-.023-.023-.069-.046-.093s-.047-.069-.07-.092a.6.6,0,0,0-.81,0,.319.319,0,0,0-.069.092.818.818,0,0,0-.093.208.4.4,0,0,0,0,.232c0,.047.023.07.023.116.023.047.023.07.046.093s.047.07.07.093a.559.559,0,0,0,.81,0,.331.331,0,0,0,.07-.093.176.176,0,0,0,.046-.093.174.174,0,0,0,.023-.116A.272.272,0,0,0,280.779,18.708Zm0,0" transform="translate(-247.277 -15.786)" fill="#55acd5"/>
      <path id="Trazado_902941" data-name="Trazado 902941" d="M112.779,467.328c0-.047-.023-.07-.023-.116-.023-.023-.023-.07-.046-.093s-.047-.07-.07-.093a.58.58,0,0,0-.81.023.328.328,0,0,0-.069.093.811.811,0,0,0-.093.208.4.4,0,0,0,0,.232c0,.046.023.07.023.116.023.046.023.07.046.093s.047.069.07.093a.559.559,0,0,0,.81,0,.337.337,0,0,0,.07-.093.176.176,0,0,0,.046-.093.174.174,0,0,0,.023-.116A.325.325,0,0,0,112.779,467.328Zm0,0" transform="translate(-98.726 -412.47)" fill="#ea4647"/>
      <path id="Trazado_902942" data-name="Trazado 902942" d="M166.077,440.58a2.326,2.326,0,0,1-1.829-1.829c0-.023-.023-.046-.046-.023a.023.023,0,0,0-.024.023,2.325,2.325,0,0,1-1.829,1.829c-.024,0-.047.023-.024.046a.023.023,0,0,0,.024.023,2.325,2.325,0,0,1,1.829,1.829c0,.023.024.047.047.023a.023.023,0,0,0,.023-.023,2.326,2.326,0,0,1,1.829-1.829c.023,0,.046-.023.023-.046A.023.023,0,0,0,166.077,440.58Zm0,0" transform="translate(-143.526 -387.576)" fill="#ffcd29"/>
      <path id="Trazado_902943" data-name="Trazado 902943" d="M21.38,92.915a.573.573,0,0,1-.579-.579V52.187a.619.619,0,0,1,.463-.579L39.023,48.3a.551.551,0,0,1,.672.463V89.025a.618.618,0,0,1-.463.579L21.5,92.938a.21.21,0,0,0-.116-.023Zm.579-40.242V91.642l16.578-3.1V49.548ZM39.116,89" transform="translate(-18.394 -42.342)"/>
      <path id="Trazado_902944" data-name="Trazado 902944" d="M327.977,92.739a.573.573,0,0,1-.579-.579V52.011a.619.619,0,0,1,.463-.579L345.713,48.1a.55.55,0,0,1,.671.463V88.826a.618.618,0,0,1-.463.579L328.07,92.739Zm.579-40.242V91.465l16.694-3.1V49.371Zm17.273,36.329" transform="translate(-289.496 -42.165)"/>
      <path id="Trazado_902945" data-name="Trazado 902945" d="M38.481,76.965a4.509,4.509,0,0,1-.555-.046L20.7,73.7,3.5,76.919A2.943,2.943,0,0,1,0,74.024V33.852a2.977,2.977,0,0,1,2.408-2.917L20.143,27.6a2.859,2.859,0,0,1,1.088,0l17.227,3.219,17.3-3.219a2.943,2.943,0,0,1,3.5,2.894V70.644a2.956,2.956,0,0,1-2.431,2.917L38.967,76.9a1.449,1.449,0,0,1-.487.069ZM20.722,72.519h.116l17.319,3.242a1.644,1.644,0,0,0,.671,0L56.68,72.427a1.812,1.812,0,0,0,1.482-1.783V30.518a1.81,1.81,0,0,0-2.13-1.783L38.62,31.977a.323.323,0,0,1-.208,0L21.092,28.735a1.631,1.631,0,0,0-.672,0L2.662,32.069A1.812,1.812,0,0,0,1.18,33.852V74a1.81,1.81,0,0,0,2.13,1.783l17.3-3.242a.253.253,0,0,1,.116-.023Zm0,0" transform="translate(0 -24.007)"/>
      <path id="Trazado_902946" data-name="Trazado 902946" d="M192.513,77.012a3.811,3.811,0,0,1-.532-.046l-17.319-3.242a.575.575,0,0,1-.463-.579V28.18a.573.573,0,0,1,.579-.579,4.515,4.515,0,0,1,.556.046l17.319,3.242a.574.574,0,0,1,.463.579V76.433A.609.609,0,0,1,192.513,77.012Zm-17.18-4.353,16.6,3.1V31.954l-16.6-3.1Zm0,0" transform="translate(-154.032 -24.054)"/>
      <path id="Trazado_902947" data-name="Trazado 902947" d="M192.514,92.84H192.4l-17.736-3.334a.575.575,0,0,1-.463-.579V48.778a.573.573,0,0,1,.579-.579h.116l17.736,3.334a.574.574,0,0,1,.463.579V92.262a.573.573,0,0,1-.579.579Zm-17.18-4.4,16.6,3.1V52.6l-16.6-3.126Zm0,0" transform="translate(-154.033 -42.267)"/>
      <path id="Trazado_902948" data-name="Trazado 902948" d="M337.077,306.983a13.716,13.716,0,0,1-9.47-3.427.658.658,0,0,1-.208-.44V299.18a.573.573,0,0,1,.579-.579.632.632,0,0,1,.44.185c2.362,2.617,5.927,6.6,17.2,2.478a.575.575,0,0,1,.741.347.677.677,0,0,1,.047.208v2.918a.6.6,0,0,1-.394.555,28.009,28.009,0,0,1-8.937,1.69Zm-8.521-4.122a12.527,12.527,0,0,0,8.5,2.964,27.346,27.346,0,0,0,8.173-1.482v-1.69c-9.4,3.242-13.707.949-16.694-1.992v2.2Zm0,0" transform="translate(-289.496 -263.68)"/>
      <path id="Trazado_902949" data-name="Trazado 902949" d="M64.832,82.658a.556.556,0,0,1-.324-.116,9.788,9.788,0,0,0-3.357-1.413A14.269,14.269,0,0,1,51.1,72.262a21.918,21.918,0,0,1-1.2-3.983.55.55,0,0,1,.463-.671l2.732-.51a.572.572,0,0,1,.671.463,16.326,16.326,0,0,0,1,3.288,10.359,10.359,0,0,0,7.294,6.483,13.622,13.622,0,0,1,3.01,1.042.564.564,0,0,1,.324.532v3.2a.535.535,0,0,1-.556.556ZM51.171,68.626a19.688,19.688,0,0,0,1.019,3.2,13.141,13.141,0,0,0,9.239,8.2,11.8,11.8,0,0,1,2.825,1.042V79.254a13.27,13.27,0,0,0-2.454-.81,11.361,11.361,0,0,1-8.081-7.155,18.432,18.432,0,0,1-.949-2.963Zm0,0" transform="translate(-44.11 -58.966)"/>
      <path id="Trazado_902950" data-name="Trazado 902950" d="M180.46,193.012h-.116l-2.825-.533a.573.573,0,0,1-.463-.672.431.431,0,0,1,.047-.162,19.971,19.971,0,0,0,1.528-3.89c1.737-6.367,1.644-9.887,1.25-11.762a17.166,17.166,0,0,1-2.617-3.844,10.619,10.619,0,0,0-3.01-3.89A.564.564,0,0,1,174,167.8v-3.219a.573.573,0,0,1,.579-.579.987.987,0,0,1,.255.046,11.509,11.509,0,0,1,5.14,4.909.542.542,0,0,1,.046.463,2.582,2.582,0,0,0,.509,2.431l2.061,2.454.185-.232a.576.576,0,0,1,.787-.093,9.551,9.551,0,0,0,3.7,1.528c2.107.44,3.473,1.992,4.932,3.659.185.208.37.417.579.648a.628.628,0,0,1,.139.393v3.936a.573.573,0,0,1-.579.579.525.525,0,0,1-.37-.139,27.931,27.931,0,0,1-2.709-2.778c-1.019-1.158-1.968-2.223-2.778-2.408a14.961,14.961,0,0,1-2.408-.695,39.942,39.942,0,0,1-1.621,10.118,23.085,23.085,0,0,1-1.459,3.89.667.667,0,0,1-.532.3Zm-1.968-1.552,1.644.3a24.283,24.283,0,0,0,1.2-3.288,36.441,36.441,0,0,0,1.575-10.651.573.573,0,0,1,.556-.6.821.821,0,0,1,.255.047,13.8,13.8,0,0,0,3.01.949c1.2.255,2.223,1.412,3.427,2.778.486.556,1.042,1.181,1.644,1.783v-2.385l-.417-.487c-1.32-1.505-2.57-2.917-4.307-3.288a11.073,11.073,0,0,1-3.7-1.412l-.3.347a.57.57,0,0,1-.44.208.538.538,0,0,1-.44-.208l-2.478-3.01a3.729,3.729,0,0,1-.787-3.242,10.3,10.3,0,0,0-3.7-3.8v1.945a11.816,11.816,0,0,1,3.1,4.1,15.818,15.818,0,0,0,2.547,3.7.556.556,0,0,1,.162.278c.463,1.968.625,5.719-1.227,12.48a30.412,30.412,0,0,1-1.32,3.45Zm0,0" transform="translate(-153.857 -144.661)"/>
      <path id="Trazado_902951" data-name="Trazado 902951" d="M72.778,345.778a.573.573,0,0,1-.579-.579v-1.621a.579.579,0,0,1,1.158,0V345.2A.573.573,0,0,1,72.778,345.778Zm0,0" transform="translate(-63.842 -302.939)"/>
      <path id="Trazado_902952" data-name="Trazado 902952" d="M370.778,151.778a.573.573,0,0,1-.579-.579v-1.621a.579.579,0,1,1,1.158,0V151.2A.573.573,0,0,1,370.778,151.778Zm0,0" transform="translate(-327.342 -131.398)"/>
      <path id="Trazado_902953" data-name="Trazado 902953" d="M174.579,289.016a.573.573,0,0,1-.579-.579v-5.858a.573.573,0,0,1,.579-.579.546.546,0,0,1,.278.07,2.7,2.7,0,0,0,1.343.278,2.109,2.109,0,0,1,2.107,1.922c.255,1.713-.88,3.867-3.566,4.723C174.695,288.993,174.648,289.016,174.579,289.016Zm.579-5.627v4.168a3.216,3.216,0,0,0,2.014-3.126.963.963,0,0,0-.972-.926A4.1,4.1,0,0,1,175.158,283.39Zm0,0" transform="translate(-153.857 -249.001)"/>
      <path id="Trazado_902954" data-name="Trazado 902954" d="M21.38,191.522a.573.573,0,0,1-.579-.579V160.38a.573.573,0,0,1,.579-.579.535.535,0,0,1,.463.255,7.619,7.619,0,0,0,5.094,3.38c4.191.625,3.751,3.612,3.473,5.58-.255,1.713-.255,2.478.579,2.778a2.568,2.568,0,0,0,2.755-.555,2.774,2.774,0,0,1,4.7,1.32,2.448,2.448,0,0,0,.973,1.482.575.575,0,0,1,.3.509v5.858a.57.57,0,0,1-.416.556c-2.061.648-3.172,1.25-3.473,1.945a2.364,2.364,0,0,0,.347,1.922,5.328,5.328,0,0,1,.162,3.566.569.569,0,0,1-.463.44l-14.4,2.709c-.024-.023-.047-.023-.093-.023ZM21.959,162v28.248l13.337-2.5a4.006,4.006,0,0,0-.139-2.408,3.407,3.407,0,0,1-.394-2.894c.44-1,1.529-1.737,3.774-2.477v-5.117a3.683,3.683,0,0,1-1.181-1.9,2.094,2.094,0,0,0-.579-1.042c-1.089-.625-1.552-.278-2.338.278a3.662,3.662,0,0,1-3.8.695c-1.806-.648-1.552-2.524-1.32-4.029.347-2.362.394-3.843-2.5-4.283A8.271,8.271,0,0,1,21.958,162Zm0,0" transform="translate(-18.394 -140.948)"/>
      <path id="Trazado_902955" data-name="Trazado 902955" d="M345.189,75.992c-1.32,0-2.246-.972-3.056-1.875-.834-.9-1.621-1.76-2.8-1.76-3.982,0-4.214-2.223-4.376-3.983-.139-1.273-.232-2.385-1.436-3.033-1.922-1.019-3.01-.3-4.515.695l-.3.185a.591.591,0,0,1-.81-.162.529.529,0,0,1-.093-.324V51.611a.618.618,0,0,1,.463-.579L346.116,47.7a.551.551,0,0,1,.672.463v27a.571.571,0,0,1-.37.533,2.6,2.6,0,0,1-1.227.3ZM331.76,63.721a4.905,4.905,0,0,1,2.269.625c1.76.926,1.921,2.593,2.06,3.936.185,1.783.3,2.94,3.242,2.94,1.69,0,2.732,1.135,3.659,2.107.972,1.065,1.621,1.69,2.64,1.459V49.018l-16.694,3.1V64.693A5.18,5.18,0,0,1,331.76,63.721Zm0,0" transform="translate(-289.852 -41.812)"/>
      <path id="Trazado_902956" data-name="Trazado 902956" d="M188.439,68.274a7.216,7.216,0,0,1-1-.07c-1.968-.278-2.408-2.014-2.825-3.566-.509-1.945-.926-3.149-2.894-3.149-4.029,0-5.395-1.783-6.483-3.2-.278-.37-.579-.718-.88-1.065a.558.558,0,0,1-.162-.417V48.779a.573.573,0,0,1,.579-.579h.116l17.736,3.334a.574.574,0,0,1,.463.579V66.237a.6.6,0,0,1-.255.486,7.727,7.727,0,0,1-4.4,1.552ZM175.334,56.582c.3.324.556.671.81,1,1.088,1.412,2.107,2.755,5.557,2.755,2.964,0,3.543,2.223,4.006,4.029.417,1.574.718,2.547,1.852,2.709a6.031,6.031,0,0,0,4.353-1.135V52.6l-16.578-3.126Zm0,0" transform="translate(-154.033 -42.267)"/>
      <path id="Trazado_902957" data-name="Trazado 902957" d="M118.872,57.49a.666.666,0,0,1-.417-.162,3.586,3.586,0,0,0-2.825-1.065,4.207,4.207,0,0,1-3.1-1.181A6.956,6.956,0,0,1,111,50.242a.572.572,0,0,1,.463-.556L118.78,48.3a.551.551,0,0,1,.672.463v8.15a.588.588,0,0,1-.579.579Zm-6.692-6.784a5.415,5.415,0,0,0,1.181,3.543,3.062,3.062,0,0,0,2.292.833,5.233,5.233,0,0,1,2.64.625V49.548Zm0,0" transform="translate(-98.15 -42.342)"/>
      <path id="Trazado_902958" data-name="Trazado 902958" d="M219.24,193.515a.539.539,0,0,1-.44-.208l-2.477-3.01a3.815,3.815,0,1,1,5.881,0l-2.478,3.01a.706.706,0,0,1-.486.208Zm0-8.289a2.648,2.648,0,0,0-2.037,4.33l2.037,2.477,2.038-2.477a2.638,2.638,0,0,0-2.038-4.33Zm0,0" transform="translate(-190.507 -162.391)"/>
      <path id="Trazado_902959" data-name="Trazado 902959" d="M234.051,204.7a1.852,1.852,0,1,1,1.852-1.852A1.858,1.858,0,0,1,234.051,204.7Zm0-2.547a.695.695,0,1,0,.695.695A.682.682,0,0,0,234.051,202.158Zm0,0" transform="translate(-205.318 -177.378)"/>
      <path id="Trazado_902960" data-name="Trazado 902960" d="M55.465,295.282H49.978a.573.573,0,0,1-.579-.579.468.468,0,0,1,.093-.3l1-1.621-.278-.116a.589.589,0,0,1-.324-.764c.023-.023.023-.07.046-.093l2.269-3.682a.569.569,0,0,1,.787-.185.7.7,0,0,1,.185.185l2.292,3.682a.565.565,0,0,1-.185.787c-.023.023-.046.023-.093.046l-.278.116,1,1.621a.565.565,0,0,1-.185.787.271.271,0,0,1-.255.116Zm-4.446-1.158h3.4l-.81-1.32a.564.564,0,0,1,.185-.787c.024-.023.047-.023.093-.047l.278-.116-1.436-2.292L51.3,291.855l.278.116a.589.589,0,0,1,.324.764c-.023.023-.023.07-.046.093Zm0,0" transform="translate(-43.681 -254.179)"/>
      <path id="Trazado_902961" data-name="Trazado 902961" d="M353.645,101.282h-5.464a.573.573,0,0,1-.579-.579.467.467,0,0,1,.092-.3l1-1.621-.278-.116a.589.589,0,0,1-.324-.764c.023-.023.023-.07.046-.093l2.269-3.682a.569.569,0,0,1,.787-.185.7.7,0,0,1,.185.185l2.292,3.682a.565.565,0,0,1-.185.787c-.023.023-.046.023-.092.046l-.278.116,1,1.621a.565.565,0,0,1-.185.787A.336.336,0,0,1,353.645,101.282Zm-4.446-1.158h3.4l-.81-1.32a.565.565,0,0,1,.185-.787c.024-.023.047-.023.093-.047l.278-.116-1.436-2.292-1.435,2.292.278.116a.589.589,0,0,1,.324.764c-.023.023-.023.07-.046.093Zm0,0" transform="translate(-307.361 -82.638)"/>
      <path id="Trazado_902962" data-name="Trazado 902962" d="M390.141,62.329h-.093c-2.848-.417-3.612-2.269-4.284-3.913-.648-1.552-1.181-2.894-3.311-3.334a7.413,7.413,0,0,1-4.862-3.682.572.572,0,0,1,.208-.787c.07-.023.116-.069.185-.069l12.04-2.246a.551.551,0,0,1,.671.463V61.773a.535.535,0,0,1-.555.556ZM379.05,51.516a6.01,6.01,0,0,0,3.635,2.431c2.732.579,3.5,2.408,4.145,4.029.579,1.389,1.065,2.593,2.709,3.08V49.548Zm0,0" transform="translate(-333.808 -42.342)"/>
    </g>
  </g>
</svg>
