<svg xmlns="http://www.w3.org/2000/svg" xmlns:xlink="http://www.w3.org/1999/xlink" width="129" height="129" viewBox="0 0 129 129">
  <defs>
    <radialGradient id="radial-gradient" cx="0.5" cy="0.5" r="0.5" gradientUnits="objectBoundingBox">
      <stop offset="0" stop-color="#fff"/>
      <stop offset="1" stop-color="#fff7ea"/>
    </radialGradient>
  </defs>
  <g id="Grupo_1106785" data-name="Grupo 1106785" transform="translate(-736.571 -4163)">
    <g id="Grupo_1106776" data-name="Grupo 1106776" transform="translate(311)">
      <g id="Elipse_12307" data-name="Elipse 12307" transform="translate(440.571 4178)" stroke="#fff" stroke-width="2" fill="url(#radial-gradient)">
        <circle cx="49.5" cy="49.5" r="49.5" stroke="none"/>
        <circle cx="49.5" cy="49.5" r="48.5" fill="none"/>
      </g>
      <g id="Elipse_12308" data-name="Elipse 12308" transform="translate(425.571 4163)" fill="none" stroke="#fff0d6" stroke-width="10" opacity="0.43">
        <circle cx="64.5" cy="64.5" r="64.5" stroke="none"/>
        <circle cx="64.5" cy="64.5" r="59.5" fill="none"/>
      </g>
    </g>
    <g id="Layer_x0020_1" transform="translate(773.571 4184.434)">
      <path id="Trazado_902818" data-name="Trazado 902818" d="M25.688,36.138a28.178,28.178,0,0,1-3.969-3.808,1.294,1.294,0,0,1,1.969-1.678,24.421,24.421,0,0,0,4.389,4.034c.581-1.775-.645-4.679-1.807-6.261-1.936-2.614-6.132-4.228-7.584-8.713a12.073,12.073,0,0,0-1.42,10.262c2.1,5.1,5.325,6.2,7.681,6.2C25.2,36.17,25.462,36.138,25.688,36.138Zm1.839,33.5A27.553,27.553,0,0,1,0,42.108a1.3,1.3,0,0,1,1.291-1.291H26.85a7.151,7.151,0,0,1-.129-2.227c-3.776.71-8.972-.645-11.876-7.681-.161-.387-3.034-8.972,3.873-15.039a1.323,1.323,0,0,1,2.162,1c-.1,5.228,5.518,6.809,8,10.843,2.227-2.485,5.97-4.066,5.906-7.907a1.323,1.323,0,0,1,2.162-1c6,5.293,3.518,12.747,3.356,13.1-2.517,6.132-6.842,7.1-9.843,6.777a10.606,10.606,0,0,1-1.162-.226,5.218,5.218,0,0,0,.258,2.356h24.2a1.3,1.3,0,0,1,1.291,1.323A27.546,27.546,0,0,1,27.528,69.636ZM2.614,43.4A24.826,24.826,0,0,0,8.875,58.7l2.259-2.9a1.306,1.306,0,0,1,1.323-.452l4.712,1.13L23.2,55.63a1.287,1.287,0,0,1,.355,2.549c-.968.129-6.261,1-6.777.871l-4.1-1-1.969,2.485A24.372,24.372,0,0,0,17.2,64.827c.29.032,5.454-1.71,6.164-1.71h3.292l-.581-2.872a1.2,1.2,0,0,1,.323-1.13L28.851,56.5a1.29,1.29,0,0,1,1.872,1.775l-2,2.13L29.5,64.15A1.3,1.3,0,0,1,28.238,65.7H23.558l-2.162.613a25.13,25.13,0,0,0,22.945-5.777L42.405,58.05l-4.131,1a1.292,1.292,0,0,1-.581-2.517L42.6,55.339a1.265,1.265,0,0,1,1.323.452l2.259,2.872a24.86,24.86,0,0,0,6.1-13.231L46.246,51.4a1.266,1.266,0,0,1-1.485.226l-4.679-2.291c-2.1.936-8.584,3.84-9.2,4.066-1.033.42-2.808-.484-8.358-4.1L14.2,51.338a1.352,1.352,0,0,1-1-.194L7.552,47.53a1.285,1.285,0,1,1,1.388-2.162L14.1,48.691l8.358-2.033a1.382,1.382,0,0,1,1,.194,71.622,71.622,0,0,0,6.809,4.034c1.355-.581,6.1-2.711,9.294-4.131a1.3,1.3,0,0,1,1.1,0l4.421,2.162L50.635,43.4Zm7.519-9.617c-.742,0-1.452-.871-1.872-1.323-2.453.355-6.228-1.355-6.906-6.648-.032-.29-.387-5.97,4.809-8.552a1.3,1.3,0,0,1,1.807,1.517c-.742,2.549,1.839,4.357,2.679,6.551.678,1.775.9,4.2-.129,5.744a5.962,5.962,0,0,0,.452.452A1.291,1.291,0,0,1,10.133,33.782Zm-6.2-8.229a4.986,4.986,0,0,0,1.936,3.776c-.516-.871-1.646-2.549-.161-3.227a1.3,1.3,0,0,1,1.71.645A13.014,13.014,0,0,0,8.617,28.78c.355-3.292-2.42-4.615-3.195-7.745A6.963,6.963,0,0,0,3.937,25.552ZM41.6,39.042a1.286,1.286,0,0,1-.226-2.549c.226-.065.42-.1.645-.161-.161-2.1,1.614-4.131,2.711-5.034,1.839-1.485,4.97-1.775,5.615-4.357a1.294,1.294,0,0,1,2.324-.387c3.195,4.809.065,9.585-.1,9.811-2.13,2.775-4.357,3.356-5.873,3.356a5.91,5.91,0,0,1-3.453-1.065A5.872,5.872,0,0,1,41.6,39.042ZM51.409,30.2c-2.194,2.324-5.26,2.065-6.616,5.1a15.193,15.193,0,0,0,2.033-1.162,1.285,1.285,0,0,1,1.485,2.1,11.873,11.873,0,0,1-1.452.9C49.344,37.009,52.087,33.911,51.409,30.2ZM30.271,36.041a2.492,2.492,0,0,0,.484.065c2.194.258,5.228-.42,7.164-5.131a10.4,10.4,0,0,0-1.033-8.326c-1.452,3.9-5.034,4.97-6.713,7.681A7.62,7.62,0,0,1,30.271,36.041Z" fill="#000002" fill-rule="evenodd"/>
      <path id="Trazado_902819" data-name="Trazado 902819" d="M118.468,883.938c-2.1.936-8.584,3.84-9.2,4.066-1.033.42-2.808-.484-8.358-4.1l-8.326,2.033a1.352,1.352,0,0,1-1-.194l-5.648-3.615a1.285,1.285,0,1,1,1.388-2.162l5.163,3.324,8.358-2.033a1.382,1.382,0,0,1,1,.194,71.627,71.627,0,0,0,6.809,4.034c1.355-.581,6.1-2.711,9.294-4.131a1.3,1.3,0,0,1,1.1,0l4.421,2.162L129.021,878H81a24.826,24.826,0,0,0,6.261,15.3l2.259-2.9a1.306,1.306,0,0,1,1.323-.452l4.712,1.13,6.035-.839a1.287,1.287,0,0,1,.355,2.549c-.968.129-6.261,1-6.777.871l-4.1-1L89.1,895.136a24.374,24.374,0,0,0,6.487,4.292c.29.032,5.454-1.71,6.164-1.71h3.292l-.581-2.872a1.2,1.2,0,0,1,.323-1.13l2.453-2.614a1.29,1.29,0,0,1,1.872,1.775l-2,2.13.775,3.744a1.3,1.3,0,0,1-1.259,1.549h-4.679l-2.162.613a25.13,25.13,0,0,0,22.945-5.777l-1.936-2.485-4.131,1a1.292,1.292,0,0,1-.581-2.517l4.905-1.194a1.265,1.265,0,0,1,1.323.452l2.259,2.872a24.86,24.86,0,0,0,6.1-13.231L124.632,886a1.266,1.266,0,0,1-1.484.226Z" transform="translate(-78.386 -834.601)" fill="#814913" fill-rule="evenodd"/>
      <g id="Grupo_1106784" data-name="Grupo 1106784" transform="translate(3.928 19.711)">
        <path id="Trazado_902820" data-name="Trazado 902820" d="M935.581,248.457c2.195.258,5.228-.42,7.164-5.131A10.4,10.4,0,0,0,941.713,235c-1.452,3.9-5.034,4.97-6.713,7.681a7.62,7.62,0,0,1,.1,5.712A2.492,2.492,0,0,0,935.581,248.457Z" transform="translate(-908.754 -232.063)" fill="#7ed63f" fill-rule="evenodd"/>
        <path id="Trazado_902821" data-name="Trazado 902821" d="M528.976,158.974c.581-1.775-.645-4.679-1.807-6.261-1.936-2.614-6.132-4.228-7.584-8.713a12.073,12.073,0,0,0-1.42,10.262c2.1,5.1,5.325,6.2,7.681,6.2.258,0,.516-.032.742-.032a28.177,28.177,0,0,1-3.969-3.808,1.294,1.294,0,0,1,1.969-1.678A24.42,24.42,0,0,0,528.976,158.974Z" transform="translate(-504.827 -144)" fill="#7ed63f" fill-rule="evenodd"/>
        <path id="Trazado_902822" data-name="Trazado 902822" d="M126.4,192.745c.355-3.292-2.42-4.615-3.195-7.745a6.963,6.963,0,0,0-1.485,4.518,4.986,4.986,0,0,0,1.936,3.776c-.516-.871-1.646-2.549-.161-3.227a1.3,1.3,0,0,1,1.71.645A13.014,13.014,0,0,0,126.4,192.745Z" transform="translate(-121.714 -183.677)" fill="#7ed63f" fill-rule="evenodd"/>
        <path id="Trazado_902823" data-name="Trazado 902823" d="M1394.616,469c-2.194,2.324-5.26,2.065-6.616,5.1a15.2,15.2,0,0,0,2.033-1.162,1.285,1.285,0,0,1,1.484,2.1,11.865,11.865,0,0,1-1.452.9C1392.55,475.809,1395.293,472.711,1394.616,469Z" transform="translate(-1347.135 -458.512)" fill="#7ed63f" fill-rule="evenodd"/>
      </g>
    </g>
  </g>
</svg>
