<svg xmlns="http://www.w3.org/2000/svg" xmlns:xlink="http://www.w3.org/1999/xlink" width="129" height="129" viewBox="0 0 129 129">
  <defs>
    <radialGradient id="radial-gradient" cx="0.5" cy="0.5" r="0.5" gradientUnits="objectBoundingBox">
      <stop offset="0" stop-color="#fff"/>
      <stop offset="1" stop-color="#fff7ea"/>
    </radialGradient>
  </defs>
  <g id="Grupo_1106782" data-name="Grupo 1106782" transform="translate(-421.571 -4163)">
    <g id="Grupo_1106478" data-name="Grupo 1106478" transform="translate(-4)">
      <g id="Elipse_12307" data-name="Elipse 12307" transform="translate(440.571 4178)" stroke="#fff" stroke-width="2" fill="url(#radial-gradient)">
        <circle cx="49.5" cy="49.5" r="49.5" stroke="none"/>
        <circle cx="49.5" cy="49.5" r="48.5" fill="none"/>
      </g>
      <g id="Elipse_12308" data-name="Elipse 12308" transform="translate(425.571 4163)" fill="none" stroke="#fff0d6" stroke-width="10" opacity="0.43">
        <circle cx="64.5" cy="64.5" r="64.5" stroke="none"/>
        <circle cx="64.5" cy="64.5" r="59.5" fill="none"/>
      </g>
    </g>
    <g id="temperature-sensor_11331728" transform="translate(457.571 4197)">
      <g id="Capa_1">
        <g id="Layer_1">
          <g id="Grupo_1106781" data-name="Grupo 1106781">
            <g id="Grupo_1106779" data-name="Grupo 1106779" transform="translate(2.268 0.878)">
              <path id="Trazado_902800" data-name="Trazado 902800" d="M24.23,17.665h0a3.094,3.094,0,0,1-2.8-3.878,3.1,3.1,0,0,1-4.56-1.488,3.135,3.135,0,0,1-4.56,1.488,3.117,3.117,0,0,1-2.8,3.878,3.085,3.085,0,0,1,0,4.78,3.094,3.094,0,0,1,2.8,3.878,3.1,3.1,0,0,1,4.56,1.488,3.135,3.135,0,0,1,4.56-1.488,3.117,3.117,0,0,1,2.8-3.878A3.085,3.085,0,0,1,24.23,17.665Z" transform="translate(-9.451 -10.178)" fill="#fee95d"/>
              <path id="Trazado_902801" data-name="Trazado 902801" d="M90.981,41.717v-31A7.129,7.129,0,0,0,83.86,3.6h0a7.129,7.129,0,0,0-7.121,7.121v31a11.557,11.557,0,1,0,18.681,9.1c0-6.389-1.731-7-4.438-9.1h0Z" transform="translate(-56.936 -3.6)" fill="#57758d"/>
              <path id="Trazado_902802" data-name="Trazado 902802" d="M98.56,104.588V84.2H91.438v20.388A8,8,0,0,0,87,111.758c0,3.146,3.585,8,8,8a8,8,0,0,0,8-8c0-4.414-1.8-5.853-4.438-7.17Z" transform="translate(-68.051 -64.544)" fill="#f88fa4"/>
              <path id="Trazado_902803" data-name="Trazado 902803" d="M97.044,117.784c-7.682-.073-9.852-9.1-3-12.559V84.3H91.435v20.388a8,8,0,1,0,10.145,11.706,8.062,8.062,0,0,1-4.536,1.414h0Z" transform="translate(-68.047 -64.619)" fill="#f05475"/>
              <path id="Trazado_902804" data-name="Trazado 902804" d="M108.761,18.7a3.549,3.549,0,0,0-3.561,3.561V34.7h7.121V22.261A3.565,3.565,0,0,0,108.761,18.7Z" transform="translate(-81.813 -15.018)" fill="#e3edf6"/>
              <path id="Trazado_902805" data-name="Trazado 902805" d="M110.053,18.944a3.38,3.38,0,0,0-1.293-.244,3.549,3.549,0,0,0-3.561,3.561V34.7h2.609V22.261A3.571,3.571,0,0,1,110.053,18.944Z" transform="translate(-81.813 -15.018)" fill="#c5d9ec"/>
              <path id="Trazado_902806" data-name="Trazado 902806" d="M19.908,32.269A8.066,8.066,0,0,1,11.836,24.2c0-4.463,0-.585.049-.878A3.117,3.117,0,0,1,9.3,25a3.085,3.085,0,0,1,0,4.78,3.094,3.094,0,0,1,2.8,3.878,3.1,3.1,0,0,1,4.56,1.488,3.135,3.135,0,0,1,4.56-1.488,3.27,3.27,0,0,1,0-1.536,8.068,8.068,0,0,1-1.341.122h0Z" transform="translate(-9.3 -17.539)" fill="#f7d700"/>
              <circle id="Elipse_12322" data-name="Elipse 12322" cx="2.658" cy="2.658" r="2.658" transform="translate(4.731 7.243)" fill="#f88fa4"/>
              <path id="Trazado_902807" data-name="Trazado 902807" d="M33.238,36.96A2.664,2.664,0,0,1,30.58,34.3c0-1.463.049-.512.122-.756a2.656,2.656,0,0,0-1.9,2.561,2.837,2.837,0,0,0,2.658,2.658,2.473,2.473,0,0,0,2.561-1.9,2.582,2.582,0,0,1-.756.122h0Z" transform="translate(-24.044 -26.181)" fill="#f05475"/>
              <rect id="Rectángulo_403564" data-name="Rectángulo 403564" width="1.78" height="1.78" transform="translate(22.509 43.653)" fill="#fff"/>
            </g>
            <g id="Grupo_1106780" data-name="Grupo 1106780">
              <path id="Trazado_902808" data-name="Trazado 902808" d="M92.277,68.411c-5.073,0-8.877-5.39-8.877-8.9A8.521,8.521,0,0,1,87.838,51.8V25.733h1.78V52.9l-.488.244a7.085,7.085,0,0,0-3.951,6.365c0,2.707,3.244,7.1,7.1,7.1a7.151,7.151,0,0,0,7.1-7.1c0-3.9-1.634-5.219-3.951-6.365l-.488-.244V19.538a2.67,2.67,0,0,0-5.341,0V24.05h-1.78V19.538a4.451,4.451,0,0,1,8.9,0V51.8c2.39,1.268,4.438,2.951,4.438,7.706a9.016,9.016,0,0,1-8.9,8.9Z" transform="translate(-63.061 -11.418)"/>
              <path id="Trazado_902809" data-name="Trazado 902809" d="M81.062,60.529A12.479,12.479,0,0,1,68.6,48.092c0-6.853,1.61-7.145,4.438-9.511V8A8.023,8.023,0,0,1,89.085,8V32.094h-1.78V8A6.231,6.231,0,0,0,74.843,8V39.434L74.5,39.7a10.66,10.66,0,1,0,17.242,8.389c0-5.877-1.171-6.219-3.317-7.8-.244-.2-.512-.366-.78-.585l-.341-.268v-5.56h1.78v4.682c.146.1.268.2.39.293,2.585,1.927,4.048,3.317,4.048,9.243S87.939,60.529,81.086,60.529Z" transform="translate(-51.87)"/>
              <rect id="Rectángulo_403565" data-name="Rectángulo 403565" width="7.121" height="1.78" transform="translate(25.655 19.656)"/>
              <rect id="Rectángulo_403566" data-name="Rectángulo 403566" width="1.78" height="12.657" transform="translate(47.872 4.438)"/>
              <rect id="Rectángulo_403567" data-name="Rectángulo 403567" width="1.78" height="12.657" transform="translate(42.868 8.401) rotate(-59.9)"/>
              <rect id="Rectángulo_403568" data-name="Rectángulo 403568" width="12.657" height="1.78" transform="translate(42.848 13.16) rotate(-30.1)"/>
              <path id="Trazado_902810" data-name="Trazado 902810" d="M192.468,12.69,191.2,11.422,193.346,9.3l2.1,2.122-1.268,1.268-.829-.854Z" transform="translate(-144.571 -7.032)"/>
              <path id="Trazado_902811" data-name="Trazado 902811" d="M170.48,27.434l-.78-2.878,2.9-.756.439,1.707-1.146.317.293,1.171Z" transform="translate(-128.315 -17.996)"/>
              <path id="Trazado_902812" data-name="Trazado 902812" d="M172.7,53.734l-2.9-.756.78-2.878,1.707.439-.293,1.171,1.146.317Z" transform="translate(-128.39 -37.882)"/>
              <path id="Trazado_902813" data-name="Trazado 902813" d="M193.522,68.765,191.4,66.693l1.268-1.268.854.854.854-.878,1.268,1.268Z" transform="translate(-144.723 -49.451)"/>
              <path id="Trazado_902814" data-name="Trazado 902814" d="M217.139,53.558l-.439-1.707,1.146-.317-.293-1.195,1.707-.439.78,2.9Z" transform="translate(-163.853 -37.731)"/>
              <path id="Trazado_902815" data-name="Trazado 902815" d="M219.161,27.234l-1.707-.439.293-1.171-1.146-.317.439-1.707,2.9.756Z" transform="translate(-163.777 -17.845)"/>
              <path id="Trazado_902816" data-name="Trazado 902816" d="M28.636,36.8a3.548,3.548,0,1,1,3.536-3.536A3.539,3.539,0,0,1,28.636,36.8Zm0-5.341a1.768,1.768,0,1,0,1.756,1.78A1.8,1.8,0,0,0,28.636,31.456Z" transform="translate(-18.979 -22.457)"/>
              <path id="Trazado_902817" data-name="Trazado 902817" d="M9.682,22.715l-.829-2.049a2.253,2.253,0,0,0-1.39-1.317,2.219,2.219,0,0,0-1.878.244l-1.9,1.195.561-2.17A2.224,2.224,0,0,0,3.9,16.74a2.2,2.2,0,0,0-1.658-.9L0,15.715l1.756-1.439a2.2,2.2,0,0,0,.8-1.707,2.237,2.237,0,0,0-.8-1.707L0,9.424l2.244-.146a2.144,2.144,0,0,0,1.634-.927A2.284,2.284,0,0,0,4.243,6.5L3.682,4.351,5.56,5.522a2.213,2.213,0,0,0,1.878.219,2.276,2.276,0,0,0,1.39-1.293L9.657,2.4l.829,2.049a2.253,2.253,0,0,0,1.39,1.317,2.219,2.219,0,0,0,1.878-.244l1.9-1.195L15.1,6.5a2.224,2.224,0,0,0,.341,1.878,2.2,2.2,0,0,0,1.658.9l2.244.146-1.756,1.439a2.2,2.2,0,0,0-.8,1.707,2.237,2.237,0,0,0,.8,1.707l1.731,1.439-2.244.146a2.144,2.144,0,0,0-1.634.927,2.284,2.284,0,0,0-.366,1.853l.561,2.146-1.878-1.171a2.213,2.213,0,0,0-1.878-.219,2.276,2.276,0,0,0-1.39,1.293l-.829,2.049ZM6.8,17.471a4.114,4.114,0,0,1,1.219.2,4.192,4.192,0,0,1,1.658,1.049,3.89,3.89,0,0,1,1.658-1.024,4.1,4.1,0,0,1,1.951-.146,4.258,4.258,0,0,1,.732-1.829,3.849,3.849,0,0,1,1.488-1.244,3.953,3.953,0,0,1,0-3.8,4.072,4.072,0,0,1-1.488-1.244,4.14,4.14,0,0,1-.732-1.829,4.085,4.085,0,0,1-1.951-.122A4.192,4.192,0,0,1,9.682,6.424,3.89,3.89,0,0,1,8.023,7.448a4.1,4.1,0,0,1-1.951.146,4.258,4.258,0,0,1-.732,1.829,3.849,3.849,0,0,1-1.488,1.244,3.942,3.942,0,0,1,.488,1.9,3.78,3.78,0,0,1-.488,1.878,4.073,4.073,0,0,1,1.488,1.244,4.14,4.14,0,0,1,.732,1.829,3.482,3.482,0,0,1,.707-.073Z" transform="translate(0 -1.815)"/>
              <rect id="Rectángulo_403569" data-name="Rectángulo 403569" width="5.341" height="1.78" transform="translate(45.165 47.189)"/>
              <rect id="Rectángulo_403570" data-name="Rectángulo 403570" width="5.316" height="1.78" transform="matrix(0.766, -0.643, 0.643, 0.766, 43.58, 44.164)"/>
              <rect id="Rectángulo_403571" data-name="Rectángulo 403571" width="1.78" height="5.316" transform="matrix(0.643, -0.766, 0.766, 0.643, 43.569, 52.014)"/>
              <rect id="Rectángulo_403572" data-name="Rectángulo 403572" width="5.341" height="1.78" transform="translate(7.877 47.189)"/>
              <rect id="Rectángulo_403573" data-name="Rectángulo 403573" width="1.78" height="5.341" transform="matrix(0.64, -0.768, 0.768, 0.64, 9.627, 42.141)"/>
              <rect id="Rectángulo_403574" data-name="Rectángulo 403574" width="5.341" height="1.78" transform="matrix(0.768, -0.64, 0.64, 0.768, 9.602, 54.058)"/>
            </g>
          </g>
        </g>
      </g>
    </g>
  </g>
</svg>
