<svg xmlns="http://www.w3.org/2000/svg" xmlns:xlink="http://www.w3.org/1999/xlink" width="129" height="129" viewBox="0 0 129 129">
  <defs>
    <radialGradient id="radial-gradient" cx="0.5" cy="0.5" r="0.5" gradientUnits="objectBoundingBox">
      <stop offset="0" stop-color="#fff"/>
      <stop offset="1" stop-color="#fff7ea"/>
    </radialGradient>
  </defs>
  <g id="Grupo_1106819" data-name="Grupo 1106819" transform="translate(-2338 9067)">
    <g id="Grupo_1106809" data-name="Grupo 1106809" transform="translate(1286.429 -13230)">
      <g id="Grupo_1106777" data-name="Grupo 1106777" transform="translate(626)">
        <g id="Elipse_12307" data-name="Elipse 12307" transform="translate(440.571 4178)" stroke="#fff" stroke-width="2" fill="url(#radial-gradient)">
          <circle cx="49.5" cy="49.5" r="49.5" stroke="none"/>
          <circle cx="49.5" cy="49.5" r="48.5" fill="none"/>
        </g>
        <g id="Elipse_12308" data-name="Elipse 12308" transform="translate(425.571 4163)" fill="none" stroke="#fff0d6" stroke-width="10" opacity="0.43">
          <circle cx="64.5" cy="64.5" r="64.5" stroke="none"/>
          <circle cx="64.5" cy="64.5" r="59.5" fill="none"/>
        </g>
      </g>
    </g>
    <g id="_010-task-list" data-name="010-task-list" transform="translate(2380 -9034)">
      <path id="Trazado_903018" data-name="Trazado 903018" d="M83.394,66.4H76.651a1.831,1.831,0,0,1-1.821,1.723h-17.2A1.849,1.849,0,0,1,55.807,66.4H49.089A2.284,2.284,0,0,0,46.8,68.687V118.3a2.284,2.284,0,0,0,2.288,2.289h34.33a2.285,2.285,0,0,0,2.289-2.289V68.687A2.306,2.306,0,0,0,83.394,66.4Zm0,0" transform="translate(-41.042 -58.228)" fill="#b26e3b"/>
      <path id="Trazado_903019" data-name="Trazado 903019" d="M105.715,106.8H80.466L75.2,112.092v39.326a1.376,1.376,0,0,0,1.378,1.379h29.162a1.376,1.376,0,0,0,1.379-1.379V108.179a1.414,1.414,0,0,0-1.4-1.378Zm0,0" transform="translate(-65.946 -93.659)" fill="#e9e9ea"/>
      <path id="Trazado_903020" data-name="Trazado 903020" d="M119.248,260.7a3.248,3.248,0,1,1,3.249-3.248A3.245,3.245,0,0,1,119.248,260.7Zm0,0" transform="translate(-101.726 -222.921)" fill="#6dcc6d"/>
      <path id="Trazado_903021" data-name="Trazado 903021" d="M119.248,329.9a3.248,3.248,0,1,1,3.249-3.248A3.245,3.245,0,0,1,119.248,329.9Zm0,0" transform="translate(-101.726 -283.605)" fill="#6dcc6d"/>
      <path id="Trazado_903022" data-name="Trazado 903022" d="M119.248,399.3a3.248,3.248,0,1,1,3.249-3.249A3.245,3.245,0,0,1,119.248,399.3Zm0,0" transform="translate(-101.726 -344.468)" fill="#6dcc6d"/>
      <path id="Trazado_903023" data-name="Trazado 903023" d="M155.486,140.9a.171.171,0,0,0-.246-.074l-.074.074a16.728,16.728,0,0,1-6.768,6.768v3.691h13.855v-3.691a17.046,17.046,0,0,1-6.768-6.768Zm0,0" transform="translate(-130.138 -123.476)" fill="#ffae2c"/>
      <path id="Trazado_903024" data-name="Trazado 903024" d="M182.4,177.2a15.648,15.648,0,0,1-3.2,6.1h6.423A15.2,15.2,0,0,1,182.4,177.2Zm0,0" transform="translate(-157.149 -155.395)" fill="#fc9322"/>
      <path id="Trazado_903025" data-name="Trazado 903025" d="M75.2,112.092h3.888a1.376,1.376,0,0,0,1.378-1.378V106.8Zm0,0" transform="translate(-65.946 -93.659)" fill="#55acd5"/>
      <path id="Trazado_903026" data-name="Trazado 903026" d="M122.02,50.8h17.2a1.821,1.821,0,1,1,0,3.642h-17.2a1.821,1.821,0,1,1,0-3.642Zm0,0" transform="translate(-105.409 -44.55)" fill="#e9e9ea"/>
      <path id="Trazado_903027" data-name="Trazado 903027" d="M288.93,1.058h-.443V.615a.615.615,0,1,0-1.23,0v.443h-.443a.615.615,0,0,0,0,1.23h.443v.443a.615.615,0,1,0,1.23,0V2.289h.443a.615.615,0,0,0,0-1.23Zm0,0" transform="translate(-250.983)" fill="#ea4647"/>
      <path id="Trazado_903028" data-name="Trazado 903028" d="M17.851,144.537c0-.049-.025-.074-.025-.123-.025-.025-.025-.074-.049-.1s-.05-.074-.074-.1a.642.642,0,0,0-.861,0,.348.348,0,0,0-.074.1.862.862,0,0,0-.1.222.421.421,0,0,0,0,.246c0,.049.025.074.025.123.025.049.025.074.049.1s.05.074.074.1a.6.6,0,0,0,.861,0,.358.358,0,0,0,.074-.1.187.187,0,0,0,.049-.1.185.185,0,0,0,.025-.123A.3.3,0,0,0,17.851,144.537Zm0,0" transform="translate(-14.602 -126.326)" fill="#6dcc6d"/>
      <path id="Trazado_903029" data-name="Trazado 903029" d="M335.85,32.537c0-.049-.025-.074-.025-.123-.025-.025-.025-.074-.049-.1s-.049-.074-.074-.1a.642.642,0,0,0-.861,0,.348.348,0,0,0-.074.1.863.863,0,0,0-.1.222.421.421,0,0,0,0,.246c0,.049.025.074.025.123.025.049.025.074.049.1s.049.074.074.1a.6.6,0,0,0,.861,0,.358.358,0,0,0,.074-.1.187.187,0,0,0,.049-.1.185.185,0,0,0,.025-.123A.3.3,0,0,0,335.85,32.537Zm0,0" transform="translate(-293.473 -28.107)" fill="#ffcd29"/>
      <path id="Trazado_903030" data-name="Trazado 903030" d="M2.535,193.255a1.581,1.581,0,0,1-1.23-1.23A.024.024,0,0,0,1.28,192a.024.024,0,0,0-.025.025,1.581,1.581,0,0,1-1.23,1.23.024.024,0,0,0-.025.025c0,.025,0,.025.025.025a1.581,1.581,0,0,1,1.23,1.23.024.024,0,0,0,.025.025.024.024,0,0,0,.025-.025,1.581,1.581,0,0,1,1.23-1.23c.025,0,.025,0,0-.049C2.56,193.279,2.56,193.255,2.535,193.255Zm0,0" transform="translate(0 -168.375)" fill="#55acd5"/>
      <path id="Trazado_903031" data-name="Trazado 903031" d="M134.639,50.673h-17.2a2.436,2.436,0,1,1,0-4.872h17.2a2.436,2.436,0,0,1,0,4.872Zm-17.2-3.642a1.206,1.206,0,1,0,0,2.411h17.2a1.206,1.206,0,0,0,0-2.411Zm0,0" transform="translate(-100.85 -40.165)"/>
      <path id="Trazado_903032" data-name="Trazado 903032" d="M79.01,116.844H44.7a2.909,2.909,0,0,1-2.9-2.9V64.3a2.909,2.909,0,0,1,2.9-2.9h6.743a.62.62,0,0,1,.615.591,1.211,1.211,0,0,0,1.206,1.132h17.2a1.211,1.211,0,0,0,1.206-1.132.639.639,0,0,1,.615-.591h6.743a2.91,2.91,0,0,1,2.9,2.9v49.613a2.92,2.92,0,0,1-2.929,2.929ZM44.7,62.629A1.675,1.675,0,0,0,43.031,64.3v49.613a1.675,1.675,0,0,0,1.673,1.674h34.33a1.675,1.675,0,0,0,1.674-1.674V64.3a1.675,1.675,0,0,0-1.674-1.674h-6.25a2.452,2.452,0,0,1-2.313,1.723h-17.2a2.451,2.451,0,0,1-2.338-1.723Zm0,0" transform="translate(-36.657 -53.844)"/>
      <path id="Trazado_903033" data-name="Trazado 903033" d="M189.258,24.58h-3.642a.609.609,0,0,1-.615-.615V22.636a2.436,2.436,0,1,1,4.873,0v1.329A.626.626,0,0,1,189.258,24.58Zm-3.027-1.23h2.412v-.714a1.206,1.206,0,0,0-2.412,0Zm0,0" transform="translate(-162.237 -17.714)"/>
      <path id="Trazado_903034" data-name="Trazado 903034" d="M155.725,79.8h-7.457a3.676,3.676,0,0,1-3.666-3.667v-.148a.639.639,0,0,1,.615-.591h13.56a.639.639,0,0,1,.615.591v.148a3.645,3.645,0,0,1-3.667,3.667Zm-9.844-3.175a2.448,2.448,0,0,0,2.387,1.969h7.457a2.424,2.424,0,0,0,2.387-1.969Zm0,0" transform="translate(-126.809 -66.121)"/>
      <path id="Trazado_903035" data-name="Trazado 903035" d="M101.33,149.176H72.192a1.985,1.985,0,0,1-1.993-1.993v-39.3a.707.707,0,0,1,.173-.443l5.266-5.267a.594.594,0,0,1,.443-.172H101.33a1.985,1.985,0,0,1,1.993,1.993v43.214a1.98,1.98,0,0,1-1.993,1.969Zm-29.9-41.048v39.08a.767.767,0,0,0,.763.763h29.162a.767.767,0,0,0,.763-.763V103.969a.767.767,0,0,0-.763-.763h-25Zm0,0" transform="translate(-61.561 -89.449)"/>
      <path id="Trazado_903036" data-name="Trazado 903036" d="M74.7,108.408H70.815a.609.609,0,0,1-.615-.615.707.707,0,0,1,.173-.443l5.266-5.267a.6.6,0,0,1,1.034.443v3.913A1.959,1.959,0,0,1,74.7,108.408Zm-2.412-1.23H74.7a.767.767,0,0,0,.763-.763V104Zm0,0" transform="translate(-61.562 -89.36)"/>
      <path id="Trazado_903037" data-name="Trazado 903037" d="M157.893,147.672h-13.88a.61.61,0,0,1-.615-.615v-3.691a.59.59,0,0,1,.345-.542,16.4,16.4,0,0,0,6.5-6.5.787.787,0,0,1,1.4,0,16.407,16.407,0,0,0,6.5,6.5.59.59,0,0,1,.345.542v3.691a.575.575,0,0,1-.591.615Zm-13.265-1.23h12.625v-2.707a17.72,17.72,0,0,1-6.324-6.128,17.5,17.5,0,0,1-6.325,6.128Zm5.931-9.549" transform="translate(-125.753 -119.174)"/>
      <path id="Trazado_903038" data-name="Trazado 903038" d="M181.038,179.334h-6.423a.609.609,0,0,1-.615-.615.668.668,0,0,1,.148-.419,15.024,15.024,0,0,0,3.076-5.857.615.615,0,0,1,1.181,0,15.024,15.024,0,0,0,3.076,5.857.618.618,0,0,1-.05.861.489.489,0,0,1-.394.173Zm-5.118-1.23h3.839a16.635,16.635,0,0,1-1.92-3.568,16.092,16.092,0,0,1-1.919,3.568Zm0,0" transform="translate(-152.59 -150.836)"/>
      <g id="Grupo_1106818" data-name="Grupo 1106818" transform="translate(13.658 30.663)">
        <path id="Trazado_903039" data-name="Trazado 903039" d="M191.5,287.429h-7.284a.615.615,0,0,1,0-1.23H191.5a.615.615,0,0,1,0,1.23Zm0,0" transform="translate(-174.668 -281.646)" fill="#231f20"/>
        <path id="Trazado_903040" data-name="Trazado 903040" d="M197.333,266.23H184.216a.615.615,0,0,1,0-1.23h13.117a.609.609,0,0,1,.615.615A.625.625,0,0,1,197.333,266.23Zm0,0" transform="translate(-174.668 -263.056)" fill="#231f20"/>
        <path id="Trazado_903041" data-name="Trazado 903041" d="M114.863,256.927a3.864,3.864,0,1,1,3.864-3.863A3.854,3.854,0,0,1,114.863,256.927Zm0-6.5a2.633,2.633,0,1,0,2.633,2.633A2.636,2.636,0,0,0,114.863,250.43Zm0,0" transform="translate(-111 -249.199)" fill="#231f20"/>
        <path id="Trazado_903042" data-name="Trazado 903042" d="M191.5,356.628h-7.284a.615.615,0,1,1,0-1.23H191.5a.615.615,0,1,1,0,1.23Zm0,0" transform="translate(-174.668 -342.331)" fill="#231f20"/>
        <path id="Trazado_903043" data-name="Trazado 903043" d="M197.333,335.429H184.216a.615.615,0,1,1,0-1.23h13.117a.609.609,0,0,1,.615.615A.625.625,0,0,1,197.333,335.429Zm0,0" transform="translate(-174.668 -323.74)" fill="#231f20"/>
        <path id="Trazado_903044" data-name="Trazado 903044" d="M114.863,326.126a3.864,3.864,0,1,1,3.864-3.863A3.854,3.854,0,0,1,114.863,326.126Zm0-6.5a2.633,2.633,0,1,0,2.633,2.633A2.636,2.636,0,0,0,114.863,319.629Zm0,0" transform="translate(-111 -309.884)" fill="#231f20"/>
        <path id="Trazado_903045" data-name="Trazado 903045" d="M191.5,426.031h-7.284a.615.615,0,0,1,0-1.23H191.5a.615.615,0,0,1,0,1.23Zm0,0" transform="translate(-174.668 -403.194)" fill="#231f20"/>
        <path id="Trazado_903046" data-name="Trazado 903046" d="M197.333,404.628H184.216a.615.615,0,0,1,0-1.23h13.117a.609.609,0,0,1,.615.615A.625.625,0,0,1,197.333,404.628Zm0,0" transform="translate(-174.668 -384.424)" fill="#231f20"/>
        <path id="Trazado_903047" data-name="Trazado 903047" d="M114.863,395.328a3.863,3.863,0,1,1,3.864-3.863A3.854,3.854,0,0,1,114.863,395.328Zm0-6.472a2.633,2.633,0,1,0,2.633,2.633A2.636,2.636,0,0,0,114.863,388.856Zm0,0" transform="translate(-111 -370.571)" fill="#231f20"/>
        <path id="Trazado_903048" data-name="Trazado 903048" d="M127.206,273.342a.576.576,0,0,1-.443-.2l-1.107-1.206a.61.61,0,1,1,.91-.812l.665.738,1.4-1.4a.609.609,0,0,1,.886.837l-.025.025-1.846,1.846A.593.593,0,0,1,127.206,273.342Zm0,0" transform="translate(-123.712 -267.681)" fill="#231f20"/>
        <path id="Trazado_903049" data-name="Trazado 903049" d="M127.206,342.741a.576.576,0,0,1-.443-.2l-1.107-1.206a.61.61,0,1,1,.91-.812l.665.738,1.4-1.4a.609.609,0,1,1,.886.837l-.025.025-1.846,1.846A.707.707,0,0,1,127.206,342.741Zm0,0" transform="translate(-123.712 -328.541)" fill="#231f20"/>
        <path id="Trazado_903050" data-name="Trazado 903050" d="M127.206,411.94a.576.576,0,0,1-.443-.2l-1.107-1.206a.61.61,0,1,1,.91-.812l.665.738,1.4-1.4a.609.609,0,0,1,.886.837l-.025.025-1.846,1.846A.593.593,0,0,1,127.206,411.94Zm0,0" transform="translate(-123.712 -389.225)" fill="#231f20"/>
      </g>
    </g>
  </g>
</svg>
