<svg xmlns="http://www.w3.org/2000/svg" width="90" height="90" viewBox="0 0 90 90">
  <g id="Grupo_1106802" data-name="Grupo 1106802" transform="translate(-409.571 -9898)">
    <g id="Grupo_1106801" data-name="Grupo 1106801">
      <circle id="Elipse_12309" data-name="Elipse 12309" cx="45" cy="45" r="45" transform="translate(409.571 9898)" fill="#6f9246"/>
    </g>
    <g id="parque-natural" transform="translate(426.571 9914)">
      <g id="Grupo_1106799" data-name="Grupo 1106799" transform="translate(1 1.897)">
        <g id="Grupo_1106786" data-name="Grupo 1106786" transform="translate(31.4 37.68)">
          <path id="Trazado_902824" data-name="Trazado 902824" d="M59.326,44.9v1.794a.9.9,0,0,1-.9.9H36.9a.9.9,0,0,1-.9-.9V44.9a.9.9,0,0,1,.9-.9H58.429A.9.9,0,0,1,59.326,44.9Z" transform="translate(-36 -44)" fill="#cf9e76"/>
        </g>
        <g id="Grupo_1106787" data-name="Grupo 1106787" transform="translate(49.343 41.269)">
          <path id="Trazado_902825" data-name="Trazado 902825" d="M56,48h3.589v5.383H56Z" transform="translate(-56 -48)" fill="#b27946"/>
        </g>
        <g id="Grupo_1106788" data-name="Grupo 1106788" transform="translate(33.194 26.914)">
          <path id="Trazado_902826" data-name="Trazado 902826" d="M57.737,33.794v3.589H38V33.794A1.8,1.8,0,0,1,39.794,32H55.943A1.8,1.8,0,0,1,57.737,33.794Z" transform="translate(-38 -32)" fill="#cf9e76"/>
        </g>
        <g id="Grupo_1106789" data-name="Grupo 1106789" transform="translate(47.549 32.297)">
          <path id="Trazado_902827" data-name="Trazado 902827" d="M54,38h3.589v5.383H54Z" transform="translate(-54 -38)" fill="#b27946"/>
        </g>
        <g id="Grupo_1106790" data-name="Grupo 1106790" transform="translate(27.812 13.457)">
          <path id="Trazado_902828" data-name="Trazado 902828" d="M45.655,19.458l4.889,11H39.177a1.8,1.8,0,0,0-1.794,1.794v.9H32l4.441-9.994,1.642-3.7a4.145,4.145,0,0,1,1.525-1.794A4.219,4.219,0,0,1,41.869,17a4.141,4.141,0,0,1,3.786,2.458Z" transform="translate(-32 -17)" fill="#ecc19c"/>
        </g>
        <g id="Grupo_1106791" data-name="Grupo 1106791" transform="translate(34.989 32.297)">
          <path id="Trazado_902829" data-name="Trazado 902829" d="M40,38h3.589v5.383H40Z" transform="translate(-40 -38)" fill="#b27946"/>
        </g>
        <g id="Grupo_1106792" data-name="Grupo 1106792" transform="translate(33.194 41.269)">
          <path id="Trazado_902830" data-name="Trazado 902830" d="M38,48h3.589v5.383H38Z" transform="translate(-38 -48)" fill="#b27946"/>
        </g>
        <g id="Grupo_1106793" data-name="Grupo 1106793" transform="translate(0 39.474)">
          <path id="Trazado_902831" data-name="Trazado 902831" d="M35.989,56.766a1.8,1.8,0,0,1,1.794,1.794,1.807,1.807,0,0,1-1.794,1.794H1V46H23.429a1.8,1.8,0,0,1,1.794,1.794,1.807,1.807,0,0,1-1.794,1.794H14.457a1.8,1.8,0,0,0-1.794,1.794,1.807,1.807,0,0,0,1.794,1.794H27.914a1.8,1.8,0,0,1,1.794,1.794A1.807,1.807,0,0,0,31.5,56.766Z" transform="translate(-1 -46)" fill="#69d6f4"/>
        </g>
        <g id="Grupo_1106794" data-name="Grupo 1106794" transform="translate(16.391 9.869)">
          <path id="Trazado_902832" data-name="Trazado 902832" d="M32.548,15.638l2.584,7.105-4.441,9.994h-7.24c-.341-2.449-2.072-4.342-4.181-4.468V28.26l2.449-5.392,3.418-7.518a4,4,0,0,1,7.41.287Z" transform="translate(-19.27 -13)" fill="#dfb28b"/>
        </g>
        <g id="Grupo_1106795" data-name="Grupo 1106795" transform="translate(11.851 25.12)">
          <path id="Trazado_902833" data-name="Trazado 902833" d="M18.507,40.766a4.674,4.674,0,0,1-4.3-3.858,8.513,8.513,0,0,0,1.606-5.114c0-.233-.009-.467-.027-.691A4.009,4.009,0,0,1,18.507,30a1.1,1.1,0,0,1,.242.018c2.108.126,3.84,2.019,4.181,4.468a5.869,5.869,0,0,1,.063.9C22.993,38.352,20.983,40.766,18.507,40.766Z" transform="translate(-14.21 -30)" fill="#b4dd7f"/>
        </g>
        <g id="Grupo_1106796" data-name="Grupo 1106796" transform="translate(11.062 16.149)">
          <path id="Trazado_902834" data-name="Trazado 902834" d="M20.112,21.606l1,1.983L18.659,28.98v.009a1.1,1.1,0,0,0-.242-.018,4.009,4.009,0,0,0-2.718,1.1,7.8,7.8,0,0,0-2.368-5.284l1.6-3.185a2.9,2.9,0,0,1,5.186,0Z" transform="translate(-13.33 -20)" fill="#ecc19c"/>
        </g>
        <g id="Grupo_1106797" data-name="Grupo 1106797" transform="translate(2.691 19.737)">
          <path id="Trazado_902835" data-name="Trazado 902835" d="M9.383,38.354C6.413,38.354,4,35.143,4,31.177S6.413,24,9.383,24a4.508,4.508,0,0,1,2.987,1.2,7.8,7.8,0,0,1,2.368,5.284c.018.224.027.458.027.691a8.513,8.513,0,0,1-1.606,5.114A4.8,4.8,0,0,1,9.383,38.354Z" transform="translate(-4 -24)" fill="#a0d468"/>
        </g>
        <g id="Grupo_1106798" data-name="Grupo 1106798" transform="translate(4.486 0)">
          <circle id="Elipse_12323" data-name="Elipse 12323" cx="4.5" cy="4.5" r="4.5" transform="translate(-0.485 -0.274)" fill="#fcd770"/>
        </g>
      </g>
      <g id="Grupo_1106800" data-name="Grupo 1106800" transform="translate(1 1)">
        <path id="Trazado_902836" data-name="Trazado 902836" d="M54.829,39.812H53.034V36.223h1.794V31.737a2.7,2.7,0,0,0-2.691-2.691h-4.2L43.285,18.581a5.04,5.04,0,0,0-9.21,0l-.74,1.665-1.826-5.02a4.9,4.9,0,0,0-9.067-.353l-2.64,5.81-.151-.3a3.8,3.8,0,0,0-6.8,0l-1.127,2.253a5.106,5.106,0,0,0-2.651-.765c-3.462,0-6.28,3.622-6.28,8.074,0,4.06,2.345,7.419,5.383,7.982v3.681H1V43.4H23.429a.9.9,0,1,1,0,1.794H14.457a2.691,2.691,0,0,0,0,5.383H27.914a.9.9,0,0,1,.9.9A2.7,2.7,0,0,0,31.5,54.166h4.486a.9.9,0,1,1,0,1.794H1v1.794H35.989a2.691,2.691,0,1,0,0-5.383H31.5a.9.9,0,0,1-.9-.9,2.7,2.7,0,0,0-2.691-2.691H14.457a.9.9,0,0,1,0-1.794h8.971a2.691,2.691,0,0,0,0-5.383H18.046V39.717c2.542-.5,4.486-3.08,4.486-6.186H33.3v2.691h1.794v3.589H33.3A1.8,1.8,0,0,0,31.5,41.606V43.4A1.8,1.8,0,0,0,33.3,45.194v5.383H38.68V45.194H49.446v5.383h5.383V45.194A1.8,1.8,0,0,0,56.623,43.4V41.606a1.8,1.8,0,0,0-1.794-1.794Zm-3.589,0H49.446V36.223H51.24Zm-3.589-3.589v3.589H40.474V36.223Zm5.383-4.486v2.691H35.092V31.737a.9.9,0,0,1,.9-.9H52.137A.9.9,0,0,1,53.034,31.737ZM14.457,21.183a2.006,2.006,0,0,1,3.589,0l.8,1.6-2.045,4.5a4.687,4.687,0,0,0-1.69.453,8.6,8.6,0,0,0-1.965-3.931Zm-9.869,8.76c0-3.462,2.012-6.28,4.486-6.28s4.486,2.818,4.486,6.28c0,3.032-1.544,5.569-3.589,6.154V31.139l2.512-3.349-1.435-1.077L9.971,28.149v-.9H8.177V31.19L7.152,29.482,5.613,30.4l2.564,4.272V36.1C6.133,35.512,4.589,32.975,4.589,29.943ZM9.971,41.606V37.925a5.482,5.482,0,0,0,2.546-1.237,5.494,5.494,0,0,0,3.734,3.033v1.885Zm8.074-3.747V32.634H16.251v5.222a4.013,4.013,0,0,1-2.419-2.66,9.475,9.475,0,0,0,1.522-5.254c0-.089-.008-.175-.011-.264a3.025,3.025,0,0,1,1.805-.633c1.979,0,3.589,2.012,3.589,4.486A4.415,4.415,0,0,1,18.046,37.858ZM22.3,31.737a5.917,5.917,0,0,0-3.636-4.226l5.406-11.894a3.108,3.108,0,0,1,5.75.222l2.461,6.768-4.057,9.13Zm7.888,0,5.523-12.428a3.245,3.245,0,0,1,5.93,0l4.327,9.737H35.989A2.7,2.7,0,0,0,33.3,31.737Zm6.694,4.486H38.68v3.589H36.886Zm0,12.56H35.092V45.194h1.794Zm16.149,0H51.24V45.194h1.794ZM33.3,43.4V41.606H54.829l0,1.794Z" transform="translate(-1 -2.131)"/>
        <path id="Trazado_902837" data-name="Trazado 902837" d="M10.383,11.766A5.383,5.383,0,1,0,5,6.383,5.388,5.388,0,0,0,10.383,11.766Zm0-8.971A3.589,3.589,0,1,1,6.794,6.383,3.592,3.592,0,0,1,10.383,2.794Z" transform="translate(-1.411 -1)"/>
        <path id="Trazado_902838" data-name="Trazado 902838" d="M33.971,7.383h7.177a.9.9,0,1,1-.9.9H38.457a2.691,2.691,0,1,0,2.691-2.691H36.5a2.661,2.661,0,0,0,.165-.9,2.691,2.691,0,1,0-5.383,0h1.794a.9.9,0,1,1,.9.9H25V7.383h8.971Z" transform="translate(-3.469 -1.103)"/>
        <path id="Trazado_902839" data-name="Trazado 902839" d="M61.766,14.691a2.691,2.691,0,0,0-5.383,0h1.794a.9.9,0,1,1,.9.9H51v1.794h8.074A2.7,2.7,0,0,0,61.766,14.691Z" transform="translate(-6.143 -2.131)"/>
        <path id="Trazado_902840" data-name="Trazado 902840" d="M1,6H2.794V7.794H1Z" transform="translate(-1 -1.514)"/>
        <path id="Trazado_902841" data-name="Trazado 902841" d="M0,0H1.794V1.794H0Z" transform="translate(1.992 11.091) rotate(-45)"/>
        <path id="Trazado_902842" data-name="Trazado 902842" d="M10,15h1.794v1.794H10Z" transform="translate(-1.926 -2.44)"/>
        <path id="Trazado_902843" data-name="Trazado 902843" d="M0,0H1.794V1.794H0Z" transform="translate(13.409 11.093) rotate(-45)"/>
        <path id="Trazado_902844" data-name="Trazado 902844" d="M19,6h1.794V7.794H19Z" transform="translate(-2.851 -1.514)"/>
      </g>
    </g>
  </g>
</svg>
