<svg xmlns="http://www.w3.org/2000/svg" xmlns:xlink="http://www.w3.org/1999/xlink" width="129" height="129" viewBox="0 0 129 129">
  <defs>
    <radialGradient id="radial-gradient" cx="0.5" cy="0.5" r="0.5" gradientUnits="objectBoundingBox">
      <stop offset="0" stop-color="#fff"/>
      <stop offset="1" stop-color="#fff7ea"/>
    </radialGradient>
  </defs>
  <g id="Grupo_1106817" data-name="Grupo 1106817" transform="translate(-2968 9067)">
    <g id="Grupo_1106811" data-name="Grupo 1106811" transform="translate(1916.429 -13230)">
      <g id="Grupo_1106777" data-name="Grupo 1106777" transform="translate(626)">
        <g id="Elipse_12307" data-name="Elipse 12307" transform="translate(440.571 4178)" stroke="#fff" stroke-width="2" fill="url(#radial-gradient)">
          <circle cx="49.5" cy="49.5" r="49.5" stroke="none"/>
          <circle cx="49.5" cy="49.5" r="48.5" fill="none"/>
        </g>
        <g id="Elipse_12308" data-name="Elipse 12308" transform="translate(425.571 4163)" fill="none" stroke="#fff0d6" stroke-width="10" opacity="0.43">
          <circle cx="64.5" cy="64.5" r="64.5" stroke="none"/>
          <circle cx="64.5" cy="64.5" r="59.5" fill="none"/>
        </g>
      </g>
    </g>
    <g id="_068-trash" data-name="068-trash" transform="translate(3009.993 -9035)">
      <path id="Trazado_902998" data-name="Trazado 902998" d="M59.759,134.569c-2.927-4.916-7.889-10.678-15.709-12.553h-4.71c-7.82,1.875-12.782,7.637-15.709,12.553a25,25,0,0,0-3.476,12.8V156.2a9.712,9.712,0,0,0,9.6,9.832H53.631a9.727,9.727,0,0,0,9.6-9.832v-8.827a25.159,25.159,0,0,0-3.475-12.8Zm0,0" transform="translate(-17.844 -108.066)" fill="#6d6c6b"/>
      <path id="Trazado_902999" data-name="Trazado 902999" d="M132.81,251.841a11.227,11.227,0,1,1-11.227-11.227A11.227,11.227,0,0,1,132.81,251.841Zm0,0" transform="translate(-97.733 -213.104)" fill="#6dcc6d"/>
      <path id="Trazado_903000" data-name="Trazado 903000" d="M177.084,103.037h-6.517a1.212,1.212,0,1,1,0-2.424h6.517a1.22,1.22,0,0,1,1.212,1.212A1.205,1.205,0,0,1,177.084,103.037Zm0,0" transform="translate(-149.987 -89.11)" fill="#bbbbbf"/>
      <path id="Trazado_903001" data-name="Trazado 903001" d="M177.084,81.837h-6.517a1.212,1.212,0,1,1,0-2.424h6.517a1.22,1.22,0,0,1,1.212,1.212A1.205,1.205,0,0,1,177.084,81.837Zm0,0" transform="translate(-149.987 -70.334)" fill="#e9e9ea"/>
      <path id="Trazado_903002" data-name="Trazado 903002" d="M152.721,13.575h6.517a1.293,1.293,0,0,1,.64.183C161.2,12.066,164.039,7.95,162,5.915c-1.829-1.829-4.39-.32-5.557.549a.892.892,0,0,1-1.052,0c-1.166-.869-3.727-2.378-5.557-.549-2.058,2.058.869,6.243,2.172,7.889a1.144,1.144,0,0,1,.709-.229Zm0,0" transform="translate(-132.072 -4.473)" fill="#6d6c6b"/>
      <path id="Trazado_903003" data-name="Trazado 903003" d="M296.495,88.4h-.411v-.412a.572.572,0,1,0-1.143,0V88.4h-.412a.572.572,0,0,0,0,1.143h.412v.411a.572.572,0,1,0,1.143,0v-.411h.411a.572.572,0,0,0,0-1.143Zm0,0" transform="translate(-260.343 -77.42)" fill="#ea4647"/>
      <path id="Trazado_903004" data-name="Trazado 903004" d="M1.122,232.938c0-.046-.023-.069-.023-.114-.023-.023-.023-.069-.046-.092s-.046-.068-.068-.092a.573.573,0,0,0-.8.023.307.307,0,0,0-.069.091.824.824,0,0,0-.092.206.391.391,0,0,0,0,.229c0,.046.023.069.023.114.023.046.023.069.046.092s.046.069.068.092a.552.552,0,0,0,.8,0,.31.31,0,0,0,.069-.092.174.174,0,0,0,.046-.092.169.169,0,0,0,.023-.114.325.325,0,0,0,.023-.251Zm0,0" transform="translate(0 -205.909)" fill="#55acd5"/>
      <path id="Trazado_903005" data-name="Trazado 903005" d="M329.122,54.916c0-.046-.023-.069-.023-.114-.023-.023-.023-.069-.046-.092s-.046-.068-.068-.092a.6.6,0,0,0-.8,0,.316.316,0,0,0-.069.092.817.817,0,0,0-.092.206.392.392,0,0,0,0,.229c0,.046.023.069.023.114.023.046.023.069.046.092s.046.068.068.092a.552.552,0,0,0,.8,0,.316.316,0,0,0,.069-.092.174.174,0,0,0,.046-.092.169.169,0,0,0,.023-.114A.263.263,0,0,0,329.122,54.916Zm0,0" transform="translate(-290.5 -48.238)" fill="#ffcd29"/>
      <path id="Trazado_903006" data-name="Trazado 903006" d="M14.389,160.971a2.3,2.3,0,0,1-1.806-1.806c0-.023-.023-.046-.046-.023a.022.022,0,0,0-.023.023,2.3,2.3,0,0,1-1.806,1.806c-.023,0-.046.023-.023.046a.022.022,0,0,0,.023.023,2.3,2.3,0,0,1,1.806,1.806c0,.023.023.046.046.023a.022.022,0,0,0,.023-.023,2.3,2.3,0,0,1,1.806-1.806c.023,0,.046-.023.023-.046C14.412,160.971,14.412,160.971,14.389,160.971Zm0,0" transform="translate(-9.449 -140.939)" fill="#6dcc6d"/>
      <path id="Trazado_903007" data-name="Trazado 903007" d="M49.2,162.353H25.329a10.307,10.307,0,0,1-10.175-10.4v-8.827a25.341,25.341,0,0,1,3.567-13.079c2.835-4.779,7.912-10.861,16.075-12.8.046,0,.092-.023.137-.023h4.71a.292.292,0,0,1,.138.023c8.14,1.944,13.239,8.049,16.074,12.8a25.781,25.781,0,0,1,3.567,13.079v8.827a10.375,10.375,0,0,1-10.221,10.4ZM34.979,118.336C27.25,120.211,22.4,126.042,19.7,130.592A24.6,24.6,0,0,0,16.3,143.1v8.826a9.161,9.161,0,0,0,9.032,9.261H49.2a9.16,9.16,0,0,0,9.032-9.261V143.1a24.372,24.372,0,0,0-3.407-12.507c-2.721-4.573-7.568-10.381-15.274-12.256Zm0,0" transform="translate(-13.415 -103.814)"/>
      <path id="Trazado_903008" data-name="Trazado 903008" d="M172.656,99.181h-6.517a1.783,1.783,0,1,1,0-3.567h6.517a1.783,1.783,0,1,1,0,3.567Zm-6.517-2.424a.639.639,0,0,0-.64.64.625.625,0,0,0,.64.64h6.517a.639.639,0,0,0,.64-.64.626.626,0,0,0-.64-.64Zm0,0" transform="translate(-145.559 -84.682)"/>
      <path id="Trazado_903009" data-name="Trazado 903009" d="M172.656,77.981h-6.517a1.783,1.783,0,1,1,0-3.567h6.517a1.783,1.783,0,1,1,0,3.567Zm-6.517-2.4a.639.639,0,0,0-.64.64.625.625,0,0,0,.64.64h6.517a.639.639,0,0,0,.64-.64.626.626,0,0,0-.64-.64Zm0,0" transform="translate(-145.559 -65.906)"/>
      <path id="Trazado_903010" data-name="Trazado 903010" d="M147.52,9.9a.575.575,0,0,1-.457-.206c-4.139-5.236-3.11-7.683-2.126-8.666,1.532-1.532,3.818-1.349,6.288.5a.309.309,0,0,0,.389,0c2.47-1.852,4.756-2.035,6.288-.5.983.983,2.012,3.407-2.081,8.6a.6.6,0,0,1-.755.137.522.522,0,0,0-.32-.092h-6.517a.635.635,0,0,0-.366.114.614.614,0,0,1-.343.114Zm-.091-8.757a2.351,2.351,0,0,0-1.669.686c-1.623,1.623.778,5.236,1.944,6.768a1.534,1.534,0,0,1,.549-.092h6.517a1.327,1.327,0,0,1,.435.069c1.143-1.509,3.544-5.122,1.92-6.745-1.486-1.486-3.658-.252-4.8.594a1.441,1.441,0,0,1-1.738,0,6.1,6.1,0,0,0-3.155-1.28Zm0,0" transform="translate(-127.58 0)"/>
      <path id="Trazado_903011" data-name="Trazado 903011" d="M185.109,276.247a.565.565,0,0,1-.48-.251l-2.1-3.293a.672.672,0,0,0-.938-.205.449.449,0,0,0-.205.205L179.3,275.95a.562.562,0,0,1-.777.183.583.583,0,0,1-.183-.777l2.081-3.247a1.817,1.817,0,0,1,2.515-.549,1.579,1.579,0,0,1,.549.549l2.1,3.293a.589.589,0,0,1-.183.8A1.165,1.165,0,0,1,185.109,276.247Zm0,0" transform="translate(-157.874 -240.255)"/>
      <path id="Trazado_903012" data-name="Trazado 903012" d="M151.1,333.169h-4.116a1.835,1.835,0,0,1-1.829-1.829,1.713,1.713,0,0,1,.3-.983l1.9-2.973a.564.564,0,0,1,.8-.16.556.556,0,0,1,.16.777l-1.9,2.973a.672.672,0,0,0,.206.938.693.693,0,0,0,.366.114H151.1a.566.566,0,0,1,.572.572A.581.581,0,0,1,151.1,333.169Zm0,0" transform="translate(-128.554 -289.723)"/>
      <path id="Trazado_903013" data-name="Trazado 903013" d="M223.644,333.391h-4.116a.572.572,0,0,1,0-1.143h4.116a.676.676,0,0,0,.572-1.052l-1.875-2.927a.577.577,0,0,1,.96-.64l1.875,2.927a1.817,1.817,0,0,1-.548,2.515A1.583,1.583,0,0,1,223.644,333.391Zm0,0" transform="translate(-193.918 -289.944)"/>
      <path id="Trazado_903014" data-name="Trazado 903014" d="M219.915,358.483a.658.658,0,0,1-.412-.16l-1.875-1.875a.552.552,0,0,1,0-.8l1.875-1.875a.553.553,0,0,1,.8.023.6.6,0,0,1,0,.8l-1.486,1.486,1.486,1.486a.552.552,0,0,1,0,.8A.87.87,0,0,1,219.915,358.483Zm0,0" transform="translate(-192.589 -313.184)"/>
      <path id="Trazado_903015" data-name="Trazado 903015" d="M213.977,286.207a.287.287,0,0,1-.137-.023l-2.584-.686a.579.579,0,1,1,.3-1.12l2.012.548.549-2.012a.579.579,0,1,1,1.12.3l-.686,2.561A.6.6,0,0,1,213.977,286.207Zm0,0" transform="translate(-186.72 -250.192)"/>
      <path id="Trazado_903016" data-name="Trazado 903016" d="M144.993,330.537a.584.584,0,0,1-.549-.435l-.549-2.012-2.012.548a.579.579,0,1,1-.3-1.12l2.561-.686a.573.573,0,0,1,.709.411l.686,2.561a.574.574,0,0,1-.412.709A.291.291,0,0,1,144.993,330.537Zm0,0" transform="translate(-125.007 -289.445)"/>
      <path id="Trazado_903017" data-name="Trazado 903017" d="M117.155,259.212a11.8,11.8,0,1,1,11.8-11.8A11.8,11.8,0,0,1,117.155,259.212Zm0-22.454a10.656,10.656,0,1,0,10.655,10.655A10.666,10.666,0,0,0,117.155,236.757Zm0,0" transform="translate(-93.305 -208.676)"/>
    </g>
  </g>
</svg>
